<?xml version="1.0" encoding="UTF-8"?>
<!DOCTYPE svg  PUBLIC '-//W3C//DTD SVG 1.1//EN'  'http://www.w3.org/Graphics/SVG/1.1/DTD/svg11.dtd'>
<svg version="1.1" xmlns="http://www.w3.org/2000/svg">
<defs>
<font id="ALISEORegular" horiz-adv-x="909">
<font-face font-family="ALISEO" font-weight="400" ascent="800" bbox="29.8365 -169 879 852" cap-height="700" descent="-200" panose-1="0 0 0 0 0 0 0 0 0 0" underline-position="0" underline-thickness="0" unicode-range="U+0020-00FC" units-per-em="1000" x-height="700"/>
<missing-glyph/>
<glyph glyph-name="space" horiz-adv-x="309" unicode=" "/>
<glyph d="M186 708l-2 -478h-129l1 455l3 12q7 10 20 11h107zM119 0q-51 0 -77 41q-12 21 -12 43q0 47 43 72q22 12 46 12q51 0 77 -41q13 -21 13 -43q0 -47 -43 -72q-22 -12 -47 -12z" glyph-name="exclam" horiz-adv-x="239" unicode="!"/>
<glyph d="M30 732l4 13q7 10 20 11h96v-262h-120v177v61zM238 756h96v-262h-120v177v61l4 13q7 10 20 11z" glyph-name="quotedbl" horiz-adv-x="365" unicode='"'/>
<glyph d="M455 500h112v-88h-157l18 -16q8 -12 7 -19l-15 -92h110v-88h-154l16 -17q8 -11 8 -18l-27 -162h-95l32 197h-114l21 -17q10 -11 10 -18l-27 -162h-95l32 197h-107v61l4 16q7 10 19 11h98l21 127h-106v64l4 13q7 10 19 11h98l29 177l6 13q8 9 21 10h72l-33 -200h78l29 177 l7 13q8 9 20 10h73zM324 285l21 127h-108l17 -17q9 -11 8 -18l-15 -92h77z" glyph-name="numbersign" horiz-adv-x="597" unicode="#"/>
<glyph d="M482 484h-107l-2 29q-5 18 -13 28q-28 29 -102 29q-82 -1 -94 -55q-8 -38 18 -61q6 -5 12 -7q19 -8 66 -23q121 -37 171 -77q70 -56 71 -142q0 -110 -90 -169q-49 -31 -107 -36v-106h-76v108q-147 21 -187 145q-9 31 -12 65q0 22 15 23h115q0 -72 44 -93q30 -14 80 -15 q48 0 73 33q14 19 14 45q0 39 -42 59q-21 10 -109 38q-52 16 -76 26q-74 30 -101 108q-18 51 -7 104q16 81 89 125q46 27 104 33v88l3 12q8 10 20 11h53v-113q102 -12 155 -72q44 -51 44 -110v-6q-5 -19 -22 -24z" glyph-name="dollar" horiz-adv-x="534" unicode="$"/>
<glyph d="M479 616l79 -1l-336 -538h-100l330 527l7 8q9 4 20 4zM292 421q-40 -38 -110 -38q-68 0 -110 38t-42 104v34q1 63 41 102q42 38 110 38q71 0 111 -38q41 -40 41 -105v-33q-1 -64 -41 -102zM167 471l1 -1h2q7 -1 12 -2q19 1 31 10q27 18 28 50v27q0 36 -34 53q-2 1 -3 1 q-11 5 -23 5q-12 -1 -21 -5q-33 -13 -37 -48q-1 -3 -1 -6v-27q0 -37 34 -53q3 -2 4.5 -2.5t6.5 -1.5zM616 278q40 -39 41 -105v-33q0 -64 -41 -102t-110 -38t-111 38t-42 104v34q1 63 42 102q42 38 110 38q70 0 111 -38zM564 144v27q0 37 -33 53l-4 2q-10 4 -22 5 q-12 -1 -22 -5q-34 -19 -37 -55v-27q0 -36 33 -53q8 -3 16 -5q4 0 8 -1h1h1v0h1q29 1 41 18q16 18 17 41z" glyph-name="percent" horiz-adv-x="687" unicode="%"/>
<glyph d="M530 95q5 -4 25 -28t38.5 -45l18.5 -21h-176l-39 45q-49 -29 -76 -36q-32 -9 -68 -10q-102 1 -162 54q-61 53 -61 139q2 128 89 175l2 1q-28 40 -44 75q-15 36 -15 73q0 83 53 134q54 50 140 50q77 0 127 -47q51 -47 51 -116q0 -87 -96 -155l-36 -25l105 -120 q21 42 25 90q1 14 15 21q5 2 8 2h110q0 -138 -63 -221h-30l45 -23q10 -7 14 -12zM210 583q-17 -20 -18 -51q1 -39 42 -92l36 23q25 16 36 33q11 18 12 44q-1 25 -18 43q-18 19 -42 19q-31 -1 -48 -19zM181 146q46 -46 127 -7q3 1 5 2l-121 136l-18 -17q-48 -57 7 -114z" glyph-name="ampersand" horiz-adv-x="642" unicode="&amp;"/>
<glyph d="M94 751h95v-78q0 -45 -26 -95q-26 -51 -62 -84l-71 38q40 69 41 136v60l3 13q7 10 20 10z" glyph-name="quotesingle" horiz-adv-x="219" unicode="'"/>
<glyph d="M197 602q-37 -106 -38 -247v-21q1 -145 37 -251q37 -106 105 -156v-96q-120 48 -201 197q-26 48 -39 88q-30 100 -31 211v22q0 117 31 218q28 89 91 171q57 74 118 98q29 9 31 -11v-69q-68 -50 -104 -154z" glyph-name="parenleft" horiz-adv-x="331" unicode="("/>
<glyph d="M269 567q32 -102 32 -218v-22q-2 -112 -32 -211q-28 -91 -96 -175q-65 -78 -143 -110v96q68 51 105 156q36 107 36 251v21q0 142 -37 247t-104 154v69q0 22 31 11q93 -36 169 -178q27 -50 39 -91z" glyph-name="parenright" horiz-adv-x="331" unicode=")"/>
<glyph d="M479 536l-154 -53l89 -133l-74 -49l-85 127l-85 -127l-74 49l88 133l-154 53l29 84l151 -52v161h89v-161l151 52z" glyph-name="asterisk" horiz-adv-x="509" unicode="*"/>
<glyph d="M324 424h164v-129h-195l22 -19q9 -10 9 -17v-152h-130v188h-164v106l3 13q8 10 20 10h141v160l4 12q7 10 19 11h107v-183z" glyph-name="plus" horiz-adv-x="518" unicode="+"/>
<glyph d="M105 139h104v-86q0 -124 -84 -211l-10 -10l-85 38q39 69 49 156q1 12 1 21v66l3 14q8 11 22 12z" glyph-name="comma" horiz-adv-x="239" unicode=","/>
<glyph d="M53 405h266v-125h-289v102l4 13q7 10 19 10z" glyph-name="hyphen" horiz-adv-x="349" unicode="-"/>
<glyph d="M119 0q-51 0 -77 41q-12 21 -12 43q0 47 43 72q22 12 46 12q51 0 77 -41q13 -21 13 -43q0 -47 -43 -72q-22 -12 -47 -12z" glyph-name="period" horiz-adv-x="239" unicode="."/>
<glyph d="M292 732h92l-239 -760h-115l232 737l7 13q10 9 23 10z" glyph-name="slash" horiz-adv-x="414" unicode="/"/>
<glyph d="M453 296q0 -135 -34 -200q-52 -95 -177 -96q-201 0 -211 246q-1 19 -1 50v128q0 130 30 193q51 102 181 103q199 0 211 -239q1 -21 1 -58v-127zM323 272v173q0 102 -34 133q-20 16 -48 17q-75 0 -80 -114q-1 -7 -1 -26v-179q0 -100 32 -132q20 -18 50 -19q77 0 81 122v25 z" glyph-name="zero" horiz-adv-x="483" unicode="0"/>
<glyph d="M321 700v-700h-131v517l-160 -46v101l4 20q6 12 16 16l256 92h15z" glyph-name="one" horiz-adv-x="351" unicode="1"/>
<glyph d="M243 125h259v-125h-472l1 101q0 11 5.5 22.5t11.5 18.5l5 6l291 297q28 31 13 73q-16 46 -68 52q-7 1 -13 1q-26 0 -46 -9t-29 -21.5t-14.5 -25.5t-5.5 -22l-1 -9h-108q-17 2 -18 26q1 33 30 82q66 107 192 108q133 0 195 -93q20 -32 28 -67q18 -89 -38 -158q-2 -3 -4 -5 l-248 -252h34z" glyph-name="two" horiz-adv-x="533" unicode="2"/>
<glyph d="M164 418h77q90 0 90 89q0 35 -21 56q-23 22 -61 22q-33 -1 -56 -19q-24 -19 -24 -46h-105q-18 0 -22 16q0 4 -1 7q0 32 28 73l2 2q52 74 154 81q12 1 24 1q141 0 192 -107q19 -41 19 -83q-1 -46 -28 -85q-26 -38 -73 -62h-42q63 -10 97 -38q15 -13 25 -27q32 -41 32 -101 q0 -66 -46 -122q-62 -74 -176 -75q-132 1 -190 89q-24 38 -29 82q1 22 22 24h107q1 -33 26 -56q26 -23 64 -24q43 1 68 24q25 25 25 61q0 53 -26 75q-27 22 -73 22h-79v121z" glyph-name="three" horiz-adv-x="501" unicode="3"/>
<glyph d="M455 274h71v-125h-103l22 -18q9 -11 10 -18v-113h-130v149h-295v75q0 11 6 26t11 25l6 10l244 391l13 14q13 10 25 10h120v-426zM315 473l-116 -199h126v215z" glyph-name="four" horiz-adv-x="556" unicode="4"/>
<glyph d="M66 341q-20 2 -22 20v8l38 308l4 13q8 9 22 10h355v-124h-308l18 -16q9 -11 8 -19l-11 -102q18 10 45 17q29 8 55 8q104 0 160 -61t56 -171q0 -74 -39 -137q-62 -94 -190 -95q-152 0 -208 121q-14 30 -19 61q0 22 23 24h107q3 -49 30 -67q25 -15 67 -16q64 0 88 60 q10 26 10 60q0 110 -100 110q-56 0 -84 -36z" glyph-name="five" horiz-adv-x="516" unicode="5"/>
<glyph d="M368 699q4 0 2 0q21 0 22 -23v-101h-7q-170 0 -212 -125q-6 -17 -9 -34q4 22 58 31q85 15 154 -26q91 -55 91 -186q0 -100 -54 -166q-59 -68 -164 -69q-217 0 -219 265v3v63q0 122 55 218q88 149 283 150zM313 316q-26 31 -67 32q-33 -1 -54 -15q-22 -15 -32 -35v-48 q0 -128 92 -128q37 0 61.5 32t24.5 81q0 50 -25 81z" glyph-name="six" horiz-adv-x="497" unicode="6"/>
<glyph d="M516 613l-267 -613h-147l254 570h-326v105l4 15q7 9 19 10h463v-87z" glyph-name="seven" horiz-adv-x="546" unicode="7"/>
<glyph d="M240 700q122 0 175 -93q22 -42 23 -81q-1 -67 -25 -105q-27 -38 -70 -61q50 -25 79 -65q29 -42 30 -98q0 -117 -86 -167q-51 -30 -124 -30q-149 0 -195 109q-17 40 -17 88q1 55 29 97q30 42 82 66q-45 24 -71 61q-25 38 -25 105q0 61 44 112q56 62 151 62zM300 145 q22 24 22 64q-1 43 -22 65q-24 23 -59 23q-37 -1 -60 -23q-22 -23 -22 -65q1 -40 23 -64q23 -23 60 -23q36 0 58 23zM291 557q-17 21 -51 21q-33 0 -50 -20q-16 -22 -17 -58q1 -37 18 -59q18 -22 51 -22t49 22q17 23 17 59q-1 36 -17 57z" glyph-name="eight" horiz-adv-x="482" unicode="8"/>
<glyph d="M130 0l-14 4q-10 7 -10 19v101h7q169 0 212 125q5 17 9 35q-5 -22 -59 -32q-85 -15 -154 26q-90 56 -91 187q0 99 55 165q59 69 164 69q216 0 218 -265v-3v-63q0 -123 -56 -219q-87 -148 -281 -149zM185 383q26 -31 67 -31q32 0 53 14q22 15 33 36v47q0 129 -92 129 q-37 0 -62 -32.5t-25 -80.5q1 -50 26 -82z" glyph-name="nine" horiz-adv-x="497" unicode="9"/>
<glyph d="M119 0q-51 0 -77 41q-12 21 -12 43q0 47 43 72q22 12 46 12q51 0 77 -41q13 -21 13 -43q0 -47 -43 -72q-22 -12 -47 -12zM119 384q-51 0 -77 41q-12 20 -12 43q0 47 43 71q22 12 46 12q51 0 77 -41q13 -20 13 -42q0 -47 -43 -72q-22 -12 -47 -12z" glyph-name="colon" horiz-adv-x="239" unicode=":"/>
<glyph d="M80 113l3 14q8 11 22 12h104v-86q0 -124 -84 -211l-10 -10l-85 38q39 69 49 156q1 12 1 21v66zM138 392q-52 0 -78 41q-12 20 -12 43q0 47 43 71q22 12 47 13q51 0 77 -42q12 -20 12 -42q0 -47 -43 -72q-22 -12 -46 -12z" glyph-name="semicolon" horiz-adv-x="257" unicode=";"/>
<glyph d="M455 316l-243 -97l243 -98v-121l-425 173v68l5 16q7 11 18 17l402 163v-121z" glyph-name="less" horiz-adv-x="485" unicode="&lt;"/>
<glyph d="M53 504h422v-125h-445v102l3 12q8 10 20 11zM30 270l3 12q8 10 20 11h422v-125h-445v102z" glyph-name="equal" horiz-adv-x="505" unicode="="/>
<glyph d="M273 219l-243 97v121l402 -163q10 -5 15.5 -13t6.5 -14l1 -6v-68l-425 -173v121z" glyph-name="greater" horiz-adv-x="485" unicode="&gt;"/>
<glyph d="M243 726q101 0 162 -74q45 -56 45 -131q0 -27 -6.5 -50t-21.5 -43t-25.5 -31.5t-32.5 -30.5q-41 -39 -63 -65q-9 -11 -9 -74h-128q0 96 26 138q6 10 13 18q28 34 75 77q40 37 43 51q1 5 1 10q0 54 -49 72q-15 5 -30 5q-64 0 -83 -69q-3 -10 -3 -17h-105q-24 1 -22 23 q12 82 72 138q59 53 141 53zM233 0q-51 0 -77 41q-12 21 -12 43q0 47 42 72q22 12 47 12q51 0 77 -41q12 -21 13 -43q0 -47 -43 -72q-22 -12 -47 -12z" glyph-name="question" horiz-adv-x="480" unicode="?"/>
<glyph d="M434 708q262 0 368 -193q53 -97 52 -202v-9q-6 -138 -53 -200q-58 -75 -154 -75q-57 1 -87 17q-31 18 -47 49q-16 -22 -36 -36q-28 -19 -91 -19q-69 0 -114 63q-12 17 -17 33q-18 57 -12 119q15 123 70 187q64 73 163 73q71 0 122 -32l30 -20l-24 -283q-6 -47 37 -62 q13 -4 27 -4q41 1 68 52q18 33 21 124v5q1 3 1 4q5 110 -53 196q-85 125 -273 125q-161 0 -252 -137q-14 -21 -24 -42q-29 -60 -33 -162q-4 -156 76 -258q58 -74 162 -86q28 -3 63 -3q40 0 85 9q46 10 74 22l14 -64q2 -16 -17 -27q-25 -12 -59 -20q-50 -11 -99 -12 q-190 0 -290 115q-14 17 -26 35q-89 141 -74 317q14 174 120 285q111 115 282 116zM497 231l19 161q-14 3 -62 3q-55 0 -83 -59q-11 -25 -15 -57q-9 -79 26 -111q17 -15 42 -15q53 0 69 63q2 7 4 15z" glyph-name="at" horiz-adv-x="884" unicode="@"/>
<glyph d="M413 677l221 -677h-142l-30 100l-270 46l12 -17q6 -13 4 -21l-37 -108h-141l232 677l8 14q8 8 16 9h104q7 0 13 -6t8 -12zM277 266q3 -1 18 -3.5t35 -6l40 -7t33.5 -5.5l13.5 -2l-82 262l-65 -207l-2 -19q3 -9 9 -12z" glyph-name="A" horiz-adv-x="664" unicode="A"/>
<glyph d="M413 677l221 -677h-142l-30 100l-270 46l12 -17q6 -13 4 -21l-37 -108h-141l232 677l8 14q8 8 16 9h104q7 0 13 -6t8 -12zM277 266q3 -1 18 -3.5t35 -6l40 -7t33.5 -5.5l13.5 -2l-82 262l-65 -207l-2 -19q3 -9 9 -12z" glyph-name="A" horiz-adv-x="664" unicode="Å"/>
<glyph d="M449 357q79 -26 97 -117q3 -18 3 -33q0 -109 -77 -164q-60 -43 -158 -43h-284v677q2 22 24 23h227q181 0 235 -118q17 -37 17 -76q0 -60 -28 -106q-23 -37 -56 -43zM281 570h-151l21 -19q9 -10 9 -17v-126h127q55 1 79 20q23 21 23 59q-1 44 -25 64q-27 19 -83 19z M380 151q24 22 24 59q0 87 -87 88h-187l20 -19q10 -11 10 -18v-131h149q46 0 71 21z" glyph-name="B" horiz-adv-x="580" unicode="B"/>
<glyph d="M499 237h102q0 -87 -56 -152q-77 -85 -231 -85q-251 0 -280 233q-4 37 -4 101v35q0 292 224 326q29 5 60 5q157 0 239 -93q48 -55 48 -114q0 -29 -27 -33q-10 -2 -22 -2h-81l-2 26q-17 73 -119 84q-18 2 -36 2q-153 -2 -154 -190v-49q0 -139 68 -181q35 -21 86 -22 q99 0 140 54q11 15 13 28q2 16 18 24q7 3 14 3z" glyph-name="C" horiz-adv-x="632" unicode="C"/>
<glyph d="M538 539q41 -77 42 -172v-32q0 -96 -41 -172q-40 -76 -114 -119q-75 -43 -165 -44h-230v677l4 13q7 9 20 10h201q93 0 167 -42q74 -43 116 -119zM450 335v30q0 115 -68 169q-45 35 -115 36h-137l21 -19q9 -11 10 -17v-404h107q124 0 166 117q15 43 16 88z" glyph-name="D" horiz-adv-x="611" unicode="D"/>
<glyph d="M505 700v-130h-375l22 -20q8 -10 8 -17v-111h296v-125h-326l22 -19q8 -10 8 -17v-131h344v-130h-474v678l4 12q7 9 19 10h452z" glyph-name="E" horiz-adv-x="535" unicode="E"/>
<glyph d="M56 700h424v-130h-350l20 -18q10 -11 11 -18v-125h280v-130h-311l20 -18q10 -11 11 -19v-242h-131v677l3 12q7 10 23 11z" glyph-name="F" horiz-adv-x="511" unicode="F"/>
<glyph d="M335 334l4 13q7 10 19 11h233v-264q-45 -51 -133 -77q-58 -17 -123 -17q-179 0 -260 151q-45 86 -45 186q0 122 59 222q85 141 246 142q158 0 226 -124q22 -41 29 -85q1 -22 -20 -23h-106q-9 59 -43 81q-32 21 -87 21q-88 0 -140 -87q-34 -59 -35 -123v-30q0 -72 42 -133 q50 -71 134 -71q80 0 118 22q5 3 8 6v55q0 6 7.5 15t15.5 15l8 5h-157v89z" glyph-name="G" horiz-adv-x="621" unicode="G"/>
<glyph d="M433 700h108v-700h-132v251l-279 41l21 -18q9 -10 9 -17v-257h-130v677l3 12q8 10 20 11h107v-281l249 -38v296l4 12q7 10 20 11z" glyph-name="H" horiz-adv-x="572" unicode="H"/>
<glyph d="M53 700h1v0h1h1h1h1h1h1h1h1h1h1h1h1h1h1h1h1h1h1h1h2h1h1h1h1h1h2h1h1h1h2h1h1h1h2h1h2h1h1h2h1h2h1h2h1h2h1h2h1h2h1h2h1h2h2h1h2h1h2h2h1h2h2h2h1h2h2h2h1h2h2h2h9v-700h-130v677l3 12q7 10 20 11z" glyph-name="I" horiz-adv-x="191" unicode="I"/>
<glyph d="M327 700h108v-471q0 -116 -70 -180q-54 -49 -134 -49q-142 0 -186 129q-12 32 -15 68q1 23 22 24h107q0 -48 16 -70q17 -21 56 -21q35 1 54 26q19 27 19 73v448l4 13q7 9 19 10z" glyph-name="J" horiz-adv-x="465" unicode="J"/>
<glyph d="M263 364l35 -8q37 -14 51 -38l180 -318h-150l-149 261l-69 -91v-170h-131v677l4 13q8 9 20 10h107v-326l210 302l13 14q13 9 25 10h122l-225 -336h-43z" glyph-name="K" horiz-adv-x="562" unicode="K"/>
<glyph d="M160 130h282v-130h-412v677l4 14q7 8 18 9h108v-570z" glyph-name="L" horiz-adv-x="473" unicode="L"/>
<glyph d="M563 700h188v-700h-131v491l-167 -491h-124l-168 495v-495h-131v677l3 12q8 10 20 11h182l156 -487l149 464l9 15q7 7 14 8z" glyph-name="M" horiz-adv-x="781" unicode="M"/>
<glyph d="M431 700h33h50.5h23.5v-700h-130l-248 436v-436h-130v678l3 12q8 9 20 10h107l248 -436v413l3 12q7 10 20 11z" glyph-name="N" horiz-adv-x="568" unicode="N"/>
<glyph d="M337 700q124 0 213 -98q91 -101 93 -246q1 -4 1 -6q0 -146 -91 -249q-93 -99 -216 -101q-124 0 -213 98q-92 107 -94 252q0 146 91 248q92 100 216 102zM337 129q77 0 129 74q43 63 43 147q0 106 -64 172q-48 49 -108 49q-78 0 -129 -74q-43 -64 -44 -147q0 -106 65 -173 q48 -48 108 -48z" glyph-name="O" horiz-adv-x="674" unicode="O"/>
<glyph d="M270 700q109 0 172 -66q59 -62 59 -171q0 -147 -128 -203q-52 -22 -106 -22h-138l22 -19q8 -10 9 -17v-202h-130v677l4 14q7 8 18 9h218zM345 392q26 25 26 70q-1 49 -27 78q-27 29 -72 30h-142l22 -21q7 -9 8 -15v-166h110q49 0 75 24z" glyph-name="P" horiz-adv-x="532" unicode="P"/>
<glyph d="M462 60l46 -12q28 -10 42 -22l82 -68l-100 -86l-157 131q-22 -3 -38 -3q-124 0 -213 98q-92 107 -94 252q0 146 91 248q92 100 216 102q124 0 213 -98q91 -101 93 -246q1 -4 1 -6q0 -146 -91 -249q-21 -23 -44 -41h-47zM337 129q77 0 129 74q43 63 43 147q0 106 -64 172 q-48 49 -108 49q-78 0 -129 -74q-43 -64 -44 -147q0 -106 65 -173q48 -48 108 -48z" glyph-name="Q" horiz-adv-x="674" unicode="Q"/>
<glyph d="M376 290l147 -290h-149l-124 248h-122l21 -18q10 -10 10 -17v-213h-129v677l3 12q8 10 20 11h213q104 0 170 -64q57 -57 57 -147q0 -114 -52 -161q-25 -23 -65 -38zM338 403q24 26 25 70q-1 46 -25 71q-26 26 -72 26h-138l21 -17q10 -11 10 -19v-157h107q48 1 72 26z" glyph-name="R" horiz-adv-x="553" unicode="R"/>
<glyph d="M482 485h-107l-2 29q-5 18 -13 28q-28 29 -102 29q-82 -1 -94 -55q-8 -38 18 -61q6 -5 12 -7q19 -8 66 -23q121 -37 171 -77q70 -56 71 -142q0 -110 -91 -169q-57 -37 -127 -37q-170 0 -229 117q-21 42 -25 96q0 22 15 23h115q0 -72 44 -93q30 -14 80 -15q48 0 73 33 q14 19 14 45q0 39 -42 59q-21 10 -109 38q-52 16 -76 26q-74 30 -101 108q-18 51 -7 104q16 81 89 126q57 33 133 33q137 -1 202 -75q44 -51 44 -110v-6q-5 -19 -22 -24z" glyph-name="S" horiz-adv-x="535" unicode="S"/>
<glyph d="M53 700h495v-130h-212l19 -17q10 -11 11 -19v-534h-130v570h-206v107l3 12q8 10 20 11z" glyph-name="T" horiz-adv-x="579" unicode="T"/>
<glyph d="M395 700h107v-449q0 -201 -155 -241q-37 -10 -81 -10q-203 0 -232 188q-4 28 -4 60v429l3 12q8 10 20 11h106v-455q3 -115 107 -115q87 0 103 90q3 16 3 32v425l3 12q7 10 20 11z" glyph-name="U" horiz-adv-x="533" unicode="U"/>
<glyph d="M464 700h111l-194 -700h-156l-194 677v12q4 10 16 11h115l139 -510l133 487l6 12q10 10 24 11z" glyph-name="V" horiz-adv-x="605" unicode="V"/>
<glyph d="M672 700h116l-136 -700h-153l-94 399l-92 -399h-148l-134 677v12q5 10 18 11h113l80 -439l91 416l6 12q9 10 22 11h111l97 -439l76 416l6 13q9 9 21 10z" glyph-name="W" horiz-adv-x="818" unicode="W"/>
<glyph d="M363 365l185 -365h-148l-111 219l-111 -219h-148l185 365l-157 312l-3 12q3 10 14 11h124l96 -190l84 167l9 14q9 8 18 9h132z" glyph-name="X" horiz-adv-x="579" unicode="X"/>
<glyph d="M475 700h1v0h1h1h1h1h1h1h1h1h1h1h1h1h1h1h1h1h1h1h1h1h1h1h1h1h1h2h1h1h1h1h1h2h1h1h1h2h1h1h1h2h1h1h2h1h2h1h1h2h1h2h1h2h1h2h1h2h1h2h1h2h1h2h2h1h2h2h1h2h1h2h2h1h2h2h2h1h2h2h2h1h2h2h2h1h2h2h9l-226 -449v-251h-130v251l-213 426l-3 12q3 10 15 11h126l139 -285 l132 262l10 13q11 10 23 10z" glyph-name="Y" horiz-adv-x="633" unicode="Y"/>
<glyph d="M475 700h1v0h1h1h1h1h1h1h1h1h1h1h1h1h1h1h1h1h1h1h1h1h1h1h1h1h1h2h1h1h1h1h1h2h1h1h1h2h1h1h1h2h1h1h2h1h2h1h1h2h1h2h1h2h1h2h1h2h1h2h1h2h1h2h2h1h2h2h1h2h1h2h2h1h2h2h2h1h2h2h2h1h2h2h2h1h2h2h9l-226 -449v-251h-130v251l-213 426l-3 12q3 10 15 11h126l139 -285 l132 262l10 13q11 10 23 10z" glyph-name="Y" horiz-adv-x="633" unicode="Ý"/>
<glyph d="M219 130h335v-130h-522v66q0 23 23 56l311 448h-336v107l3 12q8 10 20 11h498v-87z" glyph-name="Z" horiz-adv-x="585" unicode="Z"/>
<glyph d="M53 852h164v-118h-88l21 -18q9 -11 10 -18v-716h57v-118h-187v965l3 13q8 10 20 10z" glyph-name="bracketleft" horiz-adv-x="247" unicode="["/>
<glyph d="M31 709l-1 12q5 10 17 11h92l239 -760h-115z" glyph-name="backslash" horiz-adv-x="408" unicode="\"/>
<glyph d="M53 852h164v-988h-187v118h57v752h-57v95l3 13q8 10 20 10z" glyph-name="bracketright" horiz-adv-x="247" unicode="]"/>
<glyph d="M307 732l144 -350h-128l-82 218l-82 -218h-129l134 327l9 13q11 10 24 10h110z" glyph-name="asciicircum" horiz-adv-x="481" unicode="^"/>
<glyph d="M53 50h422v-125h-445v102l3 13q8 10 20 10z" glyph-name="underscore" horiz-adv-x="505" unicode="_"/>
<glyph d="M413 677l221 -677h-142l-30 100l-270 46l12 -17q5 -13 4 -21l-37 -108h-141l232 677l8 14q8 8 16 9h104q7 0 13 -6t8 -12zM277 266q3 -1 18 -3.5t35 -6l40 -7t33.5 -5.5l13.5 -2l-82 262l-65 -207l-2 -19q3 -9 9 -12z" glyph-name="a" horiz-adv-x="664" unicode="a"/>
<glyph d="M449 357q79 -26 97 -117q3 -18 3 -33q0 -109 -77 -164q-60 -43 -158 -43h-284v677q2 22 24 23h227q181 0 235 -118q17 -37 17 -76q0 -60 -28 -106q-23 -37 -56 -43zM281 570h-151l21 -19q9 -10 9 -17v-126h127q55 1 79 20q23 21 23 59q-1 44 -25 64q-27 19 -83 19z M380 151q24 22 24 59q0 87 -87 88h-187l20 -19q10 -11 10 -18v-131h149q46 0 71 21z" glyph-name="b" horiz-adv-x="579" unicode="b"/>
<glyph d="M499 237h102q0 -87 -56 -152q-77 -85 -231 -85q-251 0 -280 233q-4 37 -4 101v35q0 292 224 326q29 5 60 5q157 0 239 -93q48 -55 48 -114q0 -29 -27 -33q-10 -2 -22 -2h-81l-2 26q-17 73 -119 84q-18 2 -36 2q-153 -2 -154 -190v-49q0 -139 68 -181q35 -21 86 -22 q99 0 140 54q11 15 13 28q2 16 18 24q7 3 14 3z" glyph-name="c" horiz-adv-x="631" unicode="c"/>
<glyph d="M538 539q41 -77 42 -172v-32q0 -96 -41 -172q-40 -76 -114 -119q-75 -43 -165 -44h-230v677l4 13q7 9 20 10h201q93 0 167 -42q74 -43 116 -119zM450 335v30q0 115 -68 169q-45 35 -115 36h-137l21 -19q9 -11 10 -17v-404h107q124 0 166 117q15 43 16 88z" glyph-name="d" horiz-adv-x="610" unicode="d"/>
<glyph d="M53 700h452v-130h-375l22 -20q8 -10 8 -17v-111h296v-125h-326l22 -19q8 -10 8 -17v-131h344v-130h-474v678l4 12q7 9 19 10z" glyph-name="e" horiz-adv-x="535" unicode="e"/>
<glyph d="M56 700h424v-130h-350l20 -18q10 -11 11 -18v-125h280v-130h-311l20 -18q10 -11 11 -19v-242h-131v677l3 12q7 10 23 11z" glyph-name="f" horiz-adv-x="510" unicode="f"/>
<glyph d="M335 333l4 13q7 10 19 11h233v-264q-45 -51 -133 -77q-58 -17 -123 -17q-179 0 -260 151q-45 86 -45 186q0 122 59 222q85 141 246 142q158 0 226 -124q22 -41 29 -85q1 -22 -20 -23h-106q-9 59 -43 81q-32 21 -87 21q-88 0 -140 -87q-34 -59 -35 -123v-30q0 -72 42 -133 q50 -71 134 -71q80 0 118 22q5 3 8 6v55q0 6 7.5 15t15.5 15l8 5h-157v89z" glyph-name="g" horiz-adv-x="621" unicode="g"/>
<glyph d="M433 700h108v-700h-132v251l-279 41l21 -18q9 -10 9 -17v-257h-130v677l3 12q8 10 20 11h107v-281l249 -38v296l4 12q7 10 20 11z" glyph-name="h" horiz-adv-x="571" unicode="h"/>
<glyph d="M53 700h1v0h1h1h1h1h1h1h1h1h1h1h1h1h1h1h1h1h1h1h1h2h1h1h1h1h1h2h1h1h1h2h1h1h1h2h1h2h1h1h2h1h2h1h2h1h2h1h2h1h2h1h2h1h2h2h1h2h1h2h2h1h2h2h2h1h2h2h2h1h2h2h2h9v-700h-130v677l3 12q7 10 20 11z" glyph-name="i" horiz-adv-x="190" unicode="i"/>
<glyph d="M327 700h108v-471q0 -116 -70 -180q-54 -49 -134 -49q-142 0 -186 129q-12 32 -15 68q1 23 22 24h107q0 -48 16 -70q17 -21 56 -21q35 1 54 26q19 27 19 73v448l4 13q7 9 19 10z" glyph-name="j" horiz-adv-x="465" unicode="j"/>
<glyph d="M263 364l35 -8q37 -14 51 -38l180 -318h-150l-149 261l-69 -91v-170h-131v677l4 13q8 9 20 10h107v-326l210 302l13 14q13 9 25 10h122l-225 -336h-43z" glyph-name="k" horiz-adv-x="561" unicode="k"/>
<glyph d="M160 130h282v-130h-412v677l4 14q7 8 18 9h108v-570z" glyph-name="l" horiz-adv-x="472" unicode="l"/>
<glyph d="M563 700h188v-700h-131v491l-167 -491h-124l-168 495v-495h-131v677l3 12q8 10 20 11h182l156 -487l149 464l9 15q7 7 14 8z" glyph-name="m" horiz-adv-x="781" unicode="m"/>
<glyph d="M431 700h33h50.5h23.5v-700h-130l-248 436v-436h-130v678l3 12q8 9 20 10h107l248 -436v413l3 12q7 10 20 11z" glyph-name="n" horiz-adv-x="568" unicode="n"/>
<glyph d="M337 700q124 0 213 -98q91 -101 93 -246q1 -4 1 -6q0 -146 -91 -249q-93 -99 -216 -101q-124 0 -213 98q-92 107 -94 252q0 146 91 248q92 100 216 102zM337 129q77 0 129 74q43 63 43 147q0 106 -64 172q-48 49 -108 49q-78 0 -129 -74q-43 -64 -44 -147q0 -106 65 -173 q48 -48 108 -48z" glyph-name="o" horiz-adv-x="674" unicode="o"/>
<glyph d="M270 700q109 0 172 -66q59 -62 59 -171q0 -147 -128 -203q-52 -22 -106 -22h-138l22 -19q8 -10 9 -17v-202h-130v677l4 14q7 8 18 9h218zM345 392q26 25 26 70q-1 49 -27 78q-27 29 -72 30h-142l22 -21q7 -9 8 -15v-166h110q49 0 75 24z" glyph-name="p" horiz-adv-x="531" unicode="p"/>
<glyph d="M462 60l46 -12q28 -10 42 -22l82 -68l-100 -86l-157 131q-22 -3 -38 -3q-124 0 -213 98q-92 107 -94 252q0 146 91 248q92 100 216 102q124 0 213 -98q91 -101 93 -246q1 -4 1 -6q0 -146 -91 -249q-21 -23 -44 -41h-47zM337 129q77 0 129 74q43 63 43 147q0 106 -64 172 q-48 49 -108 49q-78 0 -129 -74q-43 -64 -44 -147q0 -106 65 -173q48 -48 108 -48z" glyph-name="q" horiz-adv-x="674" unicode="q"/>
<glyph d="M376 290l147 -290h-149l-124 248h-122l21 -18q10 -10 10 -17v-213h-129v677l3 12q8 10 20 11h213q104 0 170 -64q57 -57 57 -147q0 -114 -52 -161q-25 -23 -65 -38zM338 403q24 26 25 70q-1 46 -25 71q-26 26 -72 26h-138l21 -17q10 -11 10 -19v-157h107q48 1 72 26z" glyph-name="r" horiz-adv-x="553" unicode="r"/>
<glyph d="M482 485h-107l-2 29q-5 18 -13 28q-28 29 -102 29q-82 -1 -94 -55q-8 -38 18 -61q6 -5 12 -7q19 -8 66 -23q121 -37 171 -77q70 -56 71 -142q0 -110 -91 -169q-57 -37 -127 -37q-170 0 -229 117q-21 42 -25 96q0 22 15 23h115q0 -72 44 -93q30 -14 80 -15q48 0 73 33 q14 19 14 45q0 39 -42 59q-21 10 -109 38q-52 16 -76 26q-74 30 -101 108q-18 51 -7 104q16 81 89 126q57 33 133 33q137 -1 202 -75q44 -51 44 -110v-6q-5 -19 -22 -24z" glyph-name="s" horiz-adv-x="534" unicode="s"/>
<glyph d="M53 700h495v-130h-212l19 -17q10 -11 11 -19v-534h-130v570h-206v107l3 12q8 10 20 11z" glyph-name="t" horiz-adv-x="578" unicode="t"/>
<glyph d="M395 700h107v-449q0 -201 -155 -241q-37 -10 -81 -10q-203 0 -232 188q-4 28 -4 60v429l3 12q8 10 20 11h106v-455q3 -115 107 -115q87 0 103 90q3 16 3 32v425l3 12q7 10 20 11z" glyph-name="u" horiz-adv-x="532" unicode="u"/>
<glyph d="M464 700h111l-194 -700h-156l-194 677v12q4 10 16 11h115l139 -510l133 487l6 12q10 10 24 11z" glyph-name="v" horiz-adv-x="605" unicode="v"/>
<glyph d="M672 700h116l-136 -700h-153l-94 399l-92 -399h-148l-134 677v12q5 10 18 11h113l80 -439l91 416l6 12q9 10 22 11h111l97 -439l76 416l6 13q9 9 21 10z" glyph-name="w" horiz-adv-x="818" unicode="w"/>
<glyph d="M363 365l185 -365h-148l-111 219l-111 -219h-148l185 365l-157 312l-3 12q3 10 14 11h124l96 -190l84 167l9 14q9 8 18 9h132z" glyph-name="x" horiz-adv-x="578" unicode="x"/>
<glyph d="M219 130h335v-130h-522v66q0 23 23 56l311 448h-336v107l3 12q8 10 20 11h498v-87z" glyph-name="z" horiz-adv-x="584" unicode="z"/>
<glyph glyph-name="nonbreakingspace" horiz-adv-x="309" unicode=" "/>
<glyph d="M544 230q178 -88 335 -35v-13q-82 -44 -222 -39q-111 4 -186 41q-81 40 -150 108q-16 16 -28 31l-87 105q-1 0 -21 -2v-131q1 -19 45 -20v-12h-88q-3 52 -3 62v308q0 12 3 62h95q63 0 86 -61q9 -26 9 -59q0 -67 -43 -103l73 -89q64 -79 116 -115q29 -19 66 -38zM185 453 q72 4 90 48q9 23 9 61q0 86 -42 103q-14 5 -32 5h-25v-217zM528 195l2 3q-101 52 -198 162l-72 90l-15 -10l74 -92q96 -112 209 -153zM32 695h86q3 -52 3 -62v-308q0 -13 -3 -62h-86v12q39 3 43 20v367q-3 19 -43 20v13zM350 576q0 78 -42 112q77 -21 89 -82q2 -10 2 -20 q0 -60 -53 -100q-15 -11 -28 -16q32 42 32 106zM576 287q-104 54 -114 170q-1 11 -1 22q0 115 95 178q3 1 5 3q-52 -63 -52 -175q0 -133 67 -198zM707 257q-133 0 -168 138q-10 42 -11 91q0 167 115 205q30 9 65 9q39 0 91 -19q2 -1 3 -1q27 -11 35 2l2 4l11 -4l-30 -98 l-11 4q6 43 -19 63q-28 21 -82 21q-132 -2 -132 -181q0 -154 84 -194q26 -11 57 -12q76 0 124 54q5 5 9 10l9 -22q-49 -69 -150 -69q-1 -1 -2 -1zM75 34v2h24v-2q-3 -1 -4 -3v-16q0 -3 1 -5q-11 -10 -29 -10q-28 0 -35 26q-2 7 -2 12q0 31 30 37q5 0 9 1q9 -1 16 -4q3 1 4 2 h2v-16l-2 1q-3 12 -20 12q-26 0 -27 -28l-1 -2q0 -32 23 -36q3 -1 6 -1q8 1 15 4v20q-1 5 -10 6zM193 33l19 -25q5 -5 11 -5v-2h-21q1 3 0 4l-18 25q-5 0 -10 -1v-23q2 -3 8 -3v-2h-25v2q5 1 7 3v63q-2 3 -7 4v2h27q23 -2 25 -19q-1 -14 -16 -23zM174 33q22 3 23 22 q-2 15 -16 16h-7v-38zM304 76l27 -70q2 -3 5 -3v-2h-21v2q4 1 5 2l-8 20h-24l-7 -20l3 -2h4v-2h-18v2q5 1 6 2l25 70zM289 29h22l-11 31zM418 75q22 0 25 -18v-3q0 -21 -26 -26q-4 -1 -9 -1v-21q2 -3 9 -3v-2h-26v2q6 1 7 3v63q-1 3 -7 4v2h27zM408 31q23 2 24 21 q-2 18 -17 19h-7v-40zM548 73v2h23v-2q-6 -1 -7 -4v-63q1 -3 7 -3v-2h-23v2q4 1 5 3v32h-36v-32q2 -3 6 -3v-2h-23v2q5 1 7 3v63q-2 3 -7 4v2h23v-2q-5 -1 -6 -4v-27h36v27q-1 3 -5 4zM630 73v2h23v-2q-5 -1 -6 -3v-64q1 -3 6 -3v-2h-23v2q5 1 6 3v64q-1 2 -6 3zM751 4 q14 1 21 10l2 -3q-9 -11 -25 -11q-30 0 -37 27q-1 6 -1 11q0 29 28 36q6 1 11 2q7 -1 14 -3q5 -1 6 0h2l-5 -16l-1 1q0 8 -4 10q-5 3 -13 3q-24 0 -26 -26q-1 -3 -1 -5q0 -30 23 -35q3 -1 6 -1zM859 44q18 -12 18 -23q-5 -18 -24 -21q-7 0 -15 4q-5 1 -7 -1l-1 1l5 18l2 -1 q1 -14 15 -17q14 1 15 13q-1 11 -21 22q-13 9 -13 18q1 18 21 19q5 0 11 -3q5 0 6 1h2l-5 -15l-1 1q0 11 -13 11q-11 -1 -12 -10q0 -7 13 -15q3 -1 4 -2z" glyph-name="exclamdown" unicode="¡"/>
<glyph d="M32 695h86q3 -52 3 -62v-308q0 -13 -3 -62h-86v12q39 3 43 20v367q-3 19 -43 20v13zM544 230q178 -88 335 -35v-13q-82 -44 -222 -39q-111 4 -186 41q-81 40 -150 108q-16 16 -28 31l-87 105q-1 0 -21 -2v-131q1 -19 45 -20v-12h-88q-3 52 -3 62v308q0 12 3 62h95 q63 0 86 -61q9 -26 9 -59q0 -67 -43 -103l73 -89q64 -79 116 -115q29 -19 66 -38zM185 453q72 4 90 48q9 23 9 61q0 86 -42 103q-14 5 -32 5h-25v-217zM528 195l2 3q-101 52 -198 162l-72 90l-15 -10l74 -92q96 -112 209 -153zM350 576q0 78 -42 112q77 -21 89 -82 q2 -10 2 -20q0 -60 -53 -100q-15 -11 -28 -16q32 42 32 106zM576 287q-104 54 -114 170q-1 11 -1 22q0 115 95 178q3 1 5 3q-52 -63 -52 -175q0 -133 67 -198zM707 257q-133 0 -168 138q-10 42 -11 91q0 167 115 205q30 9 65 9q39 0 91 -19q2 -1 3 -1q27 -11 35 2l2 4l11 -4 l-30 -98l-11 4q6 43 -19 63q-28 21 -82 21q-132 -2 -132 -181q0 -154 84 -194q26 -11 57 -12q76 0 124 54q5 5 9 10l9 -22q-49 -69 -150 -69q-1 -1 -2 -1zM75 34v2h24v-2q-3 -1 -4 -3v-16q0 -3 1 -5q-11 -10 -29 -10q-28 0 -35 26q-2 7 -2 12q0 31 30 37q5 0 9 1q9 -1 16 -4 q3 1 4 2h2v-16l-2 1q-3 12 -20 12q-26 0 -27 -28l-1 -2q0 -32 23 -36q3 -1 6 -1q8 1 15 4v20q-1 5 -10 6zM193 33l19 -25q5 -5 11 -5v-2h-21q1 3 0 4l-18 25q-5 0 -10 -1v-23q2 -3 8 -3v-2h-25v2q5 1 7 3v63q-2 3 -7 4v2h27q23 -2 25 -19q-1 -14 -16 -23zM174 33q22 3 23 22 q-2 15 -16 16h-7v-38zM304 76l27 -70q2 -3 5 -3v-2h-21v2q4 1 5 2l-8 20h-24l-7 -20l3 -2h4v-2h-18v2q5 1 6 2l25 70zM289 29h22l-11 31zM418 75q22 0 25 -18v-3q0 -21 -26 -26q-4 -1 -9 -1v-21q2 -3 9 -3v-2h-26v2q6 1 7 3v63q-1 3 -7 4v2h27zM408 31q23 2 24 21 q-2 18 -17 19h-7v-40zM548 73v2h23v-2q-6 -1 -7 -4v-63q1 -3 7 -3v-2h-23v2q4 1 5 3v32h-36v-32q2 -3 6 -3v-2h-23v2q5 1 7 3v63q-2 3 -7 4v2h23v-2q-5 -1 -6 -4v-27h36v27q-1 3 -5 4zM630 73v2h23v-2q-5 -1 -6 -3v-64q1 -3 6 -3v-2h-23v2q5 1 6 3v64q-1 2 -6 3zM751 4 q14 1 21 10l2 -3q-9 -11 -25 -11q-30 0 -37 27q-1 6 -1 11q0 29 28 36q6 1 11 2q7 -1 14 -3q5 -1 6 0h2l-5 -16l-1 1q0 8 -4 10q-5 3 -13 3q-24 0 -26 -26q-1 -3 -1 -5q0 -30 23 -35q3 -1 6 -1zM859 44q18 -12 18 -23q-5 -18 -24 -21q-7 0 -15 4q-5 1 -7 -1l-1 1l5 18l2 -1 q1 -14 15 -17q14 1 15 13q-1 11 -21 22q-13 9 -13 18q1 18 21 19q5 0 11 -3q5 0 6 1h2l-5 -15l-1 1q0 11 -13 11q-11 -1 -12 -10q0 -7 13 -15q3 -1 4 -2z" glyph-name="cent" unicode="¢"/>
<glyph d="M544 230q178 -88 335 -35v-13q-82 -44 -222 -39q-111 4 -186 41q-81 40 -150 108q-16 16 -28 31l-87 105q-1 0 -21 -2v-131q1 -19 45 -20v-12h-88q-3 52 -3 62v308q0 12 3 62h95q63 0 86 -61q9 -26 9 -59q0 -67 -43 -103l73 -89q64 -79 116 -115q29 -19 66 -38zM185 453 q72 4 90 48q9 23 9 61q0 86 -42 103q-14 5 -32 5h-25v-217zM528 195l2 3q-101 52 -198 162l-72 90l-15 -10l74 -92q96 -112 209 -153zM32 695h86q3 -52 3 -62v-308q0 -13 -3 -62h-86v12q39 3 43 20v367q-3 19 -43 20v13zM350 576q0 78 -42 112q77 -21 89 -82q2 -10 2 -20 q0 -60 -53 -100q-15 -11 -28 -16q32 42 32 106zM707 257q-133 0 -168 138q-10 42 -11 91q0 167 115 205q30 9 65 9q39 0 91 -19q2 -1 3 -1q27 -11 35 2l2 4l11 -4l-30 -98l-11 4q6 43 -19 63q-28 21 -82 21q-132 -2 -132 -181q0 -154 84 -194q26 -11 57 -12q76 0 124 54 q5 5 9 10l9 -22q-49 -69 -150 -69q-1 -1 -2 -1zM576 287q-104 54 -114 170q-1 11 -1 22q0 115 95 178q3 1 5 3q-52 -63 -52 -175q0 -133 67 -198zM75 34v2h24v-2q-3 -1 -4 -3v-16q0 -3 1 -5q-11 -10 -29 -10q-28 0 -35 26q-2 7 -2 12q0 31 30 37q5 0 9 1q9 -1 16 -4q3 1 4 2 h2v-16l-2 1q-3 12 -20 12q-26 0 -27 -28l-1 -2q0 -32 23 -36q3 -1 6 -1q8 1 15 4v20q-1 5 -10 6zM193 33l19 -25q5 -5 11 -5v-2h-21q1 3 0 4l-18 25q-5 0 -10 -1v-23q2 -3 8 -3v-2h-25v2q5 1 7 3v63q-2 3 -7 4v2h27q23 -2 25 -19q-1 -14 -16 -23zM174 33q22 3 23 22 q-2 15 -16 16h-7v-38zM304 76l27 -70q2 -3 5 -3v-2h-21v2q4 1 5 2l-8 20h-24l-7 -20l3 -2h4v-2h-18v2q5 1 6 2l25 70zM289 29h22l-11 31zM418 75q22 0 25 -18v-3q0 -21 -26 -26q-4 -1 -9 -1v-21q2 -3 9 -3v-2h-26v2q6 1 7 3v63q-1 3 -7 4v2h27zM408 31q23 2 24 21 q-2 18 -17 19h-7v-40zM548 73v2h23v-2q-6 -1 -7 -4v-63q1 -3 7 -3v-2h-23v2q4 1 5 3v32h-36v-32q2 -3 6 -3v-2h-23v2q5 1 7 3v63q-2 3 -7 4v2h23v-2q-5 -1 -6 -4v-27h36v27q-1 3 -5 4zM630 73v2h23v-2q-5 -1 -6 -3v-64q1 -3 6 -3v-2h-23v2q5 1 6 3v64q-1 2 -6 3zM751 4 q14 1 21 10l2 -3q-9 -11 -25 -11q-30 0 -37 27q-1 6 -1 11q0 29 28 36q6 1 11 2q7 -1 14 -3q5 -1 6 0h2l-5 -16l-1 1q0 8 -4 10q-5 3 -13 3q-24 0 -26 -26q-1 -3 -1 -5q0 -30 23 -35q3 -1 6 -1zM859 44q18 -12 18 -23q-5 -18 -24 -21q-7 0 -15 4q-5 1 -7 -1l-1 1l5 18l2 -1 q1 -14 15 -17q14 1 15 13q-1 11 -21 22q-13 9 -13 18q1 18 21 19q5 0 11 -3q5 0 6 1h2l-5 -15l-1 1q0 11 -13 11q-11 -1 -12 -10q0 -7 13 -15q3 -1 4 -2z" glyph-name="sterling" unicode="£"/>
<glyph d="M544 230q178 -88 335 -35v-13q-82 -44 -222 -39q-111 4 -186 41q-81 40 -150 108q-16 16 -28 31l-87 105q-1 0 -21 -2v-131q1 -19 45 -20v-12h-88q-3 52 -3 62v308q0 12 3 62h95q63 0 86 -61q9 -26 9 -59q0 -67 -43 -103l73 -89q64 -79 116 -115q29 -19 66 -38zM185 453 q72 4 90 48q9 23 9 61q0 86 -42 103q-14 5 -32 5h-25v-217zM528 195l2 3q-101 52 -198 162l-72 90l-15 -10l74 -92q96 -112 209 -153zM32 695h86q3 -52 3 -62v-308q0 -13 -3 -62h-86v12q39 3 43 20v367q-3 19 -43 20v13zM350 576q0 78 -42 112q77 -21 89 -82q2 -10 2 -20 q0 -60 -53 -100q-15 -11 -28 -16q32 42 32 106zM576 287q-104 54 -114 170q-1 11 -1 22q0 115 95 178q3 1 5 3q-52 -63 -52 -175q0 -133 67 -198zM707 257q-133 0 -168 138q-10 42 -11 91q0 167 115 205q30 9 65 9q39 0 91 -19q2 -1 3 -1q27 -11 35 2l2 4l11 -4l-30 -98 l-11 4q6 43 -19 63q-28 21 -82 21q-132 -2 -132 -181q0 -154 84 -194q26 -11 57 -12q76 0 124 54q5 5 9 10l9 -22q-49 -69 -150 -69q-1 -1 -2 -1zM75 34v2h24v-2q-3 -1 -4 -3v-16q0 -3 1 -5q-11 -10 -29 -10q-28 0 -35 26q-2 7 -2 12q0 31 30 37q5 0 9 1q9 -1 16 -4q3 1 4 2 h2v-16l-2 1q-3 12 -20 12q-26 0 -27 -28l-1 -2q0 -32 23 -36q3 -1 6 -1q8 1 15 4v20q-1 5 -10 6zM193 33l19 -25q5 -5 11 -5v-2h-21q1 3 0 4l-18 25q-5 0 -10 -1v-23q2 -3 8 -3v-2h-25v2q5 1 7 3v63q-2 3 -7 4v2h27q23 -2 25 -19q-1 -14 -16 -23zM174 33q22 3 23 22 q-2 15 -16 16h-7v-38zM304 76l27 -70q2 -3 5 -3v-2h-21v2q4 1 5 2l-8 20h-24l-7 -20l3 -2h4v-2h-18v2q5 1 6 2l25 70zM289 29h22l-11 31zM418 75q22 0 25 -18v-3q0 -21 -26 -26q-4 -1 -9 -1v-21q2 -3 9 -3v-2h-26v2q6 1 7 3v63q-1 3 -7 4v2h27zM408 31q23 2 24 21 q-2 18 -17 19h-7v-40zM548 73v2h23v-2q-6 -1 -7 -4v-63q1 -3 7 -3v-2h-23v2q4 1 5 3v32h-36v-32q2 -3 6 -3v-2h-23v2q5 1 7 3v63q-2 3 -7 4v2h23v-2q-5 -1 -6 -4v-27h36v27q-1 3 -5 4zM630 73v2h23v-2q-5 -1 -6 -3v-64q1 -3 6 -3v-2h-23v2q5 1 6 3v64q-1 2 -6 3zM751 4 q14 1 21 10l2 -3q-9 -11 -25 -11q-30 0 -37 27q-1 6 -1 11q0 29 28 36q6 1 11 2q7 -1 14 -3q5 -1 6 0h2l-5 -16l-1 1q0 8 -4 10q-5 3 -13 3q-24 0 -26 -26q-1 -3 -1 -5q0 -30 23 -35q3 -1 6 -1zM859 44q18 -12 18 -23q-5 -18 -24 -21q-7 0 -15 4q-5 1 -7 -1l-1 1l5 18l2 -1 q1 -14 15 -17q14 1 15 13q-1 11 -21 22q-13 9 -13 18q1 18 21 19q5 0 11 -3q5 0 6 1h2l-5 -15l-1 1q0 11 -13 11q-11 -1 -12 -10q0 -7 13 -15q3 -1 4 -2z" glyph-name="currency" unicode="¤"/>
<glyph d="M350 576q0 78 -42 112q77 -21 89 -82q2 -10 2 -20q0 -60 -53 -100q-15 -11 -28 -16q32 42 32 106zM544 230q178 -88 335 -35v-13q-82 -44 -222 -39q-111 4 -186 41q-81 40 -150 108q-16 16 -28 31l-87 105q-1 0 -21 -2v-131q1 -19 45 -20v-12h-88q-3 52 -3 62v308 q0 12 3 62h95q63 0 86 -61q9 -26 9 -59q0 -67 -43 -103l73 -89q64 -79 116 -115q29 -19 66 -38zM185 453q72 4 90 48q9 23 9 61q0 86 -42 103q-14 5 -32 5h-25v-217zM528 195l2 3q-101 52 -198 162l-72 90l-15 -10l74 -92q96 -112 209 -153zM32 695h86q3 -52 3 -62v-308 q0 -13 -3 -62h-86v12q39 3 43 20v367q-3 19 -43 20v13zM707 257q-133 0 -168 138q-10 42 -11 91q0 167 115 205q30 9 65 9q39 0 91 -19q2 -1 3 -1q27 -11 35 2l2 4l11 -4l-30 -98l-11 4q6 43 -19 63q-28 21 -82 21q-132 -2 -132 -181q0 -154 84 -194q26 -11 57 -12 q76 0 124 54q5 5 9 10l9 -22q-49 -69 -150 -69q-1 -1 -2 -1zM576 287q-104 54 -114 170q-1 11 -1 22q0 115 95 178q3 1 5 3q-52 -63 -52 -175q0 -133 67 -198zM75 34v2h24v-2q-3 -1 -4 -3v-16q0 -3 1 -5q-11 -10 -29 -10q-28 0 -35 26q-2 7 -2 12q0 31 30 37q5 0 9 1 q9 -1 16 -4q3 1 4 2h2v-16l-2 1q-3 12 -20 12q-26 -2 -28 -30q0 -32 23 -36q3 -1 6 -1q8 1 15 4v20q-1 5 -10 6zM193 33l19 -25q5 -5 11 -5v-2h-21q1 3 0 4l-18 25q-5 0 -10 -1v-23q2 -3 8 -3v-2h-25v2q5 1 7 3v63q-2 3 -7 4v2h27q23 -2 25 -19q-1 -14 -16 -23zM174 33 q22 3 23 22q-2 15 -16 16h-7v-38zM304 76l27 -70q2 -3 5 -3v-2h-21v2q4 1 5 2l-8 20h-24l-7 -20l3 -2h4v-2h-18v2q5 1 6 2l25 70zM289 29h22l-11 31zM418 75q22 0 25 -18v-3q0 -21 -26 -26q-4 -1 -9 -1v-21q2 -3 9 -3v-2h-26v2q6 1 7 3v63q-1 3 -7 4v2h27zM408 31 q23 2 24 21q-2 18 -17 19h-7v-40zM548 73v2h23v-2q-6 -1 -7 -4v-63q1 -3 7 -3v-2h-23v2q4 1 5 3v32h-36v-32q2 -3 6 -3v-2h-23v2q5 1 7 3v63q-2 3 -7 4v2h23v-2q-5 -1 -6 -4v-27h36v27q-1 3 -5 4zM630 73v2h23v-2q-5 -1 -6 -3v-64q1 -3 6 -3v-2h-23v2q5 1 6 3v64q-1 2 -6 3z M751 4q14 1 21 10l2 -3q-9 -11 -25 -11q-30 0 -37 27q-1 6 -1 11q0 29 28 36q6 1 11 2q7 -1 14 -3q5 -1 6 0h2l-5 -16l-1 1q0 8 -4 10q-5 3 -13 3q-24 0 -26 -26q-1 -3 -1 -5q0 -30 23 -35q3 -1 6 -1zM859 44q18 -12 18 -23q-5 -18 -24 -21q-7 0 -15 4q-5 1 -7 -1l-1 1l5 18 l2 -1q1 -14 15 -17q14 1 15 13q-1 11 -21 22q-13 9 -13 18q1 18 21 19q5 0 11 -3q5 0 6 1h2l-5 -15l-1 1q0 11 -13 11q-11 -1 -12 -10q0 -7 13 -15q3 -1 4 -2z" glyph-name="yen" unicode="¥"/>
<glyph d="M32 695h86q3 -52 3 -62v-308q0 -13 -3 -62h-86v12q39 3 43 20v367q-3 19 -43 20v13zM350 576q0 78 -42 112q77 -21 89 -82q2 -10 2 -20q0 -60 -53 -100q-15 -11 -28 -16q32 42 32 106zM544 230q178 -88 335 -35v-13q-82 -44 -222 -39q-111 4 -186 41q-81 40 -150 108 q-16 16 -28 31l-87 105q-1 0 -21 -2v-131q1 -19 45 -20v-12h-88q-3 52 -3 62v308q0 12 3 62h95q63 0 86 -61q9 -26 9 -59q0 -67 -43 -103l73 -89q64 -79 116 -115q29 -19 66 -38zM185 453q72 4 90 48q9 23 9 61q0 86 -42 103q-14 5 -32 5h-25v-217zM528 195l2 3 q-101 52 -198 162l-72 90l-15 -10l74 -92q96 -112 209 -153zM707 257q-133 0 -168 138q-10 42 -11 91q0 167 115 205q30 9 65 9q39 0 91 -19q2 -1 3 -1q27 -11 35 2l2 4l11 -4l-30 -98l-11 4q6 43 -19 63q-28 21 -82 21q-132 -2 -132 -181q0 -154 84 -194q26 -11 57 -12 q76 0 124 54q5 5 9 10l9 -22q-49 -69 -150 -69q-1 -1 -2 -1zM576 287q-104 54 -114 170q-1 11 -1 22q0 115 95 178q3 1 5 3q-52 -63 -52 -175q0 -133 67 -198zM75 34v2h24v-2q-3 -1 -4 -3v-16q0 -3 1 -5q-11 -10 -29 -10q-28 0 -35 26q-2 7 -2 12q0 31 30 37q5 0 9 1 q9 -1 16 -4q3 1 4 2h2v-16l-2 1q-3 12 -20 12q-26 -2 -28 -30q0 -32 23 -36q3 -1 6 -1q8 1 15 4v20q-1 5 -10 6zM193 33l19 -25q5 -5 11 -5v-2h-21q1 3 0 4l-18 25q-5 0 -10 -1v-23q2 -3 8 -3v-2h-25v2q5 1 7 3v63q-2 3 -7 4v2h27q23 -2 25 -19q-1 -14 -16 -23zM174 33 q22 3 23 22q-2 15 -16 16h-7v-38zM304 76l27 -70q2 -3 5 -3v-2h-21v2q4 1 5 2l-8 20h-24l-7 -20l3 -2h4v-2h-18v2q5 1 6 2l25 70zM289 29h22l-11 31zM418 75q22 0 25 -18v-3q0 -21 -26 -26q-4 -1 -9 -1v-21q2 -3 9 -3v-2h-26v2q6 1 7 3v63q-1 3 -7 4v2h27zM408 31 q23 2 24 21q-2 18 -17 19h-7v-40zM548 73v2h23v-2q-6 -1 -7 -4v-63q1 -3 7 -3v-2h-23v2q4 1 5 3v32h-36v-32q2 -3 6 -3v-2h-23v2q5 1 7 3v63q-2 3 -7 4v2h23v-2q-5 -1 -6 -4v-27h36v27q-1 3 -5 4zM630 73v2h23v-2q-5 -1 -6 -3v-64q1 -3 6 -3v-2h-23v2q5 1 6 3v64q-1 2 -6 3z M751 4q14 1 21 10l2 -3q-9 -11 -25 -11q-30 0 -37 27q-1 6 -1 11q0 29 28 36q6 1 11 2q7 -1 14 -3q5 -1 6 0h2l-5 -16l-1 1q0 8 -4 10q-5 3 -13 3q-24 0 -26 -26q-1 -3 -1 -5q0 -30 23 -35q3 -1 6 -1zM859 44q18 -12 18 -23q-5 -18 -24 -21q-7 0 -15 4q-5 1 -7 -1l-1 1l5 18 l2 -1q1 -14 15 -17q14 1 15 13q-1 11 -21 22q-13 9 -13 18q1 18 21 19q5 0 11 -3q5 0 6 1h2l-5 -15l-1 1q0 11 -13 11q-11 -1 -12 -10q0 -7 13 -15q3 -1 4 -2z" glyph-name="section" unicode="§"/>
<glyph d="M32 695h86q3 -52 3 -62v-308q0 -13 -3 -62h-86v12q39 3 43 20v367q-3 19 -43 20v13zM350 576q0 78 -42 112q77 -21 89 -82q2 -10 2 -20q0 -60 -53 -100q-15 -11 -28 -16q32 42 32 106zM544 230q178 -88 335 -35v-13q-82 -44 -222 -39q-111 4 -186 41q-81 40 -150 108 q-16 16 -28 31l-87 105q-1 0 -21 -2v-131q1 -19 45 -20v-12h-88q-3 52 -3 62v308q0 12 3 62h95q63 0 86 -61q9 -26 9 -59q0 -67 -43 -103l73 -89q64 -79 116 -115q29 -19 66 -38zM185 453q72 4 90 48q9 23 9 61q0 86 -42 103q-14 5 -32 5h-25v-217zM528 195l2 3 q-101 52 -198 162l-72 90l-15 -10l74 -92q96 -112 209 -153zM707 257q-133 0 -168 138q-10 42 -11 91q0 167 115 205q30 9 65 9q39 0 91 -19q2 -1 3 -1q27 -11 35 2l2 4l11 -4l-30 -98l-11 4q6 43 -19 63q-28 21 -82 21q-132 -2 -132 -181q0 -154 84 -194q26 -11 57 -12 q76 0 124 54q5 5 9 10l9 -22q-49 -69 -150 -69q-1 -1 -2 -1zM576 287q-104 54 -114 170q-1 11 -1 22q0 115 95 178q3 1 5 3q-52 -63 -52 -175q0 -133 67 -198zM75 34v2h24v-2q-3 -1 -4 -3v-16q0 -3 1 -5q-11 -10 -29 -10q-28 0 -35 26q-2 7 -2 12q0 31 30 37q5 0 9 1 q9 -1 16 -4q3 1 4 2h2v-16l-2 1q-3 12 -20 12q-26 -2 -28 -30q0 -32 23 -36q3 -1 6 -1q8 1 15 4v20q-1 5 -10 6zM193 33l19 -25q5 -5 11 -5v-2h-21q1 3 0 4l-18 25q-5 0 -10 -1v-23q2 -3 8 -3v-2h-25v2q5 1 7 3v63q-2 3 -7 4v2h27q23 -2 25 -19q-1 -14 -16 -23zM174 33 q22 3 23 22q-2 15 -16 16h-7v-38zM304 76l27 -70q2 -3 5 -3v-2h-21v2q4 1 5 2l-8 20h-24l-7 -20l3 -2h4v-2h-18v2q5 1 6 2l25 70zM289 29h22l-11 31zM418 75q22 0 25 -18v-3q0 -21 -26 -26q-4 -1 -9 -1v-21q2 -3 9 -3v-2h-26v2q6 1 7 3v63q-1 3 -7 4v2h27zM408 31 q23 2 24 21q-2 18 -17 19h-7v-40zM548 73v2h23v-2q-6 -1 -7 -4v-63q1 -3 7 -3v-2h-23v2q4 1 5 3v32h-36v-32q2 -3 6 -3v-2h-23v2q5 1 7 3v63q-2 3 -7 4v2h23v-2q-5 -1 -6 -4v-27h36v27q-1 3 -5 4zM630 73v2h23v-2q-5 -1 -6 -3v-64q1 -3 6 -3v-2h-23v2q5 1 6 3v64q-1 2 -6 3z M751 4q14 1 21 10l2 -3q-9 -11 -25 -11q-30 0 -37 27q-1 6 -1 11q0 29 28 36q6 1 11 2q7 -1 14 -3q5 -1 6 0h2l-5 -16l-1 1q0 8 -4 10q-5 3 -13 3q-24 0 -26 -26q-1 -3 -1 -5q0 -30 23 -35q3 -1 6 -1zM859 44q18 -12 18 -23q-5 -18 -24 -21q-7 0 -15 4q-5 1 -7 -1l-1 1l5 18 l2 -1q1 -14 15 -17q14 1 15 13q-1 11 -21 22q-13 9 -13 18q1 18 21 19q5 0 11 -3q5 0 6 1h2l-5 -15l-1 1q0 11 -13 11q-11 -1 -12 -10q0 -7 13 -15q3 -1 4 -2z" glyph-name="copyright" unicode="©"/>
<glyph d="M32 695h86q3 -52 3 -62v-308q0 -13 -3 -62h-86v12q39 3 43 20v367q-3 19 -43 20v13zM544 230q178 -88 335 -35v-13q-82 -44 -222 -39q-111 4 -186 41q-81 40 -150 108q-16 16 -28 31l-87 105q-1 0 -21 -2v-131q1 -19 45 -20v-12h-88q-3 52 -3 62v308q0 12 3 62h95 q63 0 86 -61q9 -26 9 -59q0 -67 -43 -103l73 -89q64 -79 116 -115q29 -19 66 -38zM185 453q72 4 90 48q9 23 9 61q0 86 -42 103q-14 5 -32 5h-25v-217zM528 195l2 3q-101 52 -198 162l-72 90l-15 -10l74 -92q96 -112 209 -153zM350 576q0 78 -42 112q77 -21 89 -82 q2 -10 2 -20q0 -60 -53 -100q-15 -11 -28 -16q32 42 32 106zM707 257q-133 0 -168 138q-10 42 -11 91q0 167 115 205q30 9 65 9q39 0 91 -19q2 -1 3 -1q27 -11 35 2l2 4l11 -4l-30 -98l-11 4q6 43 -19 63q-28 21 -82 21q-132 -2 -132 -181q0 -154 84 -194q26 -11 57 -12 q76 0 124 54q5 5 9 10l9 -22q-49 -69 -150 -69q-1 -1 -2 -1zM576 287q-104 54 -114 170q-1 11 -1 22q0 115 95 178q3 1 5 3q-52 -63 -52 -175q0 -133 67 -198zM75 34v2h24v-2q-3 -1 -4 -3v-16q0 -3 1 -5q-11 -10 -29 -10q-28 0 -35 26q-2 7 -2 12q0 31 30 37q5 0 9 1 q9 -1 16 -4q3 1 4 2h2v-16l-2 1q-3 12 -20 12q-26 -2 -28 -30q0 -32 23 -36q3 -1 6 -1q8 1 15 4v20q-1 5 -10 6zM193 33l19 -25q5 -5 11 -5v-2h-21q1 3 0 4l-18 25q-5 0 -10 -1v-23q2 -3 8 -3v-2h-25v2q5 1 7 3v63q-2 3 -7 4v2h27q23 -2 25 -19q-1 -14 -16 -23zM174 33 q22 3 23 22q-2 15 -16 16h-7v-38zM304 76l27 -70q2 -3 5 -3v-2h-21v2q4 1 5 2l-8 20h-24l-7 -20l3 -2h4v-2h-18v2q5 1 6 2l25 70zM289 29h22l-11 31zM418 75q22 0 25 -18v-3q0 -21 -26 -26q-4 -1 -9 -1v-21q2 -3 9 -3v-2h-26v2q6 1 7 3v63q-1 3 -7 4v2h27zM408 31 q23 2 24 21q-2 18 -17 19h-7v-40zM548 73v2h23v-2q-6 -1 -7 -4v-63q1 -3 7 -3v-2h-23v2q4 1 5 3v32h-36v-32q2 -3 6 -3v-2h-23v2q5 1 7 3v63q-2 3 -7 4v2h23v-2q-5 -1 -6 -4v-27h36v27q-1 3 -5 4zM630 73v2h23v-2q-5 -1 -6 -3v-64q1 -3 6 -3v-2h-23v2q5 1 6 3v64q-1 2 -6 3z M751 4q14 1 21 10l2 -3q-9 -11 -25 -11q-30 0 -37 27q-1 6 -1 11q0 29 28 36q6 1 11 2q7 -1 14 -3q5 -1 6 0h2l-5 -16l-1 1q0 8 -4 10q-5 3 -13 3q-24 0 -26 -26q-1 -3 -1 -5q0 -30 23 -35q3 -1 6 -1zM859 44q18 -12 18 -23q-5 -18 -24 -21q-7 0 -15 4q-5 1 -7 -1l-1 1l5 18 l2 -1q1 -14 15 -17q14 1 15 13q-1 11 -21 22q-13 9 -13 18q1 18 21 19q5 0 11 -3q5 0 6 1h2l-5 -15l-1 1q0 11 -13 11q-11 -1 -12 -10q0 -7 13 -15q3 -1 4 -2z" glyph-name="registered" unicode="®"/>
<glyph d="M32 695h86q3 -52 3 -62v-308q0 -13 -3 -62h-86v12q39 3 43 20v367q-3 19 -43 20v13zM350 576q0 78 -42 112q77 -21 89 -82q2 -10 2 -20q0 -60 -53 -100q-15 -11 -28 -16q32 42 32 106zM544 230q178 -88 335 -35v-13q-82 -44 -222 -39q-111 4 -186 41q-81 40 -150 108 q-16 16 -28 31l-87 105q-1 0 -21 -2v-131q1 -19 45 -20v-12h-88q-3 52 -3 62v308q0 12 3 62h95q63 0 86 -61q9 -26 9 -59q0 -67 -43 -103l73 -89q64 -79 116 -115q29 -19 66 -38zM185 453q72 4 90 48q9 23 9 61q0 86 -42 103q-14 5 -32 5h-25v-217zM528 195l2 3 q-101 52 -198 162l-72 90l-15 -10l74 -92q96 -112 209 -153zM707 257q-133 0 -168 138q-10 42 -11 91q0 167 115 205q30 9 65 9q39 0 91 -19q2 -1 3 -1q27 -11 35 2l2 4l11 -4l-30 -98l-11 4q6 43 -19 63q-28 21 -82 21q-132 -2 -132 -181q0 -154 84 -194q26 -11 57 -12 q76 0 124 54q5 5 9 10l9 -22q-49 -69 -150 -69q-1 -1 -2 -1zM576 287q-104 54 -114 170q-1 11 -1 22q0 115 95 178q3 1 5 3q-52 -63 -52 -175q0 -133 67 -198zM75 34v2h24v-2q-3 -1 -4 -3v-16q0 -3 1 -5q-11 -10 -29 -10q-28 0 -35 26q-2 7 -2 12q0 31 30 37q5 0 9 1 q9 -1 16 -4q3 1 4 2h2v-16l-2 1q-3 12 -20 12q-26 -2 -28 -30q0 -32 23 -36q3 -1 6 -1q8 1 15 4v20q-1 5 -10 6zM193 33l19 -25q5 -5 11 -5v-2h-21q1 3 0 4l-18 25q-5 0 -10 -1v-23q2 -3 8 -3v-2h-25v2q5 1 7 3v63q-2 3 -7 4v2h27q23 -2 25 -19q-1 -14 -16 -23zM174 33 q22 3 23 22q-2 15 -16 16h-7v-38zM304 76l27 -70q2 -3 5 -3v-2h-21v2q4 1 5 2l-8 20h-24l-7 -20l3 -2h4v-2h-18v2q5 1 6 2l25 70zM289 29h22l-11 31zM418 75q22 0 25 -18v-3q0 -21 -26 -26q-4 -1 -9 -1v-21q2 -3 9 -3v-2h-26v2q6 1 7 3v63q-1 3 -7 4v2h27zM408 31 q23 2 24 21q-2 18 -17 19h-7v-40zM548 73v2h23v-2q-6 -1 -7 -4v-63q1 -3 7 -3v-2h-23v2q4 1 5 3v32h-36v-32q2 -3 6 -3v-2h-23v2q5 1 7 3v63q-2 3 -7 4v2h23v-2q-5 -1 -6 -4v-27h36v27q-1 3 -5 4zM630 73v2h23v-2q-5 -1 -6 -3v-64q1 -3 6 -3v-2h-23v2q5 1 6 3v64q-1 2 -6 3z M751 4q14 1 21 10l2 -3q-9 -11 -25 -11q-30 0 -37 27q-1 6 -1 11q0 29 28 36q6 1 11 2q7 -1 14 -3q5 -1 6 0h2l-5 -16l-1 1q0 8 -4 10q-5 3 -13 3q-24 0 -26 -26q-1 -3 -1 -5q0 -30 23 -35q3 -1 6 -1zM859 44q18 -12 18 -23q-5 -18 -24 -21q-7 0 -15 4q-5 1 -7 -1l-1 1l5 18 l2 -1q1 -14 15 -17q14 1 15 13q-1 11 -21 22q-13 9 -13 18q1 18 21 19q5 0 11 -3q5 0 6 1h2l-5 -15l-1 1q0 11 -13 11q-11 -1 -12 -10q0 -7 13 -15q3 -1 4 -2z" glyph-name="mu" unicode="µ"/>
<glyph d="M350 576q0 78 -42 112q77 -21 89 -82q2 -10 2 -20q0 -60 -53 -100q-15 -11 -28 -16q32 42 32 106zM544 230q178 -88 335 -35v-13q-82 -44 -222 -39q-111 4 -186 41q-81 40 -150 108q-16 16 -28 31l-87 105q-1 0 -21 -2v-131q1 -19 45 -20v-12h-88q-3 52 -3 62v308 q0 12 3 62h95q63 0 86 -61q9 -26 9 -59q0 -67 -43 -103l73 -89q64 -79 116 -115q29 -19 66 -38zM185 453q72 4 90 48q9 23 9 61q0 86 -42 103q-14 5 -32 5h-25v-217zM528 195l2 3q-101 52 -198 162l-72 90l-15 -10l74 -92q96 -112 209 -153zM32 695h86q3 -52 3 -62v-308 q0 -13 -3 -62h-86v12q39 3 43 20v367q-3 19 -43 20v13zM707 257q-133 0 -168 138q-10 42 -11 91q0 167 115 205q30 9 65 9q39 0 91 -19q2 -1 3 -1q27 -11 35 2l2 4l11 -4l-30 -98l-11 4q6 43 -19 63q-28 21 -82 21q-132 -2 -132 -181q0 -154 84 -194q26 -11 57 -12 q76 0 124 54q5 5 9 10l9 -22q-49 -69 -150 -69q-1 -1 -2 -1zM576 287q-104 54 -114 170q-1 11 -1 22q0 115 95 178q3 1 5 3q-52 -63 -52 -175q0 -133 67 -198zM75 34v2h24v-2q-3 -1 -4 -3v-16q0 -3 1 -5q-11 -10 -29 -10q-28 0 -35 26q-2 7 -2 12q0 31 30 37q5 0 9 1 q9 -1 16 -4q3 1 4 2h2v-16l-2 1q-3 12 -20 12q-26 -2 -28 -30q0 -32 23 -36q3 -1 6 -1q8 1 15 4v20q-1 5 -10 6zM193 33l19 -25q5 -5 11 -5v-2h-21q1 3 0 4l-18 25q-5 0 -10 -1v-23q2 -3 8 -3v-2h-25v2q5 1 7 3v63q-2 3 -7 4v2h27q23 -2 25 -19q-1 -14 -16 -23zM174 33 q22 3 23 22q-2 15 -16 16h-7v-38zM304 76l27 -70q2 -3 5 -3v-2h-21v2q4 1 5 2l-8 20h-24l-7 -20l3 -2h4v-2h-18v2q5 1 6 2l25 70zM289 29h22l-11 31zM418 75q22 0 25 -18v-3q0 -21 -26 -26q-4 -1 -9 -1v-21q2 -3 9 -3v-2h-26v2q6 1 7 3v63q-1 3 -7 4v2h27zM408 31 q23 2 24 21q-2 18 -17 19h-7v-40zM548 73v2h23v-2q-6 -1 -7 -4v-63q1 -3 7 -3v-2h-23v2q4 1 5 3v32h-36v-32q2 -3 6 -3v-2h-23v2q5 1 7 3v63q-2 3 -7 4v2h23v-2q-5 -1 -6 -4v-27h36v27q-1 3 -5 4zM630 73v2h23v-2q-5 -1 -6 -3v-64q1 -3 6 -3v-2h-23v2q5 1 6 3v64q-1 2 -6 3z M751 4q14 1 21 10l2 -3q-9 -11 -25 -11q-30 0 -37 27q-1 6 -1 11q0 29 28 36q6 1 11 2q7 -1 14 -3q5 -1 6 0h2l-5 -16l-1 1q0 8 -4 10q-5 3 -13 3q-24 0 -26 -26q-1 -3 -1 -5q0 -30 23 -35q3 -1 6 -1zM859 44q18 -12 18 -23q-5 -18 -24 -21q-7 0 -15 4q-5 1 -7 -1l-1 1l5 18 l2 -1q1 -14 15 -17q14 1 15 13q-1 11 -21 22q-13 9 -13 18q1 18 21 19q5 0 11 -3q5 0 6 1h2l-5 -15l-1 1q0 11 -13 11q-11 -1 -12 -10q0 -7 13 -15q3 -1 4 -2z" glyph-name="paragraph" unicode="¶"/>
<glyph d="M350 576q0 78 -42 112q77 -21 89 -82q2 -10 2 -20q0 -60 -53 -100q-15 -11 -28 -16q32 42 32 106zM32 695h86q3 -52 3 -62v-308q0 -13 -3 -62h-86v12q39 3 43 20v367q-3 19 -43 20v13zM544 230q178 -88 335 -35v-13q-82 -44 -222 -39q-111 4 -186 41q-81 40 -150 108 q-16 16 -28 31l-87 105q-1 0 -21 -2v-131q1 -19 45 -20v-12h-88q-3 52 -3 62v308q0 12 3 62h95q63 0 86 -61q9 -26 9 -59q0 -67 -43 -103l73 -89q64 -79 116 -115q29 -19 66 -38zM185 453q72 4 90 48q9 23 9 61q0 86 -42 103q-14 5 -32 5h-25v-217zM528 195l2 3 q-101 52 -198 162l-72 90l-15 -10l74 -92q96 -112 209 -153zM707 257q-133 0 -168 138q-10 42 -11 91q0 167 115 205q30 9 65 9q39 0 91 -19q2 -1 3 -1q27 -11 35 2l2 4l11 -4l-30 -98l-11 4q6 43 -19 63q-28 21 -82 21q-132 -2 -132 -181q0 -154 84 -194q26 -11 57 -12 q76 0 124 54q5 5 9 10l9 -22q-49 -69 -150 -69q-1 -1 -2 -1zM576 287q-104 54 -114 170q-1 11 -1 22q0 115 95 178q3 1 5 3q-52 -63 -52 -175q0 -133 67 -198zM75 34v2h24v-2q-3 -1 -4 -3v-16q0 -3 1 -5q-11 -10 -29 -10q-28 0 -35 26q-2 7 -2 12q0 31 30 37q5 0 9 1 q9 -1 16 -4q3 1 4 2h2v-16l-2 1q-3 12 -20 12q-26 -2 -28 -30q0 -32 23 -36q3 -1 6 -1q8 1 15 4v20q-1 5 -10 6zM193 33l19 -25q5 -5 11 -5v-2h-21q1 3 0 4l-18 25q-5 0 -10 -1v-23q2 -3 8 -3v-2h-25v2q5 1 7 3v63q-2 3 -7 4v2h27q23 -2 25 -19q-1 -14 -16 -23zM174 33 q22 3 23 22q-2 15 -16 16h-7v-38zM304 76l27 -70q2 -3 5 -3v-2h-21v2q4 1 5 2l-8 20h-24l-7 -20l3 -2h4v-2h-18v2q5 1 6 2l25 70zM289 29h22l-11 31zM418 75q22 0 25 -18v-3q0 -21 -26 -26q-4 -1 -9 -1v-21q2 -3 9 -3v-2h-26v2q6 1 7 3v63q-1 3 -7 4v2h27zM408 31 q23 2 24 21q-2 18 -17 19h-7v-40zM548 73v2h23v-2q-6 -1 -7 -4v-63q1 -3 7 -3v-2h-23v2q4 1 5 3v32h-36v-32q2 -3 6 -3v-2h-23v2q5 1 7 3v63q-2 3 -7 4v2h23v-2q-5 -1 -6 -4v-27h36v27q-1 3 -5 4zM630 73v2h23v-2q-5 -1 -6 -3v-64q1 -3 6 -3v-2h-23v2q5 1 6 3v64q-1 2 -6 3z M751 4q14 1 21 10l2 -3q-9 -11 -25 -11q-30 0 -37 27q-1 6 -1 11q0 29 28 36q6 1 11 2q7 -1 14 -3q5 -1 6 0h2l-5 -16l-1 1q0 8 -4 10q-5 3 -13 3q-24 0 -26 -26q-1 -3 -1 -5q0 -30 23 -35q3 -1 6 -1zM859 44q18 -12 18 -23q-5 -18 -24 -21q-7 0 -15 4q-5 1 -7 -1l-1 1l5 18 l2 -1q1 -14 15 -17q14 1 15 13q-1 11 -21 22q-13 9 -13 18q1 18 21 19q5 0 11 -3q5 0 6 1h2l-5 -15l-1 1q0 11 -13 11q-11 -1 -12 -10q0 -7 13 -15q3 -1 4 -2z" glyph-name="questiondown" unicode="¿"/>
<glyph d="M350 576q0 78 -42 112q77 -21 89 -82q2 -10 2 -20q0 -60 -53 -100q-15 -11 -28 -16q32 42 32 106zM32 695h86q3 -52 3 -62v-308q0 -13 -3 -62h-86v12q39 3 43 20v367q-3 19 -43 20v13zM544 230q178 -88 335 -35v-13q-82 -44 -222 -39q-111 4 -186 41q-81 40 -150 108 q-16 16 -28 31l-87 105q-1 0 -21 -2v-131q1 -19 45 -20v-12h-88q-3 52 -3 62v308q0 12 3 62h95q63 0 86 -61q9 -26 9 -59q0 -67 -43 -103l73 -89q64 -79 116 -115q29 -19 66 -38zM185 453q72 4 90 48q9 23 9 61q0 86 -42 103q-14 5 -32 5h-25v-217zM528 195l2 3 q-101 52 -198 162l-72 90l-15 -10l74 -92q96 -112 209 -153zM707 257q-133 0 -168 138q-10 42 -11 91q0 167 115 205q30 9 65 9q39 0 91 -19q2 -1 3 -1q27 -11 35 2l2 4l11 -4l-30 -98l-11 4q6 43 -19 63q-28 21 -82 21q-132 -2 -132 -181q0 -154 84 -194q26 -11 57 -12 q76 0 124 54q5 5 9 10l9 -22q-49 -69 -150 -69q-1 -1 -2 -1zM576 287q-104 54 -114 170q-1 11 -1 22q0 115 95 178q3 1 5 3q-52 -63 -52 -175q0 -133 67 -198zM75 34v2h24v-2q-3 -1 -4 -3v-16q0 -3 1 -5q-11 -10 -29 -10q-28 0 -35 26q-2 7 -2 12q0 31 30 37q5 0 9 1 q9 -1 16 -4q3 1 4 2h2v-16l-2 1q-3 12 -20 12q-26 -2 -28 -30q0 -32 23 -36q3 -1 6 -1q8 1 15 4v20q-1 5 -10 6zM193 33l19 -25q5 -5 11 -5v-2h-21q1 3 0 4l-18 25q-5 0 -10 -1v-23q2 -3 8 -3v-2h-25v2q5 1 7 3v63q-2 3 -7 4v2h27q23 -2 25 -19q-1 -14 -16 -23zM174 33 q22 3 23 22q-2 15 -16 16h-7v-38zM304 76l27 -70q2 -3 5 -3v-2h-21v2q4 1 5 2l-8 20h-24l-7 -20l3 -2h4v-2h-18v2q5 1 6 2l25 70zM289 29h22l-11 31zM418 75q22 0 25 -18v-3q0 -21 -26 -26q-4 -1 -9 -1v-21q2 -3 9 -3v-2h-26v2q6 1 7 3v63q-1 3 -7 4v2h27zM408 31 q23 2 24 21q-2 18 -17 19h-7v-40zM548 73v2h23v-2q-6 -1 -7 -4v-63q1 -3 7 -3v-2h-23v2q4 1 5 3v32h-36v-32q2 -3 6 -3v-2h-23v2q5 1 7 3v63q-2 3 -7 4v2h23v-2q-5 -1 -6 -4v-27h36v27q-1 3 -5 4zM630 73v2h23v-2q-5 -1 -6 -3v-64q1 -3 6 -3v-2h-23v2q5 1 6 3v64q-1 2 -6 3z M751 4q14 1 21 10l2 -3q-9 -11 -25 -11q-30 0 -37 27q-1 6 -1 11q0 29 28 36q6 1 11 2q7 -1 14 -3q5 -1 6 0h2l-5 -16l-1 1q0 8 -4 10q-5 3 -13 3q-24 0 -26 -26q-1 -3 -1 -5q0 -30 23 -35q3 -1 6 -1zM859 44q18 -12 18 -23q-5 -18 -24 -21q-7 0 -15 4q-5 1 -7 -1l-1 1l5 18 l2 -1q1 -14 15 -17q14 1 15 13q-1 11 -21 22q-13 9 -13 18q1 18 21 19q5 0 11 -3q5 0 6 1h2l-5 -15l-1 1q0 11 -13 11q-11 -1 -12 -10q0 -7 13 -15q3 -1 4 -2z" glyph-name="Agrave" unicode="À"/>
<glyph d="M350 576q0 78 -42 112q77 -21 89 -82q2 -10 2 -20q0 -60 -53 -100q-15 -11 -28 -16q32 42 32 106zM32 695h86q3 -52 3 -62v-308q0 -13 -3 -62h-86v12q39 3 43 20v367q-3 19 -43 20v13zM544 230q178 -88 335 -35v-13q-82 -44 -222 -39q-111 4 -186 41q-81 40 -150 108 q-16 16 -28 31l-87 105q-1 0 -21 -2v-131q1 -19 45 -20v-12h-88q-3 52 -3 62v308q0 12 3 62h95q63 0 86 -61q9 -26 9 -59q0 -67 -43 -103l73 -89q64 -79 116 -115q29 -19 66 -38zM185 453q72 4 90 48q9 23 9 61q0 86 -42 103q-14 5 -32 5h-25v-217zM528 195l2 3 q-101 52 -198 162l-72 90l-15 -10l74 -92q96 -112 209 -153zM576 287q-104 54 -114 170q-1 11 -1 22q0 115 95 178q3 1 5 3q-52 -63 -52 -175q0 -133 67 -198zM707 257q-133 0 -168 138q-10 42 -11 91q0 167 115 205q30 9 65 9q39 0 91 -19q2 -1 3 -1q27 -11 35 2l2 4l11 -4 l-30 -98l-11 4q6 43 -19 63q-28 21 -82 21q-132 -2 -132 -181q0 -154 84 -194q26 -11 57 -12q76 0 124 54q5 5 9 10l9 -22q-51 -69 -152 -70zM75 34v2h24v-2q-3 -1 -4 -3v-16q0 -3 1 -5q-11 -10 -29 -10q-28 0 -35 26q-2 7 -2 12q0 31 30 37q5 0 9 1q9 -1 16 -4q3 1 4 2h2 v-16l-2 1q-3 12 -20 12q-26 0 -27 -28l-1 -2q0 -32 23 -36q3 -1 6 -1q8 1 15 4v20q-1 5 -10 6zM193 33l19 -25q5 -5 11 -5v-2h-21q1 3 0 4l-18 25q-5 0 -10 -1v-23q2 -3 8 -3v-2h-25v2q5 1 7 3v63q-2 3 -7 4v2h27q23 -2 25 -19q-1 -14 -16 -23zM174 33q22 3 23 22 q-2 15 -16 16h-7v-38zM304 76l27 -70q2 -3 5 -3v-2h-21v2q4 1 5 2l-8 20h-24l-7 -20l3 -2h4v-2h-18v2q5 1 6 2l25 70zM289 29h22l-11 31zM418 75q22 0 25 -18v-3q0 -21 -26 -26q-4 -1 -9 -1v-21q2 -3 9 -3v-2h-26v2q6 1 7 3v63q-1 3 -7 4v2h27zM408 31q23 2 24 21 q-2 18 -17 19h-7v-40zM548 73v2h23v-2q-6 -1 -7 -4v-63q1 -3 7 -3v-2h-23v2q4 1 5 3v32h-36v-32q2 -3 6 -3v-2h-23v2q5 1 7 3v63q-2 3 -7 4v2h23v-2q-5 -1 -6 -4v-27h36v27q-1 3 -5 4zM630 73v2h23v-2q-5 -1 -6 -3v-64q1 -3 6 -3v-2h-23v2q5 1 6 3v64q-1 2 -6 3zM751 4 q14 1 21 10l2 -3q-9 -11 -25 -11q-30 0 -37 27q-1 6 -1 11q0 29 28 36q6 1 11 2q7 -1 14 -3q5 -1 6 0h2l-5 -16l-1 1q0 8 -4 10q-5 3 -13 3q-24 0 -26 -26q-1 -3 -1 -5q0 -30 23 -35q3 -1 6 -1zM859 44q18 -12 18 -23q-5 -18 -24 -21q-7 0 -15 4q-5 1 -7 -1l-1 1l5 18l2 -1 q1 -14 15 -17q14 1 15 13q-1 11 -21 22q-13 9 -13 18q1 18 21 19q5 0 11 -3q5 0 6 1h2l-5 -15l-1 1q0 10 -13 11q-11 -1 -12 -10q0 -7 13 -15q3 -1 4 -2z" glyph-name="Aacute" unicode="Á"/>
<glyph d="M32 695h86q3 -52 3 -62v-308q0 -13 -3 -62h-86v12q39 3 43 20v367q-3 19 -43 20v13zM544 230q178 -88 335 -35v-13q-82 -44 -222 -39q-111 4 -186 41q-81 40 -150 108q-16 16 -28 31l-87 105q-1 0 -21 -2v-131q1 -19 45 -20v-12h-88q-3 52 -3 62v308q0 12 3 62h95 q63 0 86 -61q9 -26 9 -59q0 -67 -43 -103l73 -89q64 -79 116 -115q29 -19 66 -38zM185 453q72 4 90 48q9 23 9 61q0 86 -42 103q-14 5 -32 5h-25v-217zM528 195l2 3q-101 52 -198 162l-72 90l-15 -10l74 -92q96 -112 209 -153zM350 576q0 78 -42 112q77 -21 89 -82 q2 -10 2 -20q0 -60 -53 -100q-15 -11 -28 -16q32 42 32 106zM707 257q-133 0 -168 138q-10 42 -11 91q0 167 115 205q30 9 65 9q39 0 91 -19q2 -1 3 -1q27 -11 35 2l2 4l11 -4l-30 -98l-11 4q6 43 -19 63q-28 21 -82 21q-132 -2 -132 -181q0 -154 84 -194q26 -11 57 -12 q76 0 124 54q5 5 9 10l9 -22q-49 -69 -150 -69q-1 -1 -2 -1zM576 287q-104 54 -114 170q-1 11 -1 22q0 115 95 178q3 1 5 3q-52 -63 -52 -175q0 -133 67 -198zM75 34v2h24v-2q-3 -1 -4 -3v-16q0 -3 1 -5q-11 -10 -29 -10q-28 0 -35 26q-2 7 -2 12q0 31 30 37q5 0 9 1 q9 -1 16 -4q3 1 4 2h2v-16l-2 1q-3 12 -20 12q-26 -2 -28 -30q0 -32 23 -36q3 -1 6 -1q8 1 15 4v20q-1 5 -10 6zM193 33l19 -25q5 -5 11 -5v-2h-21q1 3 0 4l-18 25q-5 0 -10 -1v-23q2 -3 8 -3v-2h-25v2q5 1 7 3v63q-2 3 -7 4v2h27q23 -2 25 -19q-1 -14 -16 -23zM174 33 q22 3 23 22q-2 15 -16 16h-7v-38zM304 76l27 -70q2 -3 5 -3v-2h-21v2q4 1 5 2l-8 20h-24l-7 -20l3 -2h4v-2h-18v2q5 1 6 2l25 70zM289 29h22l-11 31zM418 75q22 0 25 -18v-3q0 -21 -26 -26q-4 -1 -9 -1v-21q2 -3 9 -3v-2h-26v2q6 1 7 3v63q-1 3 -7 4v2h27zM408 31 q23 2 24 21q-2 18 -17 19h-7v-40zM548 73v2h23v-2q-6 -1 -7 -4v-63q1 -3 7 -3v-2h-23v2q4 1 5 3v32h-36v-32q2 -3 6 -3v-2h-23v2q5 1 7 3v63q-2 3 -7 4v2h23v-2q-5 -1 -6 -4v-27h36v27q-1 3 -5 4zM630 73v2h23v-2q-5 -1 -6 -3v-64q1 -3 6 -3v-2h-23v2q5 1 6 3v64q-1 2 -6 3z M751 4q14 1 21 10l2 -3q-9 -11 -25 -11q-30 0 -37 27q-1 6 -1 11q0 29 28 36q6 1 11 2q7 -1 14 -3q5 -1 6 0h2l-5 -16l-1 1q0 8 -4 10q-5 3 -13 3q-24 0 -26 -26q-1 -3 -1 -5q0 -30 23 -35q3 -1 6 -1zM859 44q18 -12 18 -23q-5 -18 -24 -21q-7 0 -15 4q-5 1 -7 -1l-1 1l5 18 l2 -1q1 -14 15 -17q14 1 15 13q-1 11 -21 22q-13 9 -13 18q1 18 21 19q5 0 11 -3q5 0 6 1h2l-5 -15l-1 1q0 11 -13 11q-11 -1 -12 -10q0 -7 13 -15q3 -1 4 -2z" glyph-name="Acircumflex" unicode="Â"/>
<glyph d="M350 576q0 78 -42 112q77 -21 89 -82q2 -10 2 -20q0 -60 -53 -100q-15 -11 -28 -16q32 42 32 106zM544 230q178 -88 335 -35v-13q-82 -44 -222 -39q-111 4 -186 41q-81 40 -150 108q-16 16 -28 31l-87 105q-1 0 -21 -2v-131q1 -19 45 -20v-12h-88q-3 52 -3 62v308 q0 12 3 62h95q63 0 86 -61q9 -26 9 -59q0 -67 -43 -103l73 -89q64 -79 116 -115q29 -19 66 -38zM185 453q72 4 90 48q9 23 9 61q0 86 -42 103q-14 5 -32 5h-25v-217zM528 195l2 3q-101 52 -198 162l-72 90l-15 -10l74 -92q96 -112 209 -153zM32 695h86q3 -52 3 -62v-308 q0 -13 -3 -62h-86v12q39 3 43 20v367q-3 19 -43 20v13zM707 257q-133 0 -168 138q-10 42 -11 91q0 167 115 205q30 9 65 9q39 0 91 -19q2 -1 3 -1q27 -11 35 2l2 4l11 -4l-30 -98l-11 4q6 43 -19 63q-28 21 -82 21q-132 -2 -132 -181q0 -154 84 -194q26 -11 57 -12 q76 0 124 54q5 5 9 10l9 -22q-49 -69 -150 -69q-1 -1 -2 -1zM576 287q-104 54 -114 170q-1 11 -1 22q0 115 95 178q3 1 5 3q-52 -63 -52 -175q0 -133 67 -198zM75 34v2h24v-2q-3 -1 -4 -3v-16q0 -3 1 -5q-11 -10 -29 -10q-28 0 -35 26q-2 7 -2 12q0 31 30 37q5 0 9 1 q9 -1 16 -4q3 1 4 2h2v-16l-2 1q-3 12 -20 12q-26 -2 -28 -30q0 -32 23 -36q3 -1 6 -1q8 1 15 4v20q-1 5 -10 6zM193 33l19 -25q5 -5 11 -5v-2h-21q1 3 0 4l-18 25q-5 0 -10 -1v-23q2 -3 8 -3v-2h-25v2q5 1 7 3v63q-2 3 -7 4v2h27q23 -2 25 -19q-1 -14 -16 -23zM174 33 q22 3 23 22q-2 15 -16 16h-7v-38zM304 76l27 -70q2 -3 5 -3v-2h-21v2q4 1 5 2l-8 20h-24l-7 -20l3 -2h4v-2h-18v2q5 1 6 2l25 70zM289 29h22l-11 31zM418 75q22 0 25 -18v-3q0 -21 -26 -26q-4 -1 -9 -1v-21q2 -3 9 -3v-2h-26v2q6 1 7 3v63q-1 3 -7 4v2h27zM408 31 q23 2 24 21q-2 18 -17 19h-7v-40zM548 73v2h23v-2q-6 -1 -7 -4v-63q1 -3 7 -3v-2h-23v2q4 1 5 3v32h-36v-32q2 -3 6 -3v-2h-23v2q5 1 7 3v63q-2 3 -7 4v2h23v-2q-5 -1 -6 -4v-27h36v27q-1 3 -5 4zM630 73v2h23v-2q-5 -1 -6 -3v-64q1 -3 6 -3v-2h-23v2q5 1 6 3v64q-1 2 -6 3z M751 4q14 1 21 10l2 -3q-9 -11 -25 -11q-30 0 -37 27q-1 6 -1 11q0 29 28 36q6 1 11 2q7 -1 14 -3q5 -1 6 0h2l-5 -16l-1 1q0 8 -4 10q-5 3 -13 3q-24 0 -26 -26q-1 -3 -1 -5q0 -30 23 -35q3 -1 6 -1zM859 44q18 -12 18 -23q-5 -18 -24 -21q-7 0 -15 4q-5 1 -7 -1l-1 1l5 18 l2 -1q1 -14 15 -17q14 1 15 13q-1 11 -21 22q-13 9 -13 18q1 18 21 19q5 0 11 -3q5 0 6 1h2l-5 -15l-1 1q0 11 -13 11q-11 -1 -12 -10q0 -7 13 -15q3 -1 4 -2z" glyph-name="Atilde" unicode="Ã"/>
<glyph d="M544 230q178 -88 335 -35v-13q-82 -44 -222 -39q-111 4 -186 41q-81 40 -150 108q-16 16 -28 31l-87 105q-1 0 -21 -2v-131q1 -19 45 -20v-12h-88q-3 52 -3 62v308q0 12 3 62h95q63 0 86 -61q9 -26 9 -59q0 -67 -43 -103l73 -89q64 -79 116 -115q29 -19 66 -38zM185 453 q72 4 90 48q9 23 9 61q0 86 -42 103q-14 5 -32 5h-25v-217zM528 195l2 3q-101 52 -198 162l-72 90l-15 -10l74 -92q96 -112 209 -153zM350 576q0 78 -42 112q77 -21 89 -82q2 -10 2 -20q0 -60 -53 -100q-15 -11 -28 -16q32 42 32 106zM32 695h86q3 -52 3 -62v-308 q0 -13 -3 -62h-86v12q39 3 43 20v367q-3 19 -43 20v13zM576 287q-104 54 -114 170q-1 11 -1 22q0 115 95 178q3 1 5 3q-52 -63 -52 -175q0 -133 67 -198zM707 257q-133 0 -168 138q-10 42 -11 91q0 167 115 205q30 9 65 9q39 0 91 -19q2 -1 3 -1q27 -11 35 2l2 4l11 -4 l-30 -98l-11 4q6 43 -19 63q-28 21 -82 21q-132 -2 -132 -181q0 -154 84 -194q26 -11 57 -12q76 0 124 54q5 5 9 10l9 -22q-49 -69 -150 -69q-1 -1 -2 -1zM75 34v2h24v-2q-3 -1 -4 -3v-16q0 -3 1 -5q-11 -10 -29 -10q-28 0 -35 26q-2 7 -2 12q0 31 30 37q5 0 9 1q9 -1 16 -4 q3 1 4 2h2v-16l-2 1q-3 12 -20 12q-26 0 -27 -28l-1 -2q0 -32 23 -36q3 -1 6 -1q8 1 15 4v20q-1 5 -10 6zM193 33l19 -25q5 -5 11 -5v-2h-21q1 3 0 4l-18 25q-5 0 -10 -1v-23q2 -3 8 -3v-2h-25v2q5 1 7 3v63q-2 3 -7 4v2h27q23 -2 25 -19q-1 -14 -16 -23zM174 33q22 3 23 22 q-2 15 -16 16h-7v-38zM304 76l27 -70q2 -3 5 -3v-2h-21v2q4 1 5 2l-8 20h-24l-7 -20l3 -2h4v-2h-18v2q5 1 6 2l25 70zM289 29h22l-11 31zM418 75q22 0 25 -18v-3q0 -21 -26 -26q-4 -1 -9 -1v-21q2 -3 9 -3v-2h-26v2q6 1 7 3v63q-1 3 -7 4v2h27zM408 31q23 2 24 21 q-2 18 -17 19h-7v-40zM548 73v2h23v-2q-6 -1 -7 -4v-63q1 -3 7 -3v-2h-23v2q4 1 5 3v32h-36v-32q2 -3 6 -3v-2h-23v2q5 1 7 3v63q-2 3 -7 4v2h23v-2q-5 -1 -6 -4v-27h36v27q-1 3 -5 4zM630 73v2h23v-2q-5 -1 -6 -3v-64q1 -3 6 -3v-2h-23v2q5 1 6 3v64q-1 2 -6 3zM751 4 q14 1 21 10l2 -3q-9 -11 -25 -11q-30 0 -37 27q-1 6 -1 11q0 29 28 36q6 1 11 2q7 -1 14 -3q5 -1 6 0h2l-5 -16l-1 1q0 8 -4 10q-5 3 -13 3q-24 0 -26 -26q-1 -3 -1 -5q0 -30 23 -35q3 -1 6 -1zM859 44q18 -12 18 -23q-5 -18 -24 -21q-7 0 -15 4q-5 1 -7 -1l-1 1l5 18l2 -1 q1 -14 15 -17q14 1 15 13q-1 11 -21 22q-13 9 -13 18q1 18 21 19q5 0 11 -3q5 0 6 1h2l-5 -15l-1 1q0 11 -13 11q-11 -1 -12 -10q0 -7 13 -15q3 -1 4 -2z" glyph-name="Adieresis" unicode="Ä"/>
<glyph d="M32 695h86q3 -52 3 -62v-308q0 -13 -3 -62h-86v12q39 3 43 20v367q-3 19 -43 20v13zM544 230q178 -88 335 -35v-13q-82 -44 -222 -39q-111 4 -186 41q-81 40 -150 108q-16 16 -28 31l-87 105q-1 0 -21 -2v-131q1 -19 45 -20v-12h-88q-3 52 -3 62v308q0 12 3 62h95 q63 0 86 -61q9 -26 9 -59q0 -67 -43 -103l73 -89q64 -79 116 -115q29 -19 66 -38zM185 453q72 4 90 48q9 23 9 61q0 86 -42 103q-14 5 -32 5h-25v-217zM528 195l2 3q-101 52 -198 162l-72 90l-15 -10l74 -92q96 -112 209 -153zM350 576q0 78 -42 112q77 -21 89 -82 q2 -10 2 -20q0 -60 -53 -100q-15 -11 -28 -16q32 42 32 106zM576 287q-104 54 -114 170q-1 11 -1 22q0 115 95 178q3 1 5 3q-52 -63 -52 -175q0 -133 67 -198zM707 257q-133 0 -168 138q-10 42 -11 91q0 167 115 205q30 9 65 9q39 0 91 -19q2 -1 3 -1q27 -11 35 2l2 4l11 -4 l-30 -98l-11 4q6 43 -19 63q-28 21 -82 21q-132 -2 -132 -181q0 -154 84 -194q26 -11 57 -12q76 0 124 54q5 5 9 10l9 -22q-49 -69 -150 -69q-1 -1 -2 -1zM75 34v2h24v-2q-3 -1 -4 -3v-16q0 -3 1 -5q-11 -10 -29 -10q-28 0 -35 26q-2 7 -2 12q0 31 30 37q5 0 9 1q9 -1 16 -4 q3 1 4 2h2v-16l-2 1q-3 12 -20 12q-26 0 -27 -28l-1 -2q0 -32 23 -36q3 -1 6 -1q8 1 15 4v20q-1 5 -10 6zM193 33l19 -25q5 -5 11 -5v-2h-21q1 3 0 4l-18 25q-5 0 -10 -1v-23q2 -3 8 -3v-2h-25v2q5 1 7 3v63q-2 3 -7 4v2h27q23 -2 25 -19q-1 -14 -16 -23zM174 33q22 3 23 22 q-2 15 -16 16h-7v-38zM304 76l27 -70q2 -3 5 -3v-2h-21v2q4 1 5 2l-8 20h-24l-7 -20l3 -2h4v-2h-18v2q5 1 6 2l25 70zM289 29h22l-11 31zM418 75q22 0 25 -18v-3q0 -21 -26 -26q-4 -1 -9 -1v-21q2 -3 9 -3v-2h-26v2q6 1 7 3v63q-1 3 -7 4v2h27zM408 31q23 2 24 21 q-2 18 -17 19h-7v-40zM548 73v2h23v-2q-6 -1 -7 -4v-63q1 -3 7 -3v-2h-23v2q4 1 5 3v32h-36v-32q2 -3 6 -3v-2h-23v2q5 1 7 3v63q-2 3 -7 4v2h23v-2q-5 -1 -6 -4v-27h36v27q-1 3 -5 4zM630 73v2h23v-2q-5 -1 -6 -3v-64q1 -3 6 -3v-2h-23v2q5 1 6 3v64q-1 2 -6 3zM751 4 q14 1 21 10l2 -3q-9 -11 -25 -11q-30 0 -37 27q-1 6 -1 11q0 29 28 36q6 1 11 2q7 -1 14 -3q5 -1 6 0h2l-5 -16l-1 1q0 8 -4 10q-5 3 -13 3q-24 0 -26 -26q-1 -3 -1 -5q0 -30 23 -35q3 -1 6 -1zM859 44q18 -12 18 -23q-5 -18 -24 -21q-7 0 -15 4q-5 1 -7 -1l-1 1l5 18l2 -1 q1 -14 15 -17q14 1 15 13q-1 11 -21 22q-13 9 -13 18q1 18 21 19q5 0 11 -3q5 0 6 1h2l-5 -15l-1 1q0 11 -13 11q-11 -1 -12 -10q0 -7 13 -15q3 -1 4 -2z" glyph-name="AE" unicode="Æ"/>
<glyph d="M544 230q178 -88 335 -35v-13q-82 -44 -222 -39q-111 4 -186 41q-81 40 -150 108q-16 16 -28 31l-87 105q-1 0 -21 -2v-131q1 -19 45 -20v-12h-88q-3 52 -3 62v308q0 12 3 62h95q63 0 86 -61q9 -26 9 -59q0 -67 -43 -103l73 -89q64 -79 116 -115q29 -19 66 -38zM185 453 q72 4 90 48q9 23 9 61q0 86 -42 103q-14 5 -32 5h-25v-217zM528 195l2 3q-101 52 -198 162l-72 90l-15 -10l74 -92q96 -112 209 -153zM32 695h86q3 -52 3 -62v-308q0 -13 -3 -62h-86v12q39 3 43 20v367q-3 19 -43 20v13zM350 576q0 78 -42 112q77 -21 89 -82q2 -10 2 -20 q0 -60 -53 -100q-15 -11 -28 -16q32 42 32 106zM707 257q-133 0 -168 138q-10 42 -11 91q0 167 115 205q30 9 65 9q39 0 91 -19q2 -1 3 -1q27 -11 35 2l2 4l11 -4l-30 -98l-11 4q6 43 -19 63q-28 21 -82 21q-132 -2 -132 -181q0 -154 84 -194q26 -11 57 -12q76 0 124 54 q5 5 9 10l9 -22q-49 -69 -150 -69q-1 -1 -2 -1zM576 287q-104 54 -114 170q-1 11 -1 22q0 115 95 178q3 1 5 3q-52 -63 -52 -175q0 -133 67 -198zM75 34v2h24v-2q-3 -1 -4 -3v-16q0 -3 1 -5q-11 -10 -29 -10q-28 0 -35 26q-2 7 -2 12q0 31 30 37q5 0 9 1q9 -1 16 -4q3 1 4 2 h2v-16l-2 1q-3 12 -20 12q-26 0 -27 -28l-1 -2q0 -32 23 -36q3 -1 6 -1q8 1 15 4v20q-1 5 -10 6zM193 33l19 -25q5 -5 11 -5v-2h-21q1 3 0 4l-18 25q-5 0 -10 -1v-23q2 -3 8 -3v-2h-25v2q5 1 7 3v63q-2 3 -7 4v2h27q23 -2 25 -19q-1 -14 -16 -23zM174 33q22 3 23 22 q-2 15 -16 16h-7v-38zM304 76l27 -70q2 -3 5 -3v-2h-21v2q4 1 5 2l-8 20h-24l-7 -20l3 -2h4v-2h-18v2q5 1 6 2l25 70zM289 29h22l-11 31zM418 75q22 0 25 -18v-3q0 -21 -26 -26q-4 -1 -9 -1v-21q2 -3 9 -3v-2h-26v2q6 1 7 3v63q-1 3 -7 4v2h27zM408 31q23 2 24 21 q-2 18 -17 19h-7v-40zM548 73v2h23v-2q-6 -1 -7 -4v-63q1 -3 7 -3v-2h-23v2q4 1 5 3v32h-36v-32q2 -3 6 -3v-2h-23v2q5 1 7 3v63q-2 3 -7 4v2h23v-2q-5 -1 -6 -4v-27h36v27q-1 3 -5 4zM630 73v2h23v-2q-5 -1 -6 -3v-64q1 -3 6 -3v-2h-23v2q5 1 6 3v64q-1 2 -6 3zM751 4 q14 1 21 10l2 -3q-9 -11 -25 -11q-30 0 -37 27q-1 6 -1 11q0 29 28 36q6 1 11 2q7 -1 14 -3q5 -1 6 0h2l-5 -16l-1 1q0 8 -4 10q-5 3 -13 3q-24 0 -26 -26q-1 -3 -1 -5q0 -30 23 -35q3 -1 6 -1zM859 44q18 -12 18 -23q-5 -18 -24 -21q-7 0 -15 4q-5 1 -7 -1l-1 1l5 18l2 -1 q1 -14 15 -17q14 1 15 13q-1 11 -21 22q-13 9 -13 18q1 18 21 19q5 0 11 -3q5 0 6 1h2l-5 -15l-1 1q0 11 -13 11q-11 -1 -12 -10q0 -7 13 -15q3 -1 4 -2z" glyph-name="Ccedilla" unicode="Ç"/>
<glyph d="M32 695h86q3 -52 3 -62v-308q0 -13 -3 -62h-86v12q39 3 43 20v367q-3 19 -43 20v13zM350 576q0 78 -42 112q77 -21 89 -82q2 -10 2 -20q0 -60 -53 -100q-15 -11 -28 -16q32 42 32 106zM544 230q178 -88 335 -35v-13q-82 -44 -222 -39q-111 4 -186 41q-81 40 -150 108 q-16 16 -28 31l-87 105q-1 0 -21 -2v-131q1 -19 45 -20v-12h-88q-3 52 -3 62v308q0 12 3 62h95q63 0 86 -61q9 -26 9 -59q0 -67 -43 -103l73 -89q64 -79 116 -115q29 -19 66 -38zM185 453q72 4 90 48q9 23 9 61q0 86 -42 103q-14 5 -32 5h-25v-217zM528 195l2 3 q-101 52 -198 162l-72 90l-15 -10l74 -92q96 -112 209 -153zM707 257q-133 0 -168 138q-10 42 -11 91q0 167 115 205q30 9 65 9q39 0 91 -19q2 -1 3 -1q27 -11 35 2l2 4l11 -4l-30 -98l-11 4q6 43 -19 63q-28 21 -82 21q-132 -2 -132 -181q0 -154 84 -194q26 -11 57 -12 q76 0 124 54q5 5 9 10l9 -22q-49 -69 -150 -69q-1 -1 -2 -1zM576 287q-104 54 -114 170q-1 11 -1 22q0 115 95 178q3 1 5 3q-52 -63 -52 -175q0 -133 67 -198zM75 34v2h24v-2q-3 -1 -4 -3v-16q0 -3 1 -5q-11 -10 -29 -10q-28 0 -35 26q-2 7 -2 12q0 31 30 37q5 0 9 1 q9 -1 16 -4q3 1 4 2h2v-16l-2 1q-3 12 -20 12q-26 -2 -28 -30q0 -32 23 -36q3 -1 6 -1q8 1 15 4v20q-1 5 -10 6zM193 33l19 -25q5 -5 11 -5v-2h-21q1 3 0 4l-18 25q-5 0 -10 -1v-23q2 -3 8 -3v-2h-25v2q5 1 7 3v63q-2 3 -7 4v2h27q23 -2 25 -19q-1 -14 -16 -23zM174 33 q22 3 23 22q-2 15 -16 16h-7v-38zM304 76l27 -70q2 -3 5 -3v-2h-21v2q4 1 5 2l-8 20h-24l-7 -20l3 -2h4v-2h-18v2q5 1 6 2l25 70zM289 29h22l-11 31zM418 75q22 0 25 -18v-3q0 -21 -26 -26q-4 -1 -9 -1v-21q2 -3 9 -3v-2h-26v2q6 1 7 3v63q-1 3 -7 4v2h27zM408 31 q23 2 24 21q-2 18 -17 19h-7v-40zM548 73v2h23v-2q-6 -1 -7 -4v-63q1 -3 7 -3v-2h-23v2q4 1 5 3v32h-36v-32q2 -3 6 -3v-2h-23v2q5 1 7 3v63q-2 3 -7 4v2h23v-2q-5 -1 -6 -4v-27h36v27q-1 3 -5 4zM630 73v2h23v-2q-5 -1 -6 -3v-64q1 -3 6 -3v-2h-23v2q5 1 6 3v64q-1 2 -6 3z M751 4q14 1 21 10l2 -3q-9 -11 -25 -11q-30 0 -37 27q-1 6 -1 11q0 29 28 36q6 1 11 2q7 -1 14 -3q5 -1 6 0h2l-5 -16l-1 1q0 8 -4 10q-5 3 -13 3q-24 0 -26 -26q-1 -3 -1 -5q0 -30 23 -35q3 -1 6 -1zM859 44q18 -12 18 -23q-5 -18 -24 -21q-7 0 -15 4q-5 1 -7 -1l-1 1l5 18 l2 -1q1 -14 15 -17q14 1 15 13q-1 11 -21 22q-13 9 -13 18q1 18 21 19q5 0 11 -3q5 0 6 1h2l-5 -15l-1 1q0 11 -13 11q-11 -1 -12 -10q0 -7 13 -15q3 -1 4 -2z" glyph-name="Egrave" unicode="È"/>
<glyph d="M350 576q0 78 -42 112q77 -21 89 -82q2 -10 2 -20q0 -60 -53 -100q-15 -11 -28 -16q32 42 32 106zM32 695h86q3 -52 3 -62v-308q0 -13 -3 -62h-86v12q39 3 43 20v367q-3 19 -43 20v13zM544 230q178 -88 335 -35v-13q-82 -44 -222 -39q-111 4 -186 41q-81 40 -150 108 q-16 16 -28 31l-87 105q-1 0 -21 -2v-131q1 -19 45 -20v-12h-88q-3 52 -3 62v308q0 12 3 62h95q63 0 86 -61q9 -26 9 -59q0 -67 -43 -103l73 -89q64 -79 116 -115q29 -19 66 -38zM185 453q72 4 90 48q9 23 9 61q0 86 -42 103q-14 5 -32 5h-25v-217zM528 195l2 3 q-101 52 -198 162l-72 90l-15 -10l74 -92q96 -112 209 -153zM576 287q-104 54 -114 170q-1 11 -1 22q0 115 95 178q3 1 5 3q-52 -63 -52 -175q0 -133 67 -198zM707 257q-133 0 -168 138q-10 42 -11 91q0 167 115 205q30 9 65 9q39 0 91 -19q2 -1 3 -1q27 -11 35 2l2 4l11 -4 l-30 -98l-11 4q6 43 -19 63q-28 21 -82 21q-132 -2 -132 -181q0 -154 84 -194q26 -11 57 -12q76 0 124 54q5 5 9 10l9 -22q-51 -69 -152 -70zM75 34v2h24v-2q-3 -1 -4 -3v-16q0 -3 1 -5q-11 -10 -29 -10q-28 0 -35 26q-2 7 -2 12q0 31 30 37q5 0 9 1q9 -1 16 -4q3 1 4 2h2 v-16l-2 1q-3 12 -20 12q-26 0 -27 -28l-1 -2q0 -32 23 -36q3 -1 6 -1q8 1 15 4v20q-1 5 -10 6zM193 33l19 -25q5 -5 11 -5v-2h-21q1 3 0 4l-18 25q-5 0 -10 -1v-23q2 -3 8 -3v-2h-25v2q5 1 7 3v63q-2 3 -7 4v2h27q23 -2 25 -19q-1 -14 -16 -23zM174 33q22 3 23 22 q-2 15 -16 16h-7v-38zM304 76l27 -70q2 -3 5 -3v-2h-21v2q4 1 5 2l-8 20h-24l-7 -20l3 -2h4v-2h-18v2q5 1 6 2l25 70zM289 29h22l-11 31zM418 75q22 0 25 -18v-3q0 -21 -26 -26q-4 -1 -9 -1v-21q2 -3 9 -3v-2h-26v2q6 1 7 3v63q-1 3 -7 4v2h27zM408 31q23 2 24 21 q-2 18 -17 19h-7v-40zM548 73v2h23v-2q-6 -1 -7 -4v-63q1 -3 7 -3v-2h-23v2q4 1 5 3v32h-36v-32q2 -3 6 -3v-2h-23v2q5 1 7 3v63q-2 3 -7 4v2h23v-2q-5 -1 -6 -4v-27h36v27q-1 3 -5 4zM630 73v2h23v-2q-5 -1 -6 -3v-64q1 -3 6 -3v-2h-23v2q5 1 6 3v64q-1 2 -6 3zM751 4 q14 1 21 10l2 -3q-9 -11 -25 -11q-30 0 -37 27q-1 6 -1 11q0 29 28 36q6 1 11 2q7 -1 14 -3q5 -1 6 0h2l-5 -16l-1 1q0 8 -4 10q-5 3 -13 3q-24 0 -26 -26q-1 -3 -1 -5q0 -30 23 -35q3 -1 6 -1zM859 44q18 -12 18 -23q-5 -18 -24 -21q-7 0 -15 4q-5 1 -7 -1l-1 1l5 18l2 -1 q1 -14 15 -17q14 1 15 13q-1 11 -21 22q-13 9 -13 18q1 18 21 19q5 0 11 -3q5 0 6 1h2l-5 -15l-1 1q0 10 -13 11q-11 -1 -12 -10q0 -7 13 -15q3 -1 4 -2z" glyph-name="Eacute" unicode="É"/>
<glyph d="M32 695h86q3 -52 3 -62v-308q0 -13 -3 -62h-86v12q39 3 43 20v367q-3 19 -43 20v13zM350 576q0 78 -42 112q77 -21 89 -82q2 -10 2 -20q0 -60 -53 -100q-15 -11 -28 -16q32 42 32 106zM544 230q178 -88 335 -35v-13q-82 -44 -222 -39q-111 4 -186 41q-81 40 -150 108 q-16 16 -28 31l-87 105q-1 0 -21 -2v-131q1 -19 45 -20v-12h-88q-3 52 -3 62v308q0 12 3 62h95q63 0 86 -61q9 -26 9 -59q0 -67 -43 -103l73 -89q64 -79 116 -115q29 -19 66 -38zM185 453q72 4 90 48q9 23 9 61q0 86 -42 103q-14 5 -32 5h-25v-217zM528 195l2 3 q-101 52 -198 162l-72 90l-15 -10l74 -92q96 -112 209 -153zM576 287q-104 54 -114 170q-1 11 -1 22q0 115 95 178q3 1 5 3q-52 -63 -52 -175q0 -133 67 -198zM707 257q-133 0 -168 138q-10 42 -11 91q0 167 115 205q30 9 65 9q39 0 91 -19q2 -1 3 -1q27 -11 35 2l2 4l11 -4 l-30 -98l-11 4q6 43 -19 63q-28 21 -82 21q-132 -2 -132 -181q0 -154 84 -194q26 -11 57 -12q76 0 124 54q5 5 9 10l9 -22q-49 -69 -150 -69q-1 -1 -2 -1zM75 34v2h24v-2q-3 -1 -4 -3v-16q0 -3 1 -5q-11 -10 -29 -10q-28 0 -35 26q-2 7 -2 12q0 31 30 37q5 0 9 1q9 -1 16 -4 q3 1 4 2h2v-16l-2 1q-3 12 -20 12q-26 0 -27 -28l-1 -2q0 -32 23 -36q3 -1 6 -1q8 1 15 4v20q-1 5 -10 6zM193 33l19 -25q5 -5 11 -5v-2h-21q1 3 0 4l-18 25q-5 0 -10 -1v-23q2 -3 8 -3v-2h-25v2q5 1 7 3v63q-2 3 -7 4v2h27q23 -2 25 -19q-1 -14 -16 -23zM174 33q22 3 23 22 q-2 15 -16 16h-7v-38zM304 76l27 -70q2 -3 5 -3v-2h-21v2q4 1 5 2l-8 20h-24l-7 -20l3 -2h4v-2h-18v2q5 1 6 2l25 70zM289 29h22l-11 31zM418 75q22 0 25 -18v-3q0 -21 -26 -26q-4 -1 -9 -1v-21q2 -3 9 -3v-2h-26v2q6 1 7 3v63q-1 3 -7 4v2h27zM408 31q23 2 24 21 q-2 18 -17 19h-7v-40zM548 73v2h23v-2q-6 -1 -7 -4v-63q1 -3 7 -3v-2h-23v2q4 1 5 3v32h-36v-32q2 -3 6 -3v-2h-23v2q5 1 7 3v63q-2 3 -7 4v2h23v-2q-5 -1 -6 -4v-27h36v27q-1 3 -5 4zM630 73v2h23v-2q-5 -1 -6 -3v-64q1 -3 6 -3v-2h-23v2q5 1 6 3v64q-1 2 -6 3zM751 4 q14 1 21 10l2 -3q-9 -11 -25 -11q-30 0 -37 27q-1 6 -1 11q0 29 28 36q6 1 11 2q7 -1 14 -3q5 -1 6 0h2l-5 -16l-1 1q0 8 -4 10q-5 3 -13 3q-24 0 -26 -26q-1 -3 -1 -5q0 -30 23 -35q3 -1 6 -1zM859 44q18 -12 18 -23q-5 -18 -24 -21q-7 0 -15 4q-5 1 -7 -1l-1 1l5 18l2 -1 q1 -14 15 -17q14 1 15 13q-1 11 -21 22q-13 9 -13 18q1 18 21 19q5 0 11 -3q5 0 6 1h2l-5 -15l-1 1q0 11 -13 11q-11 -1 -12 -10q0 -7 13 -15q3 -1 4 -2z" glyph-name="Ecircumflex" unicode="Ê"/>
<glyph d="M32 695h86q3 -52 3 -62v-308q0 -13 -3 -62h-86v12q39 3 43 20v367q-3 19 -43 20v13zM350 576q0 78 -42 112q77 -21 89 -82q2 -10 2 -20q0 -60 -53 -100q-15 -11 -28 -16q32 42 32 106zM544 230q178 -88 335 -35v-13q-82 -44 -222 -39q-111 4 -186 41q-81 40 -150 108 q-16 16 -28 31l-87 105q-1 0 -21 -2v-131q1 -19 45 -20v-12h-88q-3 52 -3 62v308q0 12 3 62h95q63 0 86 -61q9 -26 9 -59q0 -67 -43 -103l73 -89q64 -79 116 -115q29 -19 66 -38zM185 453q72 4 90 48q9 23 9 61q0 86 -42 103q-14 5 -32 5h-25v-217zM528 195l2 3 q-101 52 -198 162l-72 90l-15 -10l74 -92q96 -112 209 -153zM576 287q-104 54 -114 170q-1 11 -1 22q0 115 95 178q3 1 5 3q-52 -63 -52 -175q0 -133 67 -198zM707 257q-133 0 -168 138q-10 42 -11 91q0 167 115 205q30 9 65 9q39 0 91 -19q2 -1 3 -1q27 -11 35 2l2 4l11 -4 l-30 -98l-11 4q6 43 -19 63q-28 21 -82 21q-132 -2 -132 -181q0 -154 84 -194q26 -11 57 -12q76 0 124 54q5 5 9 10l9 -22q-49 -69 -150 -69q-1 -1 -2 -1zM75 34v2h24v-2q-3 -1 -4 -3v-16q0 -3 1 -5q-11 -10 -29 -10q-28 0 -35 26q-2 7 -2 12q0 31 30 37q5 0 9 1q9 -1 16 -4 q3 1 4 2h2v-16l-2 1q-3 12 -20 12q-26 0 -27 -28l-1 -2q0 -32 23 -36q3 -1 6 -1q8 1 15 4v20q-1 5 -10 6zM193 33l19 -25q5 -5 11 -5v-2h-21q1 3 0 4l-18 25q-5 0 -10 -1v-23q2 -3 8 -3v-2h-25v2q5 1 7 3v63q-2 3 -7 4v2h27q23 -2 25 -19q-1 -14 -16 -23zM174 33q22 3 23 22 q-2 15 -16 16h-7v-38zM304 76l27 -70q2 -3 5 -3v-2h-21v2q4 1 5 2l-8 20h-24l-7 -20l3 -2h4v-2h-18v2q5 1 6 2l25 70zM289 29h22l-11 31zM418 75q22 0 25 -18v-3q0 -21 -26 -26q-4 -1 -9 -1v-21q2 -3 9 -3v-2h-26v2q6 1 7 3v63q-1 3 -7 4v2h27zM408 31q23 2 24 21 q-2 18 -17 19h-7v-40zM548 73v2h23v-2q-6 -1 -7 -4v-63q1 -3 7 -3v-2h-23v2q4 1 5 3v32h-36v-32q2 -3 6 -3v-2h-23v2q5 1 7 3v63q-2 3 -7 4v2h23v-2q-5 -1 -6 -4v-27h36v27q-1 3 -5 4zM630 73v2h23v-2q-5 -1 -6 -3v-64q1 -3 6 -3v-2h-23v2q5 1 6 3v64q-1 2 -6 3zM751 4 q14 1 21 10l2 -3q-9 -11 -25 -11q-30 0 -37 27q-1 6 -1 11q0 29 28 36q6 1 11 2q7 -1 14 -3q5 -1 6 0h2l-5 -16l-1 1q0 8 -4 10q-5 3 -13 3q-24 0 -26 -26q-1 -3 -1 -5q0 -30 23 -35q3 -1 6 -1zM859 44q18 -12 18 -23q-5 -18 -24 -21q-7 0 -15 4q-5 1 -7 -1l-1 1l5 18l2 -1 q1 -14 15 -17q14 1 15 13q-1 11 -21 22q-13 9 -13 18q1 18 21 19q5 0 11 -3q5 0 6 1h2l-5 -15l-1 1q0 11 -13 11q-11 -1 -12 -10q0 -7 13 -15q3 -1 4 -2z" glyph-name="Edieresis" unicode="Ë"/>
<glyph d="M350 576q0 78 -42 112q77 -21 89 -82q2 -10 2 -20q0 -60 -53 -100q-15 -11 -28 -16q32 42 32 106zM32 695h86q3 -52 3 -62v-308q0 -13 -3 -62h-86v12q39 3 43 20v367q-3 19 -43 20v13zM544 230q178 -88 335 -35v-13q-82 -44 -222 -39q-111 4 -186 41q-81 40 -150 108 q-16 16 -28 31l-87 105q-1 0 -21 -2v-131q1 -19 45 -20v-12h-88q-3 52 -3 62v308q0 12 3 62h95q63 0 86 -61q9 -26 9 -59q0 -67 -43 -103l73 -89q64 -79 116 -115q29 -19 66 -38zM185 453q72 4 90 48q9 23 9 61q0 86 -42 103q-14 5 -32 5h-25v-217zM528 195l2 3 q-101 52 -198 162l-72 90l-15 -10l74 -92q96 -112 209 -153zM707 257q-133 0 -168 138q-10 42 -11 91q0 167 115 205q30 9 65 9q39 0 91 -19q2 -1 3 -1q27 -11 35 2l2 4l11 -4l-30 -98l-11 4q6 43 -19 63q-28 21 -82 21q-132 -2 -132 -181q0 -154 84 -194q26 -11 57 -12 q76 0 124 54q5 5 9 10l9 -22q-49 -69 -150 -69q-1 -1 -2 -1zM576 287q-104 54 -114 170q-1 11 -1 22q0 115 95 178q3 1 5 3q-52 -63 -52 -175q0 -133 67 -198zM75 34v2h24v-2q-3 -1 -4 -3v-16q0 -3 1 -5q-11 -10 -29 -10q-28 0 -35 26q-2 7 -2 12q0 31 30 37q5 0 9 1 q9 -1 16 -4q3 1 4 2h2v-16l-2 1q-3 12 -20 12q-26 -2 -28 -30q0 -32 23 -36q3 -1 6 -1q8 1 15 4v20q-1 5 -10 6zM193 33l19 -25q5 -5 11 -5v-2h-21q1 3 0 4l-18 25q-5 0 -10 -1v-23q2 -3 8 -3v-2h-25v2q5 1 7 3v63q-2 3 -7 4v2h27q23 -2 25 -19q-1 -14 -16 -23zM174 33 q22 3 23 22q-2 15 -16 16h-7v-38zM304 76l27 -70q2 -3 5 -3v-2h-21v2q4 1 5 2l-8 20h-24l-7 -20l3 -2h4v-2h-18v2q5 1 6 2l25 70zM289 29h22l-11 31zM418 75q22 0 25 -18v-3q0 -21 -26 -26q-4 -1 -9 -1v-21q2 -3 9 -3v-2h-26v2q6 1 7 3v63q-1 3 -7 4v2h27zM408 31 q23 2 24 21q-2 18 -17 19h-7v-40zM548 73v2h23v-2q-6 -1 -7 -4v-63q1 -3 7 -3v-2h-23v2q4 1 5 3v32h-36v-32q2 -3 6 -3v-2h-23v2q5 1 7 3v63q-2 3 -7 4v2h23v-2q-5 -1 -6 -4v-27h36v27q-1 3 -5 4zM630 73v2h23v-2q-5 -1 -6 -3v-64q1 -3 6 -3v-2h-23v2q5 1 6 3v64q-1 2 -6 3z M751 4q14 1 21 10l2 -3q-9 -11 -25 -11q-30 0 -37 27q-1 6 -1 11q0 29 28 36q6 1 11 2q7 -1 14 -3q5 -1 6 0h2l-5 -16l-1 1q0 8 -4 10q-5 3 -13 3q-24 0 -26 -26q-1 -3 -1 -5q0 -30 23 -35q3 -1 6 -1zM859 44q18 -12 18 -23q-5 -18 -24 -21q-7 0 -15 4q-5 1 -7 -1l-1 1l5 18 l2 -1q1 -14 15 -17q14 1 15 13q-1 11 -21 22q-13 9 -13 18q1 18 21 19q5 0 11 -3q5 0 6 1h2l-5 -15l-1 1q0 11 -13 11q-11 -1 -12 -10q0 -7 13 -15q3 -1 4 -2z" glyph-name="Igrave" unicode="Ì"/>
<glyph d="M350 576q0 78 -42 112q77 -21 89 -82q2 -10 2 -20q0 -60 -53 -100q-15 -11 -28 -16q32 42 32 106zM32 695h86q3 -52 3 -62v-308q0 -13 -3 -62h-86v12q39 3 43 20v367q-3 19 -43 20v13zM544 230q178 -88 335 -35v-13q-82 -44 -222 -39q-111 4 -186 41q-81 40 -150 108 q-16 16 -28 31l-87 105q-1 0 -21 -2v-131q1 -19 45 -20v-12h-88q-3 52 -3 62v308q0 12 3 62h95q63 0 86 -61q9 -26 9 -59q0 -67 -43 -103l73 -89q64 -79 116 -115q29 -19 66 -38zM185 453q72 4 90 48q9 23 9 61q0 86 -42 103q-14 5 -32 5h-25v-217zM528 195l2 3 q-101 52 -198 162l-72 90l-15 -10l74 -92q96 -112 209 -153zM707 257q-133 0 -168 138q-10 42 -11 91q0 167 115 205q30 9 65 9q39 0 91 -19q2 -1 3 -1q27 -11 35 2l2 4l11 -4l-30 -98l-11 4q6 43 -19 63q-28 21 -82 21q-132 -2 -132 -181q0 -154 84 -194q26 -11 57 -12 q76 0 124 54q5 5 9 10l9 -22q-49 -69 -150 -69q-1 -1 -2 -1zM576 287q-104 54 -114 170q-1 11 -1 22q0 115 95 178q3 1 5 3q-52 -63 -52 -175q0 -133 67 -198zM75 34v2h24v-2q-3 -1 -4 -3v-16q0 -3 1 -5q-11 -10 -29 -10q-28 0 -35 26q-2 7 -2 12q0 31 30 37q5 0 9 1 q9 -1 16 -4q3 1 4 2h2v-16l-2 1q-3 12 -20 12q-26 -2 -28 -30q0 -32 23 -36q3 -1 6 -1q8 1 15 4v20q-1 5 -10 6zM193 33l19 -25q5 -5 11 -5v-2h-21q1 3 0 4l-18 25q-5 0 -10 -1v-23q2 -3 8 -3v-2h-25v2q5 1 7 3v63q-2 3 -7 4v2h27q23 -2 25 -19q-1 -14 -16 -23zM174 33 q22 3 23 22q-2 15 -16 16h-7v-38zM304 76l27 -70q2 -3 5 -3v-2h-21v2q4 1 5 2l-8 20h-24l-7 -20l3 -2h4v-2h-18v2q5 1 6 2l25 70zM289 29h22l-11 31zM418 75q22 0 25 -18v-3q0 -21 -26 -26q-4 -1 -9 -1v-21q2 -3 9 -3v-2h-26v2q6 1 7 3v63q-1 3 -7 4v2h27zM408 31 q23 2 24 21q-2 18 -17 19h-7v-40zM548 73v2h23v-2q-6 -1 -7 -4v-63q1 -3 7 -3v-2h-23v2q4 1 5 3v32h-36v-32q2 -3 6 -3v-2h-23v2q5 1 7 3v63q-2 3 -7 4v2h23v-2q-5 -1 -6 -4v-27h36v27q-1 3 -5 4zM630 73v2h23v-2q-5 -1 -6 -3v-64q1 -3 6 -3v-2h-23v2q5 1 6 3v64q-1 2 -6 3z M751 4q14 1 21 10l2 -3q-9 -11 -25 -11q-30 0 -37 27q-1 6 -1 11q0 29 28 36q6 1 11 2q7 -1 14 -3q5 -1 6 0h2l-5 -16l-1 1q0 8 -4 10q-5 3 -13 3q-24 0 -26 -26q-1 -3 -1 -5q0 -30 23 -35q3 -1 6 -1zM859 44q18 -12 18 -23q-5 -18 -24 -21q-7 0 -15 4q-5 1 -7 -1l-1 1l5 18 l2 -1q1 -14 15 -17q14 1 15 13q-1 11 -21 22q-13 9 -13 18q1 18 21 19q5 0 11 -3q5 0 6 1h2l-5 -15l-1 1q0 11 -13 11q-11 -1 -12 -10q0 -7 13 -15q3 -1 4 -2z" glyph-name="Iacute" unicode="Í"/>
<glyph d="M32 695h86q3 -52 3 -62v-308q0 -13 -3 -62h-86v12q39 3 43 20v367q-3 19 -43 20v13zM350 576q0 78 -42 112q77 -21 89 -82q2 -10 2 -20q0 -60 -53 -100q-15 -11 -28 -16q32 42 32 106zM544 230q178 -88 335 -35v-13q-82 -44 -222 -39q-111 4 -186 41q-81 40 -150 108 q-16 16 -28 31l-87 105q-1 0 -21 -2v-131q1 -19 45 -20v-12h-88q-3 52 -3 62v308q0 12 3 62h95q63 0 86 -61q9 -26 9 -59q0 -67 -43 -103l73 -89q64 -79 116 -115q29 -19 66 -38zM185 453q72 4 90 48q9 23 9 61q0 86 -42 103q-14 5 -32 5h-25v-217zM528 195l2 3 q-101 52 -198 162l-72 90l-15 -10l74 -92q96 -112 209 -153zM707 257q-133 0 -168 138q-10 42 -11 91q0 167 115 205q30 9 65 9q39 0 91 -19q2 -1 3 -1q27 -11 35 2l2 4l11 -4l-30 -98l-11 4q6 43 -19 63q-28 21 -82 21q-132 -2 -132 -181q0 -154 84 -194q26 -11 57 -12 q76 0 124 54q5 5 9 10l9 -22q-49 -69 -150 -69q-1 -1 -2 -1zM576 287q-104 54 -114 170q-1 11 -1 22q0 115 95 178q3 1 5 3q-52 -63 -52 -175q0 -133 67 -198zM75 34v2h24v-2q-3 -1 -4 -3v-16q0 -3 1 -5q-11 -10 -29 -10q-28 0 -35 26q-2 7 -2 12q0 31 30 37q5 0 9 1 q9 -1 16 -4q3 1 4 2h2v-16l-2 1q-3 12 -20 12q-26 -2 -28 -30q0 -32 23 -36q3 -1 6 -1q8 1 15 4v20q-1 5 -10 6zM193 33l19 -25q5 -5 11 -5v-2h-21q1 3 0 4l-18 25q-5 0 -10 -1v-23q2 -3 8 -3v-2h-25v2q5 1 7 3v63q-2 3 -7 4v2h27q23 -2 25 -19q-1 -14 -16 -23zM174 33 q22 3 23 22q-2 15 -16 16h-7v-38zM304 76l27 -70q2 -3 5 -3v-2h-21v2q4 1 5 2l-8 20h-24l-7 -20l3 -2h4v-2h-18v2q5 1 6 2l25 70zM289 29h22l-11 31zM418 75q22 0 25 -18v-3q0 -21 -26 -26q-4 -1 -9 -1v-21q2 -3 9 -3v-2h-26v2q6 1 7 3v63q-1 3 -7 4v2h27zM408 31 q23 2 24 21q-2 18 -17 19h-7v-40zM548 73v2h23v-2q-6 -1 -7 -4v-63q1 -3 7 -3v-2h-23v2q4 1 5 3v32h-36v-32q2 -3 6 -3v-2h-23v2q5 1 7 3v63q-2 3 -7 4v2h23v-2q-5 -1 -6 -4v-27h36v27q-1 3 -5 4zM630 73v2h23v-2q-5 -1 -6 -3v-64q1 -3 6 -3v-2h-23v2q5 1 6 3v64q-1 2 -6 3z M751 4q14 1 21 10l2 -3q-9 -11 -25 -11q-30 0 -37 27q-1 6 -1 11q0 29 28 36q6 1 11 2q7 -1 14 -3q5 -1 6 0h2l-5 -16l-1 1q0 8 -4 10q-5 3 -13 3q-24 0 -26 -26q-1 -3 -1 -5q0 -30 23 -35q3 -1 6 -1zM859 44q18 -12 18 -23q-5 -18 -24 -21q-7 0 -15 4q-5 1 -7 -1l-1 1l5 18 l2 -1q1 -14 15 -17q14 1 15 13q-1 11 -21 22q-13 9 -13 18q1 18 21 19q5 0 11 -3q5 0 6 1h2l-5 -15l-1 1q0 11 -13 11q-11 -1 -12 -10q0 -7 13 -15q3 -1 4 -2z" glyph-name="Icircumflex" unicode="Î"/>
<glyph d="M32 695h86q3 -52 3 -62v-308q0 -13 -3 -62h-86v12q39 3 43 20v367q-3 19 -43 20v13zM350 576q0 78 -42 112q77 -21 89 -82q2 -10 2 -20q0 -60 -53 -100q-15 -11 -28 -16q32 42 32 106zM544 230q178 -88 335 -35v-13q-82 -44 -222 -39q-111 4 -186 41q-81 40 -150 108 q-16 16 -28 31l-87 105q-1 0 -21 -2v-131q1 -19 45 -20v-12h-88q-3 52 -3 62v308q0 12 3 62h95q63 0 86 -61q9 -26 9 -59q0 -67 -43 -103l73 -89q64 -79 116 -115q29 -19 66 -38zM185 453q72 4 90 48q9 23 9 61q0 86 -42 103q-14 5 -32 5h-25v-217zM528 195l2 3 q-101 52 -198 162l-72 90l-15 -10l74 -92q96 -112 209 -153zM576 287q-104 54 -114 170q-1 11 -1 22q0 115 95 178q3 1 5 3q-52 -63 -52 -175q0 -133 67 -198zM707 257q-133 0 -168 138q-10 42 -11 91q0 167 115 205q30 9 65 9q39 0 91 -19q2 -1 3 -1q27 -11 35 2l2 4l11 -4 l-30 -98l-11 4q6 43 -19 63q-28 21 -82 21q-132 -2 -132 -181q0 -154 84 -194q26 -11 57 -12q76 0 124 54q5 5 9 10l9 -22q-49 -69 -150 -69q-1 -1 -2 -1zM75 34v2h24v-2q-3 -1 -4 -3v-16q0 -3 1 -5q-11 -10 -29 -10q-28 0 -35 26q-2 7 -2 12q0 31 30 37q5 0 9 1q9 -1 16 -4 q3 1 4 2h2v-16l-2 1q-3 12 -20 12q-26 0 -27 -28l-1 -2q0 -32 23 -36q3 -1 6 -1q8 1 15 4v20q-1 5 -10 6zM193 33l19 -25q5 -5 11 -5v-2h-21q1 3 0 4l-18 25q-5 0 -10 -1v-23q2 -3 8 -3v-2h-25v2q5 1 7 3v63q-2 3 -7 4v2h27q23 -2 25 -19q-1 -14 -16 -23zM174 33q22 3 23 22 q-2 15 -16 16h-7v-38zM304 76l27 -70q2 -3 5 -3v-2h-21v2q4 1 5 2l-8 20h-24l-7 -20l3 -2h4v-2h-18v2q5 1 6 2l25 70zM289 29h22l-11 31zM418 75q22 0 25 -18v-3q0 -21 -26 -26q-4 -1 -9 -1v-21q2 -3 9 -3v-2h-26v2q6 1 7 3v63q-1 3 -7 4v2h27zM408 31q23 2 24 21 q-2 18 -17 19h-7v-40zM548 73v2h23v-2q-6 -1 -7 -4v-63q1 -3 7 -3v-2h-23v2q4 1 5 3v32h-36v-32q2 -3 6 -3v-2h-23v2q5 1 7 3v63q-2 3 -7 4v2h23v-2q-5 -1 -6 -4v-27h36v27q-1 3 -5 4zM630 73v2h23v-2q-5 -1 -6 -3v-64q1 -3 6 -3v-2h-23v2q5 1 6 3v64q-1 2 -6 3zM751 4 q14 1 21 10l2 -3q-9 -11 -25 -11q-30 0 -37 27q-1 6 -1 11q0 29 28 36q6 1 11 2q7 -1 14 -3q5 -1 6 0h2l-5 -16l-1 1q0 8 -4 10q-5 3 -13 3q-24 0 -26 -26q-1 -3 -1 -5q0 -30 23 -35q3 -1 6 -1zM859 44q18 -12 18 -23q-5 -18 -24 -21q-7 0 -15 4q-5 1 -7 -1l-1 1l5 18l2 -1 q1 -14 15 -17q14 1 15 13q-1 11 -21 22q-13 9 -13 18q1 18 21 19q5 0 11 -3q5 0 6 1h2l-5 -15l-1 1q0 11 -13 11q-11 -1 -12 -10q0 -7 13 -15q3 -1 4 -2z" glyph-name="Idieresis" unicode="Ï"/>
<glyph d="M32 695h86q3 -52 3 -62v-308q0 -13 -3 -62h-86v12q39 3 43 20v367q-3 19 -43 20v13zM544 230q178 -88 335 -35v-13q-82 -44 -222 -39q-111 4 -186 41q-81 40 -150 108q-16 16 -28 31l-87 105q-1 0 -21 -2v-131q1 -19 45 -20v-12h-88q-3 52 -3 62v308q0 12 3 62h95 q63 0 86 -61q9 -26 9 -59q0 -67 -43 -103l73 -89q64 -79 116 -115q29 -19 66 -38zM185 453q72 4 90 48q9 23 9 61q0 86 -42 103q-14 5 -32 5h-25v-217zM528 195l2 3q-101 52 -198 162l-72 90l-15 -10l74 -92q96 -112 209 -153zM350 576q0 78 -42 112q77 -21 89 -82 q2 -10 2 -20q0 -60 -53 -100q-15 -11 -28 -16q32 42 32 106zM707 257q-133 0 -168 138q-10 42 -11 91q0 167 115 205q30 9 65 9q39 0 91 -19q2 -1 3 -1q27 -11 35 2l2 4l11 -4l-30 -98l-11 4q6 43 -19 63q-28 21 -82 21q-132 -2 -132 -181q0 -154 84 -194q26 -11 57 -12 q76 0 124 54q5 5 9 10l9 -22q-49 -69 -150 -69q-1 -1 -2 -1zM576 287q-104 54 -114 170q-1 11 -1 22q0 115 95 178q3 1 5 3q-52 -63 -52 -175q0 -133 67 -198zM75 34v2h24v-2q-3 -1 -4 -3v-16q0 -3 1 -5q-11 -10 -29 -10q-28 0 -35 26q-2 7 -2 12q0 31 30 37q5 0 9 1 q9 -1 16 -4q3 1 4 2h2v-16l-2 1q-3 12 -20 12q-26 -2 -28 -30q0 -32 23 -36q3 -1 6 -1q8 1 15 4v20q-1 5 -10 6zM193 33l19 -25q5 -5 11 -5v-2h-21q1 3 0 4l-18 25q-5 0 -10 -1v-23q2 -3 8 -3v-2h-25v2q5 1 7 3v63q-2 3 -7 4v2h27q23 -2 25 -19q-1 -14 -16 -23zM174 33 q22 3 23 22q-2 15 -16 16h-7v-38zM304 76l27 -70q2 -3 5 -3v-2h-21v2q4 1 5 2l-8 20h-24l-7 -20l3 -2h4v-2h-18v2q5 1 6 2l25 70zM289 29h22l-11 31zM418 75q22 0 25 -18v-3q0 -21 -26 -26q-4 -1 -9 -1v-21q2 -3 9 -3v-2h-26v2q6 1 7 3v63q-1 3 -7 4v2h27zM408 31 q23 2 24 21q-2 18 -17 19h-7v-40zM548 73v2h23v-2q-6 -1 -7 -4v-63q1 -3 7 -3v-2h-23v2q4 1 5 3v32h-36v-32q2 -3 6 -3v-2h-23v2q5 1 7 3v63q-2 3 -7 4v2h23v-2q-5 -1 -6 -4v-27h36v27q-1 3 -5 4zM630 73v2h23v-2q-5 -1 -6 -3v-64q1 -3 6 -3v-2h-23v2q5 1 6 3v64q-1 2 -6 3z M751 4q14 1 21 10l2 -3q-9 -11 -25 -11q-30 0 -37 27q-1 6 -1 11q0 29 28 36q6 1 11 2q7 -1 14 -3q5 -1 6 0h2l-5 -16l-1 1q0 8 -4 10q-5 3 -13 3q-24 0 -26 -26q-1 -3 -1 -5q0 -30 23 -35q3 -1 6 -1zM859 44q18 -12 18 -23q-5 -18 -24 -21q-7 0 -15 4q-5 1 -7 -1l-1 1l5 18 l2 -1q1 -14 15 -17q14 1 15 13q-1 11 -21 22q-13 9 -13 18q1 18 21 19q5 0 11 -3q5 0 6 1h2l-5 -15l-1 1q0 11 -13 11q-11 -1 -12 -10q0 -7 13 -15q3 -1 4 -2z" glyph-name="Ntilde" unicode="Ñ"/>
<glyph d="M350 576q0 78 -42 112q77 -21 89 -82q2 -10 2 -20q0 -60 -53 -100q-15 -11 -28 -16q32 42 32 106zM544 230q178 -88 335 -35v-13q-82 -44 -222 -39q-111 4 -186 41q-81 40 -150 108q-16 16 -28 31l-87 105q-1 0 -21 -2v-131q1 -19 45 -20v-12h-88q-3 52 -3 62v308 q0 12 3 62h95q63 0 86 -61q9 -26 9 -59q0 -67 -43 -103l73 -89q64 -79 116 -115q29 -19 66 -38zM185 453q72 4 90 48q9 23 9 61q0 86 -42 103q-14 5 -32 5h-25v-217zM528 195l2 3q-101 52 -198 162l-72 90l-15 -10l74 -92q96 -112 209 -153zM32 695h86q3 -52 3 -62v-308 q0 -13 -3 -62h-86v12q39 3 43 20v367q-3 19 -43 20v13zM576 287q-104 54 -114 170q-1 11 -1 22q0 115 95 178q3 1 5 3q-52 -63 -52 -175q0 -133 67 -198zM707 257q-133 0 -168 138q-10 42 -11 91q0 167 115 205q30 9 65 9q39 0 91 -19q2 -1 3 -1q27 -11 35 2l2 4l11 -4 l-30 -98l-11 4q6 43 -19 63q-28 21 -82 21q-132 -2 -132 -181q0 -154 84 -194q26 -11 57 -12q76 0 124 54q5 5 9 10l9 -22q-49 -69 -150 -69q-1 -1 -2 -1zM75 34v2h24v-2q-3 -1 -4 -3v-16q0 -3 1 -5q-11 -10 -29 -10q-28 0 -35 26q-2 7 -2 12q0 31 30 37q5 0 9 1q9 -1 16 -4 q3 1 4 2h2v-16l-2 1q-3 12 -20 12q-26 0 -27 -28l-1 -2q0 -32 23 -36q3 -1 6 -1q8 1 15 4v20q-1 5 -10 6zM193 33l19 -25q5 -5 11 -5v-2h-21q1 3 0 4l-18 25q-5 0 -10 -1v-23q2 -3 8 -3v-2h-25v2q5 1 7 3v63q-2 3 -7 4v2h27q23 -2 25 -19q-1 -14 -16 -23zM174 33q22 3 23 22 q-2 15 -16 16h-7v-38zM304 76l27 -70q2 -3 5 -3v-2h-21v2q4 1 5 2l-8 20h-24l-7 -20l3 -2h4v-2h-18v2q5 1 6 2l25 70zM289 29h22l-11 31zM418 75q22 0 25 -18v-3q0 -21 -26 -26q-4 -1 -9 -1v-21q2 -3 9 -3v-2h-26v2q6 1 7 3v63q-1 3 -7 4v2h27zM408 31q23 2 24 21 q-2 18 -17 19h-7v-40zM548 73v2h23v-2q-6 -1 -7 -4v-63q1 -3 7 -3v-2h-23v2q4 1 5 3v32h-36v-32q2 -3 6 -3v-2h-23v2q5 1 7 3v63q-2 3 -7 4v2h23v-2q-5 -1 -6 -4v-27h36v27q-1 3 -5 4zM630 73v2h23v-2q-5 -1 -6 -3v-64q1 -3 6 -3v-2h-23v2q5 1 6 3v64q-1 2 -6 3zM751 4 q14 1 21 10l2 -3q-9 -11 -25 -11q-30 0 -37 27q-1 6 -1 11q0 29 28 36q6 1 11 2q7 -1 14 -3q5 -1 6 0h2l-5 -16l-1 1q0 8 -4 10q-5 3 -13 3q-24 0 -26 -26q-1 -3 -1 -5q0 -30 23 -35q3 -1 6 -1zM859 44q18 -12 18 -23q-5 -18 -24 -21q-7 0 -15 4q-5 1 -7 -1l-1 1l5 18l2 -1 q1 -14 15 -17q14 1 15 13q-1 11 -21 22q-13 9 -13 18q1 18 21 19q5 0 11 -3q5 0 6 1h2l-5 -15l-1 1q0 11 -13 11q-11 -1 -12 -10q0 -7 13 -15q3 -1 4 -2z" glyph-name="Ograve" unicode="Ò"/>
<glyph d="M544 230q178 -88 335 -35v-13q-82 -44 -222 -39q-111 4 -186 41q-81 40 -150 108q-16 16 -28 31l-87 105q-1 0 -21 -2v-131q1 -19 45 -20v-12h-88q-3 52 -3 62v308q0 12 3 62h95q63 0 86 -61q9 -26 9 -59q0 -67 -43 -103l73 -89q64 -79 116 -115q29 -19 66 -38zM185 453 q72 4 90 48q9 23 9 61q0 86 -42 103q-14 5 -32 5h-25v-217zM528 195l2 3q-101 52 -198 162l-72 90l-15 -10l74 -92q96 -112 209 -153zM32 695h86q3 -52 3 -62v-308q0 -13 -3 -62h-86v12q39 3 43 20v367q-3 19 -43 20v13zM350 576q0 78 -42 112q77 -21 89 -82q2 -10 2 -20 q0 -60 -53 -100q-15 -11 -28 -16q32 42 32 106zM576 287q-104 54 -114 170q-1 11 -1 22q0 115 95 178q3 1 5 3q-52 -63 -52 -175q0 -133 67 -198zM707 257q-133 0 -168 138q-10 42 -11 91q0 167 115 205q30 9 65 9q39 0 91 -19q2 -1 3 -1q27 -11 35 2l2 4l11 -4l-30 -98 l-11 4q6 43 -19 63q-28 21 -82 21q-132 -2 -132 -181q0 -154 84 -194q26 -11 57 -12q76 0 124 54q5 5 9 10l9 -22q-49 -69 -150 -69q-1 -1 -2 -1zM75 34v2h24v-2q-3 -1 -4 -3v-16q0 -3 1 -5q-11 -10 -29 -10q-28 0 -35 26q-2 7 -2 12q0 31 30 37q5 0 9 1q9 -1 16 -4q3 1 4 2 h2v-16l-2 1q-3 12 -20 12q-26 0 -27 -28l-1 -2q0 -32 23 -36q3 -1 6 -1q8 1 15 4v20q-1 5 -10 6zM193 33l19 -25q5 -5 11 -5v-2h-21q1 3 0 4l-18 25q-5 0 -10 -1v-23q2 -3 8 -3v-2h-25v2q5 1 7 3v63q-2 3 -7 4v2h27q23 -2 25 -19q-1 -14 -16 -23zM174 33q22 3 23 22 q-2 15 -16 16h-7v-38zM304 76l27 -70q2 -3 5 -3v-2h-21v2q4 1 5 2l-8 20h-24l-7 -20l3 -2h4v-2h-18v2q5 1 6 2l25 70zM289 29h22l-11 31zM418 75q22 0 25 -18v-3q0 -21 -26 -26q-4 -1 -9 -1v-21q2 -3 9 -3v-2h-26v2q6 1 7 3v63q-1 3 -7 4v2h27zM408 31q23 2 24 21 q-2 18 -17 19h-7v-40zM548 73v2h23v-2q-6 -1 -7 -4v-63q1 -3 7 -3v-2h-23v2q4 1 5 3v32h-36v-32q2 -3 6 -3v-2h-23v2q5 1 7 3v63q-2 3 -7 4v2h23v-2q-5 -1 -6 -4v-27h36v27q-1 3 -5 4zM630 73v2h23v-2q-5 -1 -6 -3v-64q1 -3 6 -3v-2h-23v2q5 1 6 3v64q-1 2 -6 3zM751 4 q14 1 21 10l2 -3q-9 -11 -25 -11q-30 0 -37 27q-1 6 -1 11q0 29 28 36q6 1 11 2q7 -1 14 -3q5 -1 6 0h2l-5 -16l-1 1q0 8 -4 10q-5 3 -13 3q-24 0 -26 -26q-1 -3 -1 -5q0 -30 23 -35q3 -1 6 -1zM859 44q18 -12 18 -23q-5 -18 -24 -21q-7 0 -15 4q-5 1 -7 -1l-1 1l5 18l2 -1 q1 -14 15 -17q14 1 15 13q-1 11 -21 22q-13 9 -13 18q1 18 21 19q5 0 11 -3q5 0 6 1h2l-5 -15l-1 1q0 11 -13 11q-11 -1 -12 -10q0 -7 13 -15q3 -1 4 -2z" glyph-name="Oacute" unicode="Ó"/>
<glyph d="M544 230q178 -88 335 -35v-13q-82 -44 -222 -39q-111 4 -186 41q-81 40 -150 108q-16 16 -28 31l-87 105q-1 0 -21 -2v-131q1 -19 45 -20v-12h-88q-3 52 -3 62v308q0 12 3 62h95q63 0 86 -61q9 -26 9 -59q0 -67 -43 -103l73 -89q64 -79 116 -115q29 -19 66 -38zM185 453 q72 4 90 48q9 23 9 61q0 86 -42 103q-14 5 -32 5h-25v-217zM528 195l2 3q-101 52 -198 162l-72 90l-15 -10l74 -92q96 -112 209 -153zM350 576q0 78 -42 112q77 -21 89 -82q2 -10 2 -20q0 -60 -53 -100q-15 -11 -28 -16q32 42 32 106zM32 695h86q3 -52 3 -62v-308 q0 -13 -3 -62h-86v12q39 3 43 20v367q-3 19 -43 20v13zM707 257q-133 0 -168 138q-10 42 -11 91q0 167 115 205q30 9 65 9q39 0 91 -19q2 -1 3 -1q27 -11 35 2l2 4l11 -4l-30 -98l-11 4q6 43 -19 63q-28 21 -82 21q-132 -2 -132 -181q0 -154 84 -194q26 -11 57 -12 q76 0 124 54q5 5 9 10l9 -22q-49 -69 -150 -69q-1 -1 -2 -1zM576 287q-104 54 -114 170q-1 11 -1 22q0 115 95 178q3 1 5 3q-52 -63 -52 -175q0 -133 67 -198zM75 34v2h24v-2q-3 -1 -4 -3v-16q0 -3 1 -5q-11 -10 -29 -10q-28 0 -35 26q-2 7 -2 12q0 31 30 37q5 0 9 1 q9 -1 16 -4q3 1 4 2h2v-16l-2 1q-3 12 -20 12q-26 -2 -28 -30q0 -32 23 -36q3 -1 6 -1q8 1 15 4v20q-1 5 -10 6zM193 33l19 -25q5 -5 11 -5v-2h-21q1 3 0 4l-18 25q-5 0 -10 -1v-23q2 -3 8 -3v-2h-25v2q5 1 7 3v63q-2 3 -7 4v2h27q23 -2 25 -19q-1 -14 -16 -23zM174 33 q22 3 23 22q-2 15 -16 16h-7v-38zM304 76l27 -70q2 -3 5 -3v-2h-21v2q4 1 5 2l-8 20h-24l-7 -20l3 -2h4v-2h-18v2q5 1 6 2l25 70zM289 29h22l-11 31zM418 75q22 0 25 -18v-3q0 -21 -26 -26q-4 -1 -9 -1v-21q2 -3 9 -3v-2h-26v2q6 1 7 3v63q-1 3 -7 4v2h27zM408 31 q23 2 24 21q-2 18 -17 19h-7v-40zM548 73v2h23v-2q-6 -1 -7 -4v-63q1 -3 7 -3v-2h-23v2q4 1 5 3v32h-36v-32q2 -3 6 -3v-2h-23v2q5 1 7 3v63q-2 3 -7 4v2h23v-2q-5 -1 -6 -4v-27h36v27q-1 3 -5 4zM630 73v2h23v-2q-5 -1 -6 -3v-64q1 -3 6 -3v-2h-23v2q5 1 6 3v64q-1 2 -6 3z M751 4q14 1 21 10l2 -3q-9 -11 -25 -11q-30 0 -37 27q-1 6 -1 11q0 29 28 36q6 1 11 2q7 -1 14 -3q5 -1 6 0h2l-5 -16l-1 1q0 8 -4 10q-5 3 -13 3q-24 0 -26 -26q-1 -3 -1 -5q0 -30 23 -35q3 -1 6 -1zM859 44q18 -12 18 -23q-5 -18 -24 -21q-7 0 -15 4q-5 1 -7 -1l-1 1l5 18 l2 -1q1 -14 15 -17q14 1 15 13q-1 11 -21 22q-13 9 -13 18q1 18 21 19q5 0 11 -3q5 0 6 1h2l-5 -15l-1 1q0 11 -13 11q-11 -1 -12 -10q0 -7 13 -15q3 -1 4 -2z" glyph-name="Ocircumflex" unicode="Ô"/>
<glyph d="M544 230q178 -88 335 -35v-13q-82 -44 -222 -39q-111 4 -186 41q-81 40 -150 108q-16 16 -28 31l-87 105q-1 0 -21 -2v-131q1 -19 45 -20v-12h-88q-3 52 -3 62v308q0 12 3 62h95q63 0 86 -61q9 -26 9 -59q0 -67 -43 -103l73 -89q64 -79 116 -115q29 -19 66 -38zM185 453 q72 4 90 48q9 23 9 61q0 86 -42 103q-14 5 -32 5h-25v-217zM528 195l2 3q-101 52 -198 162l-72 90l-15 -10l74 -92q96 -112 209 -153zM32 695h86q3 -52 3 -62v-308q0 -13 -3 -62h-86v12q39 3 43 20v367q-3 19 -43 20v13zM350 576q0 78 -42 112q77 -21 89 -82q2 -10 2 -20 q0 -60 -53 -100q-15 -11 -28 -16q32 42 32 106zM707 257q-133 0 -168 138q-10 42 -11 91q0 167 115 205q30 9 65 9q39 0 91 -19q2 -1 3 -1q27 -11 35 2l2 4l11 -4l-30 -98l-11 4q6 43 -19 63q-28 21 -82 21q-132 -2 -132 -181q0 -154 84 -194q26 -11 57 -12q76 0 124 54 q5 5 9 10l9 -22q-49 -69 -150 -69q-1 -1 -2 -1zM576 287q-104 54 -114 170q-1 11 -1 22q0 115 95 178q3 1 5 3q-52 -63 -52 -175q0 -133 67 -198zM75 34v2h24v-2q-3 -1 -4 -3v-16q0 -3 1 -5q-11 -10 -29 -10q-28 0 -35 26q-2 7 -2 12q0 31 30 37q5 0 9 1q9 -1 16 -4q3 1 4 2 h2v-16l-2 1q-3 12 -20 12q-26 0 -27 -28l-1 -2q0 -32 23 -36q3 -1 6 -1q8 1 15 4v20q-1 5 -10 6zM193 33l19 -25q5 -5 11 -5v-2h-21q1 3 0 4l-18 25q-5 0 -10 -1v-23q2 -3 8 -3v-2h-25v2q5 1 7 3v63q-2 3 -7 4v2h27q23 -2 25 -19q-1 -14 -16 -23zM174 33q22 3 23 22 q-2 15 -16 16h-7v-38zM304 76l27 -70q2 -3 5 -3v-2h-21v2q4 1 5 2l-8 20h-24l-7 -20l3 -2h4v-2h-18v2q5 1 6 2l25 70zM289 29h22l-11 31zM418 75q22 0 25 -18v-3q0 -21 -26 -26q-4 -1 -9 -1v-21q2 -3 9 -3v-2h-26v2q6 1 7 3v63q-1 3 -7 4v2h27zM408 31q23 2 24 21 q-2 18 -17 19h-7v-40zM548 73v2h23v-2q-6 -1 -7 -4v-63q1 -3 7 -3v-2h-23v2q4 1 5 3v32h-36v-32q2 -3 6 -3v-2h-23v2q5 1 7 3v63q-2 3 -7 4v2h23v-2q-5 -1 -6 -4v-27h36v27q-1 3 -5 4zM630 73v2h23v-2q-5 -1 -6 -3v-64q1 -3 6 -3v-2h-23v2q5 1 6 3v64q-1 2 -6 3zM751 4 q14 1 21 10l2 -3q-9 -11 -25 -11q-30 0 -37 27q-1 6 -1 11q0 29 28 36q6 1 11 2q7 -1 14 -3q5 -1 6 0h2l-5 -16l-1 1q0 8 -4 10q-5 3 -13 3q-24 0 -26 -26q-1 -3 -1 -5q0 -30 23 -35q3 -1 6 -1zM859 44q18 -12 18 -23q-5 -18 -24 -21q-7 0 -15 4q-5 1 -7 -1l-1 1l5 18l2 -1 q1 -14 15 -17q14 1 15 13q-1 11 -21 22q-13 9 -13 18q1 18 21 19q5 0 11 -3q5 0 6 1h2l-5 -15l-1 1q0 11 -13 11q-11 -1 -12 -10q0 -7 13 -15q3 -1 4 -2z" glyph-name="Otilde" unicode="Õ"/>
<glyph d="M350 576q0 78 -42 112q77 -21 89 -82q2 -10 2 -20q0 -60 -53 -100q-15 -11 -28 -16q32 42 32 106zM32 695h86q3 -52 3 -62v-308q0 -13 -3 -62h-86v12q39 3 43 20v367q-3 19 -43 20v13zM544 230q178 -88 335 -35v-13q-82 -44 -222 -39q-111 4 -186 41q-81 40 -150 108 q-16 16 -28 31l-87 105q-1 0 -21 -2v-131q1 -19 45 -20v-12h-88q-3 52 -3 62v308q0 12 3 62h95q63 0 86 -61q9 -26 9 -59q0 -67 -43 -103l73 -89q64 -79 116 -115q29 -19 66 -38zM185 453q72 4 90 48q9 23 9 61q0 86 -42 103q-14 5 -32 5h-25v-217zM528 195l2 3 q-101 52 -198 162l-72 90l-15 -10l74 -92q96 -112 209 -153zM707 257q-133 0 -168 138q-10 42 -11 91q0 167 115 205q30 9 65 9q39 0 91 -19q2 -1 3 -1q27 -11 35 2l2 4l11 -4l-30 -98l-11 4q6 43 -19 63q-28 21 -82 21q-132 -2 -132 -181q0 -154 84 -194q26 -11 57 -12 q76 0 124 54q5 5 9 10l9 -22q-49 -69 -150 -69q-1 -1 -2 -1zM576 287q-104 54 -114 170q-1 11 -1 22q0 115 95 178q3 1 5 3q-52 -63 -52 -175q0 -133 67 -198zM75 34v2h24v-2q-3 -1 -4 -3v-16q0 -3 1 -5q-11 -10 -29 -10q-28 0 -35 26q-2 7 -2 12q0 31 30 37q5 0 9 1 q9 -1 16 -4q3 1 4 2h2v-16l-2 1q-3 12 -20 12q-26 -2 -28 -30q0 -32 23 -36q3 -1 6 -1q8 1 15 4v20q-1 5 -10 6zM193 33l19 -25q5 -5 11 -5v-2h-21q1 3 0 4l-18 25q-5 0 -10 -1v-23q2 -3 8 -3v-2h-25v2q5 1 7 3v63q-2 3 -7 4v2h27q23 -2 25 -19q-1 -14 -16 -23zM174 33 q22 3 23 22q-2 15 -16 16h-7v-38zM304 76l27 -70q2 -3 5 -3v-2h-21v2q4 1 5 2l-8 20h-24l-7 -20l3 -2h4v-2h-18v2q5 1 6 2l25 70zM289 29h22l-11 31zM418 75q22 0 25 -18v-3q0 -21 -26 -26q-4 -1 -9 -1v-21q2 -3 9 -3v-2h-26v2q6 1 7 3v63q-1 3 -7 4v2h27zM408 31 q23 2 24 21q-2 18 -17 19h-7v-40zM548 73v2h23v-2q-6 -1 -7 -4v-63q1 -3 7 -3v-2h-23v2q4 1 5 3v32h-36v-32q2 -3 6 -3v-2h-23v2q5 1 7 3v63q-2 3 -7 4v2h23v-2q-5 -1 -6 -4v-27h36v27q-1 3 -5 4zM630 73v2h23v-2q-5 -1 -6 -3v-64q1 -3 6 -3v-2h-23v2q5 1 6 3v64q-1 2 -6 3z M751 4q14 1 21 10l2 -3q-9 -11 -25 -11q-30 0 -37 27q-1 6 -1 11q0 29 28 36q6 1 11 2q7 -1 14 -3q5 -1 6 0h2l-5 -16l-1 1q0 8 -4 10q-5 3 -13 3q-24 0 -26 -26q-1 -3 -1 -5q0 -30 23 -35q3 -1 6 -1zM859 44q18 -12 18 -23q-5 -18 -24 -21q-7 0 -15 4q-5 1 -7 -1l-1 1l5 18 l2 -1q1 -14 15 -17q14 1 15 13q-1 11 -21 22q-13 9 -13 18q1 18 21 19q5 0 11 -3q5 0 6 1h2l-5 -15l-1 1q0 11 -13 11q-11 -1 -12 -10q0 -7 13 -15q3 -1 4 -2z" glyph-name="Odieresis" unicode="Ö"/>
<glyph d="M544 230q178 -88 335 -35v-13q-82 -44 -222 -39q-111 4 -186 41q-81 40 -150 108q-16 16 -28 31l-87 105q-1 0 -21 -2v-131q1 -19 45 -20v-12h-88q-3 52 -3 62v308q0 12 3 62h95q63 0 86 -61q9 -26 9 -59q0 -67 -43 -103l73 -89q64 -79 116 -115q29 -19 66 -38zM185 453 q72 4 90 48q9 23 9 61q0 86 -42 103q-14 5 -32 5h-25v-217zM528 195l2 3q-101 52 -198 162l-72 90l-15 -10l74 -92q96 -112 209 -153zM32 695h86q3 -52 3 -62v-308q0 -13 -3 -62h-86v12q39 3 43 20v367q-3 19 -43 20v13zM350 576q0 78 -42 112q77 -21 89 -82q2 -10 2 -20 q0 -60 -53 -100q-15 -11 -28 -16q32 42 32 106zM707 257q-133 0 -168 138q-10 42 -11 91q0 167 115 205q30 9 65 9q39 0 91 -19q2 -1 3 -1q27 -11 35 2l2 4l11 -4l-30 -98l-11 4q6 43 -19 63q-28 21 -82 21q-132 -2 -132 -181q0 -154 84 -194q26 -11 57 -12q76 0 124 54 q5 5 9 10l9 -22q-49 -69 -150 -69q-1 -1 -2 -1zM576 287q-104 54 -114 170q-1 11 -1 22q0 115 95 178q3 1 5 3q-52 -63 -52 -175q0 -133 67 -198zM75 34v2h24v-2q-3 -1 -4 -3v-16q0 -3 1 -5q-11 -10 -29 -10q-28 0 -35 26q-2 7 -2 12q0 31 30 37q5 0 9 1q9 -1 16 -4q3 1 4 2 h2v-16l-2 1q-3 12 -20 12q-26 0 -27 -28l-1 -2q0 -32 23 -36q3 -1 6 -1q8 1 15 4v20q-1 5 -10 6zM193 33l19 -25q5 -5 11 -5v-2h-21q1 3 0 4l-18 25q-5 0 -10 -1v-23q2 -3 8 -3v-2h-25v2q5 1 7 3v63q-2 3 -7 4v2h27q23 -2 25 -19q-1 -14 -16 -23zM174 33q22 3 23 22 q-2 15 -16 16h-7v-38zM304 76l27 -70q2 -3 5 -3v-2h-21v2q4 1 5 2l-8 20h-24l-7 -20l3 -2h4v-2h-18v2q5 1 6 2l25 70zM289 29h22l-11 31zM418 75q22 0 25 -18v-3q0 -21 -26 -26q-4 -1 -9 -1v-21q2 -3 9 -3v-2h-26v2q6 1 7 3v63q-1 3 -7 4v2h27zM408 31q23 2 24 21 q-2 18 -17 19h-7v-40zM548 73v2h23v-2q-6 -1 -7 -4v-63q1 -3 7 -3v-2h-23v2q4 1 5 3v32h-36v-32q2 -3 6 -3v-2h-23v2q5 1 7 3v63q-2 3 -7 4v2h23v-2q-5 -1 -6 -4v-27h36v27q-1 3 -5 4zM630 73v2h23v-2q-5 -1 -6 -3v-64q1 -3 6 -3v-2h-23v2q5 1 6 3v64q-1 2 -6 3zM751 4 q14 1 21 10l2 -3q-9 -11 -25 -11q-30 0 -37 27q-1 6 -1 11q0 29 28 36q6 1 11 2q7 -1 14 -3q5 -1 6 0h2l-5 -16l-1 1q0 8 -4 10q-5 3 -13 3q-24 0 -26 -26q-1 -3 -1 -5q0 -30 23 -35q3 -1 6 -1zM859 44q18 -12 18 -23q-5 -18 -24 -21q-7 0 -15 4q-5 1 -7 -1l-1 1l5 18l2 -1 q1 -14 15 -17q14 1 15 13q-1 11 -21 22q-13 9 -13 18q1 18 21 19q5 0 11 -3q5 0 6 1h2l-5 -15l-1 1q0 11 -13 11q-11 -1 -12 -10q0 -7 13 -15q3 -1 4 -2z" glyph-name="Oslash" unicode="Ø"/>
<glyph d="M544 230q178 -88 335 -35v-13q-82 -44 -222 -39q-111 4 -186 41q-81 40 -150 108q-16 16 -28 31l-87 105q-1 0 -21 -2v-131q1 -19 45 -20v-12h-88q-3 52 -3 62v308q0 12 3 62h95q63 0 86 -61q9 -26 9 -59q0 -67 -43 -103l73 -89q64 -79 116 -115q29 -19 66 -38zM185 453 q72 4 90 48q9 23 9 61q0 86 -42 103q-14 5 -32 5h-25v-217zM528 195l2 3q-101 52 -198 162l-72 90l-15 -10l74 -92q96 -112 209 -153zM32 695h86q3 -52 3 -62v-308q0 -13 -3 -62h-86v12q39 3 43 20v367q-3 19 -43 20v13zM350 576q0 78 -42 112q77 -21 89 -82q2 -10 2 -20 q0 -60 -53 -100q-15 -11 -28 -16q32 42 32 106zM576 287q-104 54 -114 170q-1 11 -1 22q0 115 95 178q3 1 5 3q-52 -63 -52 -175q0 -133 67 -198zM707 257q-133 0 -168 138q-10 42 -11 91q0 167 115 205q30 9 65 9q39 0 91 -19q2 -1 3 -1q27 -11 35 2l2 4l11 -4l-30 -98 l-11 4q6 43 -19 63q-28 21 -82 21q-132 -2 -132 -181q0 -154 84 -194q26 -11 57 -12q76 0 124 54q5 5 9 10l9 -22q-49 -69 -150 -69q-1 -1 -2 -1zM75 34v2h24v-2q-3 -1 -4 -3v-16q0 -3 1 -5q-11 -10 -29 -10q-28 0 -35 26q-2 7 -2 12q0 31 30 37q5 0 9 1q9 -1 16 -4q3 1 4 2 h2v-16l-2 1q-3 12 -20 12q-26 0 -27 -28l-1 -2q0 -32 23 -36q3 -1 6 -1q8 1 15 4v20q-1 5 -10 6zM193 33l19 -25q5 -5 11 -5v-2h-21q1 3 0 4l-18 25q-5 0 -10 -1v-23q2 -3 8 -3v-2h-25v2q5 1 7 3v63q-2 3 -7 4v2h27q23 -2 25 -19q-1 -14 -16 -23zM174 33q22 3 23 22 q-2 15 -16 16h-7v-38zM304 76l27 -70q2 -3 5 -3v-2h-21v2q4 1 5 2l-8 20h-24l-7 -20l3 -2h4v-2h-18v2q5 1 6 2l25 70zM289 29h22l-11 31zM418 75q22 0 25 -18v-3q0 -21 -26 -26q-4 -1 -9 -1v-21q2 -3 9 -3v-2h-26v2q6 1 7 3v63q-1 3 -7 4v2h27zM408 31q23 2 24 21 q-2 18 -17 19h-7v-40zM548 73v2h23v-2q-6 -1 -7 -4v-63q1 -3 7 -3v-2h-23v2q4 1 5 3v32h-36v-32q2 -3 6 -3v-2h-23v2q5 1 7 3v63q-2 3 -7 4v2h23v-2q-5 -1 -6 -4v-27h36v27q-1 3 -5 4zM630 73v2h23v-2q-5 -1 -6 -3v-64q1 -3 6 -3v-2h-23v2q5 1 6 3v64q-1 2 -6 3zM751 4 q14 1 21 10l2 -3q-9 -11 -25 -11q-30 0 -37 27q-1 6 -1 11q0 29 28 36q6 1 11 2q7 -1 14 -3q5 -1 6 0h2l-5 -16l-1 1q0 8 -4 10q-5 3 -13 3q-24 0 -26 -26q-1 -3 -1 -5q0 -30 23 -35q3 -1 6 -1zM859 44q18 -12 18 -23q-5 -18 -24 -21q-7 0 -15 4q-5 1 -7 -1l-1 1l5 18l2 -1 q1 -14 15 -17q14 1 15 13q-1 11 -21 22q-13 9 -13 18q1 18 21 19q5 0 11 -3q5 0 6 1h2l-5 -15l-1 1q0 11 -13 11q-11 -1 -12 -10q0 -7 13 -15q3 -1 4 -2z" glyph-name="Ugrave" unicode="Ù"/>
<glyph d="M32 695h86q3 -52 3 -62v-308q0 -13 -3 -62h-86v12q39 3 43 20v367q-3 19 -43 20v13zM544 230q178 -88 335 -35v-13q-82 -44 -222 -39q-111 4 -186 41q-81 40 -150 108q-16 16 -28 31l-87 105q-1 0 -21 -2v-131q1 -19 45 -20v-12h-88q-3 52 -3 62v308q0 12 3 62h95 q63 0 86 -61q9 -26 9 -59q0 -67 -43 -103l73 -89q64 -79 116 -115q29 -19 66 -38zM185 453q72 4 90 48q9 23 9 61q0 86 -42 103q-14 5 -32 5h-25v-217zM528 195l2 3q-101 52 -198 162l-72 90l-15 -10l74 -92q96 -112 209 -153zM350 576q0 78 -42 112q77 -21 89 -82 q2 -10 2 -20q0 -60 -53 -100q-15 -11 -28 -16q32 42 32 106zM576 287q-104 54 -114 170q-1 11 -1 22q0 115 95 178q3 1 5 3q-52 -63 -52 -175q0 -133 67 -198zM707 257q-133 0 -168 138q-10 42 -11 91q0 167 115 205q30 9 65 9q39 0 91 -19q2 -1 3 -1q27 -11 35 2l2 4l11 -4 l-30 -98l-11 4q6 43 -19 63q-28 21 -82 21q-132 -2 -132 -181q0 -154 84 -194q26 -11 57 -12q76 0 124 54q5 5 9 10l9 -22q-49 -69 -150 -69q-1 -1 -2 -1zM75 34v2h24v-2q-3 -1 -4 -3v-16q0 -3 1 -5q-11 -10 -29 -10q-28 0 -35 26q-2 7 -2 12q0 31 30 37q5 0 9 1q9 -1 16 -4 q3 1 4 2h2v-16l-2 1q-3 12 -20 12q-26 0 -27 -28l-1 -2q0 -32 23 -36q3 -1 6 -1q8 1 15 4v20q-1 5 -10 6zM193 33l19 -25q5 -5 11 -5v-2h-21q1 3 0 4l-18 25q-5 0 -10 -1v-23q2 -3 8 -3v-2h-25v2q5 1 7 3v63q-2 3 -7 4v2h27q23 -2 25 -19q-1 -14 -16 -23zM174 33q22 3 23 22 q-2 15 -16 16h-7v-38zM304 76l27 -70q2 -3 5 -3v-2h-21v2q4 1 5 2l-8 20h-24l-7 -20l3 -2h4v-2h-18v2q5 1 6 2l25 70zM289 29h22l-11 31zM418 75q22 0 25 -18v-3q0 -21 -26 -26q-4 -1 -9 -1v-21q2 -3 9 -3v-2h-26v2q6 1 7 3v63q-1 3 -7 4v2h27zM408 31q23 2 24 21 q-2 18 -17 19h-7v-40zM548 73v2h23v-2q-6 -1 -7 -4v-63q1 -3 7 -3v-2h-23v2q4 1 5 3v32h-36v-32q2 -3 6 -3v-2h-23v2q5 1 7 3v63q-2 3 -7 4v2h23v-2q-5 -1 -6 -4v-27h36v27q-1 3 -5 4zM630 73v2h23v-2q-5 -1 -6 -3v-64q1 -3 6 -3v-2h-23v2q5 1 6 3v64q-1 2 -6 3zM751 4 q14 1 21 10l2 -3q-9 -11 -25 -11q-30 0 -37 27q-1 6 -1 11q0 29 28 36q6 1 11 2q7 -1 14 -3q5 -1 6 0h2l-5 -16l-1 1q0 8 -4 10q-5 3 -13 3q-24 0 -26 -26q-1 -3 -1 -5q0 -30 23 -35q3 -1 6 -1zM859 44q18 -12 18 -23q-5 -18 -24 -21q-7 0 -15 4q-5 1 -7 -1l-1 1l5 18l2 -1 q1 -14 15 -17q14 1 15 13q-1 11 -21 22q-13 9 -13 18q1 18 21 19q5 0 11 -3q5 0 6 1h2l-5 -15l-1 1q0 11 -13 11q-11 -1 -12 -10q0 -7 13 -15q3 -1 4 -2z" glyph-name="Uacute" unicode="Ú"/>
<glyph d="M32 695h86q3 -52 3 -62v-308q0 -13 -3 -62h-86v12q39 3 43 20v367q-3 19 -43 20v13zM350 576q0 78 -42 112q77 -21 89 -82q2 -10 2 -20q0 -60 -53 -100q-15 -11 -28 -16q32 42 32 106zM544 230q178 -88 335 -35v-13q-82 -44 -222 -39q-111 4 -186 41q-81 40 -150 108 q-16 16 -28 31l-87 105q-1 0 -21 -2v-131q1 -19 45 -20v-12h-88q-3 52 -3 62v308q0 12 3 62h95q63 0 86 -61q9 -26 9 -59q0 -67 -43 -103l73 -89q64 -79 116 -115q29 -19 66 -38zM185 453q72 4 90 48q9 23 9 61q0 86 -42 103q-14 5 -32 5h-25v-217zM528 195l2 3 q-101 52 -198 162l-72 90l-15 -10l74 -92q96 -112 209 -153zM707 257q-133 0 -168 138q-10 42 -11 91q0 167 115 205q30 9 65 9q39 0 91 -19q2 -1 3 -1q27 -11 35 2l2 4l11 -4l-30 -98l-11 4q6 43 -19 63q-28 21 -82 21q-132 -2 -132 -181q0 -154 84 -194q26 -11 57 -12 q76 0 124 54q5 5 9 10l9 -22q-49 -69 -150 -69q-1 -1 -2 -1zM576 287q-104 54 -114 170q-1 11 -1 22q0 115 95 178q3 1 5 3q-52 -63 -52 -175q0 -133 67 -198zM75 34v2h24v-2q-3 -1 -4 -3v-16q0 -3 1 -5q-11 -10 -29 -10q-28 0 -35 26q-2 7 -2 12q0 31 30 37q5 0 9 1 q9 -1 16 -4q3 1 4 2h2v-16l-2 1q-3 12 -20 12q-26 -2 -28 -30q0 -32 23 -36q3 -1 6 -1q8 1 15 4v20q-1 5 -10 6zM193 33l19 -25q5 -5 11 -5v-2h-21q1 3 0 4l-18 25q-5 0 -10 -1v-23q2 -3 8 -3v-2h-25v2q5 1 7 3v63q-2 3 -7 4v2h27q23 -2 25 -19q-1 -14 -16 -23zM174 33 q22 3 23 22q-2 15 -16 16h-7v-38zM304 76l27 -70q2 -3 5 -3v-2h-21v2q4 1 5 2l-8 20h-24l-7 -20l3 -2h4v-2h-18v2q5 1 6 2l25 70zM289 29h22l-11 31zM418 75q22 0 25 -18v-3q0 -21 -26 -26q-4 -1 -9 -1v-21q2 -3 9 -3v-2h-26v2q6 1 7 3v63q-1 3 -7 4v2h27zM408 31 q23 2 24 21q-2 18 -17 19h-7v-40zM548 73v2h23v-2q-6 -1 -7 -4v-63q1 -3 7 -3v-2h-23v2q4 1 5 3v32h-36v-32q2 -3 6 -3v-2h-23v2q5 1 7 3v63q-2 3 -7 4v2h23v-2q-5 -1 -6 -4v-27h36v27q-1 3 -5 4zM630 73v2h23v-2q-5 -1 -6 -3v-64q1 -3 6 -3v-2h-23v2q5 1 6 3v64q-1 2 -6 3z M751 4q14 1 21 10l2 -3q-9 -11 -25 -11q-30 0 -37 27q-1 6 -1 11q0 29 28 36q6 1 11 2q7 -1 14 -3q5 -1 6 0h2l-5 -16l-1 1q0 8 -4 10q-5 3 -13 3q-24 0 -26 -26q-1 -3 -1 -5q0 -30 23 -35q3 -1 6 -1zM859 44q18 -12 18 -23q-5 -18 -24 -21q-7 0 -15 4q-5 1 -7 -1l-1 1l5 18 l2 -1q1 -14 15 -17q14 1 15 13q-1 11 -21 22q-13 9 -13 18q1 18 21 19q5 0 11 -3q5 0 6 1h2l-5 -15l-1 1q0 11 -13 11q-11 -1 -12 -10q0 -7 13 -15q3 -1 4 -2z" glyph-name="Ucircumflex" unicode="Û"/>
<glyph d="M350 576q0 78 -42 112q77 -21 89 -82q2 -10 2 -20q0 -60 -53 -100q-15 -11 -28 -16q32 42 32 106zM32 695h86q3 -52 3 -62v-308q0 -13 -3 -62h-86v12q39 3 43 20v367q-3 19 -43 20v13zM544 230q178 -88 335 -35v-13q-82 -44 -222 -39q-111 4 -186 41q-81 40 -150 108 q-16 16 -28 31l-87 105q-1 0 -21 -2v-131q1 -19 45 -20v-12h-88q-3 52 -3 62v308q0 12 3 62h95q63 0 86 -61q9 -26 9 -59q0 -67 -43 -103l73 -89q64 -79 116 -115q29 -19 66 -38zM185 453q72 4 90 48q9 23 9 61q0 86 -42 103q-14 5 -32 5h-25v-217zM528 195l2 3 q-101 52 -198 162l-72 90l-15 -10l74 -92q96 -112 209 -153zM707 257q-133 0 -168 138q-10 42 -11 91q0 167 115 205q30 9 65 9q39 0 91 -19q2 -1 3 -1q27 -11 35 2l2 4l11 -4l-30 -98l-11 4q6 43 -19 63q-28 21 -82 21q-132 -2 -132 -181q0 -154 84 -194q26 -11 57 -12 q76 0 124 54q5 5 9 10l9 -22q-49 -69 -150 -69q-1 -1 -2 -1zM576 287q-104 54 -114 170q-1 11 -1 22q0 115 95 178q3 1 5 3q-52 -63 -52 -175q0 -133 67 -198zM75 34v2h24v-2q-3 -1 -4 -3v-16q0 -3 1 -5q-11 -10 -29 -10q-28 0 -35 26q-2 7 -2 12q0 31 30 37q5 0 9 1 q9 -1 16 -4q3 1 4 2h2v-16l-2 1q-3 12 -20 12q-26 -2 -28 -30q0 -32 23 -36q3 -1 6 -1q8 1 15 4v20q-1 5 -10 6zM193 33l19 -25q5 -5 11 -5v-2h-21q1 3 0 4l-18 25q-5 0 -10 -1v-23q2 -3 8 -3v-2h-25v2q5 1 7 3v63q-2 3 -7 4v2h27q23 -2 25 -19q-1 -14 -16 -23zM174 33 q22 3 23 22q-2 15 -16 16h-7v-38zM304 76l27 -70q2 -3 5 -3v-2h-21v2q4 1 5 2l-8 20h-24l-7 -20l3 -2h4v-2h-18v2q5 1 6 2l25 70zM289 29h22l-11 31zM418 75q22 0 25 -18v-3q0 -21 -26 -26q-4 -1 -9 -1v-21q2 -3 9 -3v-2h-26v2q6 1 7 3v63q-1 3 -7 4v2h27zM408 31 q23 2 24 21q-2 18 -17 19h-7v-40zM548 73v2h23v-2q-6 -1 -7 -4v-63q1 -3 7 -3v-2h-23v2q4 1 5 3v32h-36v-32q2 -3 6 -3v-2h-23v2q5 1 7 3v63q-2 3 -7 4v2h23v-2q-5 -1 -6 -4v-27h36v27q-1 3 -5 4zM630 73v2h23v-2q-5 -1 -6 -3v-64q1 -3 6 -3v-2h-23v2q5 1 6 3v64q-1 2 -6 3z M751 4q14 1 21 10l2 -3q-9 -11 -25 -11q-30 0 -37 27q-1 6 -1 11q0 29 28 36q6 1 11 2q7 -1 14 -3q5 -1 6 0h2l-5 -16l-1 1q0 8 -4 10q-5 3 -13 3q-24 0 -26 -26q-1 -3 -1 -5q0 -30 23 -35q3 -1 6 -1zM859 44q18 -12 18 -23q-5 -18 -24 -21q-7 0 -15 4q-5 1 -7 -1l-1 1l5 18 l2 -1q1 -14 15 -17q14 1 15 13q-1 11 -21 22q-13 9 -13 18q1 18 21 19q5 0 11 -3q5 0 6 1h2l-5 -15l-1 1q0 11 -13 11q-11 -1 -12 -10q0 -7 13 -15q3 -1 4 -2z" glyph-name="Udieresis" unicode="Ü"/>
<glyph d="M350 576q0 78 -42 112q77 -21 89 -82q2 -10 2 -20q0 -60 -53 -100q-15 -11 -28 -16q32 42 32 106zM544 230q178 -88 335 -35v-13q-82 -44 -222 -39q-111 4 -186 41q-81 40 -150 108q-16 16 -28 31l-87 105q-1 0 -21 -2v-131q1 -19 45 -20v-12h-88q-3 52 -3 62v308 q0 12 3 62h95q63 0 86 -61q9 -26 9 -59q0 -67 -43 -103l73 -89q64 -79 116 -115q29 -19 66 -38zM185 453q72 4 90 48q9 23 9 61q0 86 -42 103q-14 5 -32 5h-25v-217zM528 195l2 3q-101 52 -198 162l-72 90l-15 -10l74 -92q96 -112 209 -153zM32 695h86q3 -52 3 -62v-308 q0 -13 -3 -62h-86v12q39 3 43 20v367q-3 19 -43 20v13zM707 257q-133 0 -168 138q-10 42 -11 91q0 167 115 205q30 9 65 9q39 0 91 -19q2 -1 3 -1q27 -11 35 2l2 4l11 -4l-30 -98l-11 4q6 43 -19 63q-28 21 -82 21q-132 -2 -132 -181q0 -154 84 -194q26 -11 57 -12 q76 0 124 54q5 5 9 10l9 -22q-49 -69 -150 -69q-1 -1 -2 -1zM576 287q-104 54 -114 170q-1 11 -1 22q0 115 95 178q3 1 5 3q-52 -63 -52 -175q0 -133 67 -198zM75 34v2h24v-2q-3 -1 -4 -3v-16q0 -3 1 -5q-11 -10 -29 -10q-28 0 -35 26q-2 7 -2 12q0 31 30 37q5 0 9 1 q9 -1 16 -4q3 1 4 2h2v-16l-2 1q-3 12 -20 12q-26 -2 -28 -30q0 -32 23 -36q3 -1 6 -1q8 1 15 4v20q-1 5 -10 6zM193 33l19 -25q5 -5 11 -5v-2h-21q1 3 0 4l-18 25q-5 0 -10 -1v-23q2 -3 8 -3v-2h-25v2q5 1 7 3v63q-2 3 -7 4v2h27q23 -2 25 -19q-1 -14 -16 -23zM174 33 q22 3 23 22q-2 15 -16 16h-7v-38zM304 76l27 -70q2 -3 5 -3v-2h-21v2q4 1 5 2l-8 20h-24l-7 -20l3 -2h4v-2h-18v2q5 1 6 2l25 70zM289 29h22l-11 31zM418 75q22 0 25 -18v-3q0 -21 -26 -26q-4 -1 -9 -1v-21q2 -3 9 -3v-2h-26v2q6 1 7 3v63q-1 3 -7 4v2h27zM408 31 q23 2 24 21q-2 18 -17 19h-7v-40zM548 73v2h23v-2q-6 -1 -7 -4v-63q1 -3 7 -3v-2h-23v2q4 1 5 3v32h-36v-32q2 -3 6 -3v-2h-23v2q5 1 7 3v63q-2 3 -7 4v2h23v-2q-5 -1 -6 -4v-27h36v27q-1 3 -5 4zM630 73v2h23v-2q-5 -1 -6 -3v-64q1 -3 6 -3v-2h-23v2q5 1 6 3v64q-1 2 -6 3z M751 4q14 1 21 10l2 -3q-9 -11 -25 -11q-30 0 -37 27q-1 6 -1 11q0 29 28 36q6 1 11 2q7 -1 14 -3q5 -1 6 0h2l-5 -16l-1 1q0 8 -4 10q-5 3 -13 3q-24 0 -26 -26q-1 -3 -1 -5q0 -30 23 -35q3 -1 6 -1zM859 44q18 -12 18 -23q-5 -18 -24 -21q-7 0 -15 4q-5 1 -7 -1l-1 1l5 18 l2 -1q1 -14 15 -17q14 1 15 13q-1 11 -21 22q-13 9 -13 18q1 18 21 19q5 0 11 -3q5 0 6 1h2l-5 -15l-1 1q0 11 -13 11q-11 -1 -12 -10q0 -7 13 -15q3 -1 4 -2z" glyph-name="germandbls" unicode="ß"/>
<glyph d="M350 576q0 78 -42 112q77 -21 89 -82q2 -10 2 -20q0 -60 -53 -100q-15 -11 -28 -16q32 42 32 106zM544 230q178 -88 335 -35v-13q-82 -44 -222 -39q-111 4 -186 41q-81 40 -150 108q-16 16 -28 31l-87 105q-1 0 -21 -2v-131q1 -19 45 -20v-12h-88q-3 52 -3 62v308 q0 12 3 62h95q63 0 86 -61q9 -26 9 -59q0 -67 -43 -103l73 -89q64 -79 116 -115q29 -19 66 -38zM185 453q72 4 90 48q9 23 9 61q0 86 -42 103q-14 5 -32 5h-25v-217zM528 195l2 3q-101 52 -198 162l-72 90l-15 -10l74 -92q96 -112 209 -153zM32 695h86q3 -52 3 -62v-308 q0 -13 -3 -62h-86v12q39 3 43 20v367q-3 19 -43 20v13zM576 287q-104 54 -114 170q-1 11 -1 22q0 115 95 178q3 1 5 3q-52 -63 -52 -175q0 -133 67 -198zM707 257q-133 0 -168 138q-10 42 -11 91q0 167 115 205q30 9 65 9q39 0 91 -19q2 -1 3 -1q27 -11 35 2l2 4l11 -4 l-30 -98l-11 4q6 43 -19 63q-28 21 -82 21q-132 -2 -132 -181q0 -154 84 -194q26 -11 57 -12q76 0 124 54q5 5 9 10l9 -22q-49 -69 -150 -69q-1 -1 -2 -1zM75 34v2h24v-2q-3 -1 -4 -3v-16q0 -3 1 -5q-11 -10 -29 -10q-28 0 -35 26q-2 7 -2 12q0 31 30 37q5 0 9 1q9 -1 16 -4 q3 1 4 2h2v-16l-2 1q-3 12 -20 12q-26 0 -27 -28l-1 -2q0 -32 23 -36q3 -1 6 -1q8 1 15 4v20q-1 5 -10 6zM193 33l19 -25q5 -5 11 -5v-2h-21q1 3 0 4l-18 25q-5 0 -10 -1v-23q2 -3 8 -3v-2h-25v2q5 1 7 3v63q-2 3 -7 4v2h27q23 -2 25 -19q-1 -14 -16 -23zM174 33q22 3 23 22 q-2 15 -16 16h-7v-38zM304 76l27 -70q2 -3 5 -3v-2h-21v2q4 1 5 2l-8 20h-24l-7 -20l3 -2h4v-2h-18v2q5 1 6 2l25 70zM289 29h22l-11 31zM418 75q22 0 25 -18v-3q0 -21 -26 -26q-4 -1 -9 -1v-21q2 -3 9 -3v-2h-26v2q6 1 7 3v63q-1 3 -7 4v2h27zM408 31q23 2 24 21 q-2 18 -17 19h-7v-40zM548 73v2h23v-2q-6 -1 -7 -4v-63q1 -3 7 -3v-2h-23v2q4 1 5 3v32h-36v-32q2 -3 6 -3v-2h-23v2q5 1 7 3v63q-2 3 -7 4v2h23v-2q-5 -1 -6 -4v-27h36v27q-1 3 -5 4zM630 73v2h23v-2q-5 -1 -6 -3v-64q1 -3 6 -3v-2h-23v2q5 1 6 3v64q-1 2 -6 3zM751 4 q14 1 21 10l2 -3q-9 -11 -25 -11q-30 0 -37 27q-1 6 -1 11q0 29 28 36q6 1 11 2q7 -1 14 -3q5 -1 6 0h2l-5 -16l-1 1q0 8 -4 10q-5 3 -13 3q-24 0 -26 -26q-1 -3 -1 -5q0 -30 23 -35q3 -1 6 -1zM859 44q18 -12 18 -23q-5 -18 -24 -21q-7 0 -15 4q-5 1 -7 -1l-1 1l5 18l2 -1 q1 -14 15 -17q14 1 15 13q-1 11 -21 22q-13 9 -13 18q1 18 21 19q5 0 11 -3q5 0 6 1h2l-5 -15l-1 1q0 11 -13 11q-11 -1 -12 -10q0 -7 13 -15q3 -1 4 -2z" glyph-name="agrave" unicode="à"/>
<glyph d="M32 695h86q3 -52 3 -62v-308q0 -13 -3 -62h-86v12q39 3 43 20v367q-3 19 -43 20v13zM350 576q0 78 -42 112q77 -21 89 -82q2 -10 2 -20q0 -60 -53 -100q-15 -11 -28 -16q32 42 32 106zM544 230q178 -88 335 -35v-13q-82 -44 -222 -39q-111 4 -186 41q-81 40 -150 108 q-16 16 -28 31l-87 105q-1 0 -21 -2v-131q1 -19 45 -20v-12h-88q-3 52 -3 62v308q0 12 3 62h95q63 0 86 -61q9 -26 9 -59q0 -67 -43 -103l73 -89q64 -79 116 -115q29 -19 66 -38zM185 453q72 4 90 48q9 23 9 61q0 86 -42 103q-14 5 -32 5h-25v-217zM528 195l2 3 q-101 52 -198 162l-72 90l-15 -10l74 -92q96 -112 209 -153zM576 287q-104 54 -114 170q-1 11 -1 22q0 115 95 178q3 1 5 3q-52 -63 -52 -175q0 -133 67 -198zM707 257q-133 0 -168 138q-10 42 -11 91q0 167 115 205q30 9 65 9q39 0 91 -19q2 -1 3 -1q27 -11 35 2l2 4l11 -4 l-30 -98l-11 4q6 43 -19 63q-28 21 -82 21q-132 -2 -132 -181q0 -154 84 -194q26 -11 57 -12q76 0 124 54q5 5 9 10l9 -22q-49 -69 -150 -69q-1 -1 -2 -1zM75 34v2h24v-2q-3 -1 -4 -3v-16q0 -3 1 -5q-11 -10 -29 -10q-28 0 -35 26q-2 7 -2 12q0 31 30 37q5 0 9 1q9 -1 16 -4 q3 1 4 2h2v-16l-2 1q-3 12 -20 12q-26 0 -27 -28l-1 -2q0 -32 23 -36q3 -1 6 -1q8 1 15 4v20q-1 5 -10 6zM193 33l19 -25q5 -5 11 -5v-2h-21q1 3 0 4l-18 25q-5 0 -10 -1v-23q2 -3 8 -3v-2h-25v2q5 1 7 3v63q-2 3 -7 4v2h27q23 -2 25 -19q-1 -14 -16 -23zM174 33q22 3 23 22 q-2 15 -16 16h-7v-38zM304 76l27 -70q2 -3 5 -3v-2h-21v2q4 1 5 2l-8 20h-24l-7 -20l3 -2h4v-2h-18v2q5 1 6 2l25 70zM289 29h22l-11 31zM418 75q22 0 25 -18v-3q0 -21 -26 -26q-4 -1 -9 -1v-21q2 -3 9 -3v-2h-26v2q6 1 7 3v63q-1 3 -7 4v2h27zM408 31q23 2 24 21 q-2 18 -17 19h-7v-40zM548 73v2h23v-2q-6 -1 -7 -4v-63q1 -3 7 -3v-2h-23v2q4 1 5 3v32h-36v-32q2 -3 6 -3v-2h-23v2q5 1 7 3v63q-2 3 -7 4v2h23v-2q-5 -1 -6 -4v-27h36v27q-1 3 -5 4zM630 73v2h23v-2q-5 -1 -6 -3v-64q1 -3 6 -3v-2h-23v2q5 1 6 3v64q-1 2 -6 3zM751 4 q14 1 21 10l2 -3q-9 -11 -25 -11q-30 0 -37 27q-1 6 -1 11q0 29 28 36q6 1 11 2q7 -1 14 -3q5 -1 6 0h2l-5 -16l-1 1q0 8 -4 10q-5 3 -13 3q-24 0 -26 -26q-1 -3 -1 -5q0 -30 23 -35q3 -1 6 -1zM859 44q18 -12 18 -23q-5 -18 -24 -21q-7 0 -15 4q-5 1 -7 -1l-1 1l5 18l2 -1 q1 -14 15 -17q14 1 15 13q-1 11 -21 22q-13 9 -13 18q1 18 21 19q5 0 11 -3q5 0 6 1h2l-5 -15l-1 1q0 11 -13 11q-11 -1 -12 -10q0 -7 13 -15q3 -1 4 -2z" glyph-name="aacute" unicode="á"/>
<glyph d="M544 230q178 -88 335 -35v-13q-82 -44 -222 -39q-111 4 -186 41q-81 40 -150 108q-16 16 -28 31l-87 105q-1 0 -21 -2v-131q1 -19 45 -20v-12h-88q-3 52 -3 62v308q0 12 3 62h95q63 0 86 -61q9 -26 9 -59q0 -67 -43 -103l73 -89q64 -79 116 -115q29 -19 66 -38zM185 453 q72 4 90 48q9 23 9 61q0 86 -42 103q-14 5 -32 5h-25v-217zM528 195l2 3q-101 52 -198 162l-72 90l-15 -10l74 -92q96 -112 209 -153zM32 695h86q3 -52 3 -62v-308q0 -13 -3 -62h-86v12q39 3 43 20v367q-3 19 -43 20v13zM350 576q0 78 -42 112q77 -21 89 -82q2 -10 2 -20 q0 -60 -53 -100q-15 -11 -28 -16q32 42 32 106zM707 257q-133 0 -168 138q-10 42 -11 91q0 167 115 205q30 9 65 9q39 0 91 -19q2 -1 3 -1q27 -11 35 2l2 4l11 -4l-30 -98l-11 4q6 43 -19 63q-28 21 -82 21q-132 -2 -132 -181q0 -154 84 -194q26 -11 57 -12q76 0 124 54 q5 5 9 10l9 -22q-49 -69 -150 -69q-1 -1 -2 -1zM576 287q-104 54 -114 170q-1 11 -1 22q0 115 95 178q3 1 5 3q-52 -63 -52 -175q0 -133 67 -198zM75 34v2h24v-2q-3 -1 -4 -3v-16q0 -3 1 -5q-11 -10 -29 -10q-28 0 -35 26q-2 7 -2 12q0 31 30 37q5 0 9 1q9 -1 16 -4q3 1 4 2 h2v-16l-2 1q-3 12 -20 12q-26 0 -27 -28l-1 -2q0 -32 23 -36q3 -1 6 -1q8 1 15 4v20q-1 5 -10 6zM193 33l19 -25q5 -5 11 -5v-2h-21q1 3 0 4l-18 25q-5 0 -10 -1v-23q2 -3 8 -3v-2h-25v2q5 1 7 3v63q-2 3 -7 4v2h27q23 -2 25 -19q-1 -14 -16 -23zM174 33q22 3 23 22 q-2 15 -16 16h-7v-38zM304 76l27 -70q2 -3 5 -3v-2h-21v2q4 1 5 2l-8 20h-24l-7 -20l3 -2h4v-2h-18v2q5 1 6 2l25 70zM289 29h22l-11 31zM418 75q22 0 25 -18v-3q0 -21 -26 -26q-4 -1 -9 -1v-21q2 -3 9 -3v-2h-26v2q6 1 7 3v63q-1 3 -7 4v2h27zM408 31q23 2 24 21 q-2 18 -17 19h-7v-40zM548 73v2h23v-2q-6 -1 -7 -4v-63q1 -3 7 -3v-2h-23v2q4 1 5 3v32h-36v-32q2 -3 6 -3v-2h-23v2q5 1 7 3v63q-2 3 -7 4v2h23v-2q-5 -1 -6 -4v-27h36v27q-1 3 -5 4zM630 73v2h23v-2q-5 -1 -6 -3v-64q1 -3 6 -3v-2h-23v2q5 1 6 3v64q-1 2 -6 3zM751 4 q14 1 21 10l2 -3q-9 -11 -25 -11q-30 0 -37 27q-1 6 -1 11q0 29 28 36q6 1 11 2q7 -1 14 -3q5 -1 6 0h2l-5 -16l-1 1q0 8 -4 10q-5 3 -13 3q-24 0 -26 -26q-1 -3 -1 -5q0 -30 23 -35q3 -1 6 -1zM859 44q18 -12 18 -23q-5 -18 -24 -21q-7 0 -15 4q-5 1 -7 -1l-1 1l5 18l2 -1 q1 -14 15 -17q14 1 15 13q-1 11 -21 22q-13 9 -13 18q1 18 21 19q5 0 11 -3q5 0 6 1h2l-5 -15l-1 1q0 11 -13 11q-11 -1 -12 -10q0 -7 13 -15q3 -1 4 -2z" glyph-name="acircumflex" unicode="â"/>
<glyph d="M544 230q178 -88 335 -35v-13q-82 -44 -222 -39q-111 4 -186 41q-81 40 -150 108q-16 16 -28 31l-87 105q-1 0 -21 -2v-131q1 -19 45 -20v-12h-88q-3 52 -3 62v308q0 12 3 62h95q63 0 86 -61q9 -26 9 -59q0 -67 -43 -103l73 -89q64 -79 116 -115q29 -19 66 -38zM185 453 q72 4 90 48q9 23 9 61q0 86 -42 103q-14 5 -32 5h-25v-217zM528 195l2 3q-101 52 -198 162l-72 90l-15 -10l74 -92q96 -112 209 -153zM32 695h86q3 -52 3 -62v-308q0 -13 -3 -62h-86v12q39 3 43 20v367q-3 19 -43 20v13zM350 576q0 78 -42 112q77 -21 89 -82q2 -10 2 -20 q0 -60 -53 -100q-15 -11 -28 -16q32 42 32 106zM707 257q-133 0 -168 138q-10 42 -11 91q0 167 115 205q30 9 65 9q39 0 91 -19q2 -1 3 -1q27 -11 35 2l2 4l11 -4l-30 -98l-11 4q6 43 -19 63q-28 21 -82 21q-132 -2 -132 -181q0 -154 84 -194q26 -11 57 -12q76 0 124 54 q5 5 9 10l9 -22q-49 -69 -150 -69q-1 -1 -2 -1zM576 287q-104 54 -114 170q-1 11 -1 22q0 115 95 178q3 1 5 3q-52 -63 -52 -175q0 -133 67 -198zM75 34v2h24v-2q-3 -1 -4 -3v-16q0 -3 1 -5q-11 -10 -29 -10q-28 0 -35 26q-2 7 -2 12q0 31 30 37q5 0 9 1q9 -1 16 -4q3 1 4 2 h2v-16l-2 1q-3 12 -20 12q-26 0 -27 -28l-1 -2q0 -32 23 -36q3 -1 6 -1q8 1 15 4v20q-1 5 -10 6zM193 33l19 -25q5 -5 11 -5v-2h-21q1 3 0 4l-18 25q-5 0 -10 -1v-23q2 -3 8 -3v-2h-25v2q5 1 7 3v63q-2 3 -7 4v2h27q23 -2 25 -19q-1 -14 -16 -23zM174 33q22 3 23 22 q-2 15 -16 16h-7v-38zM304 76l27 -70q2 -3 5 -3v-2h-21v2q4 1 5 2l-8 20h-24l-7 -20l3 -2h4v-2h-18v2q5 1 6 2l25 70zM289 29h22l-11 31zM418 75q22 0 25 -18v-3q0 -21 -26 -26q-4 -1 -9 -1v-21q2 -3 9 -3v-2h-26v2q6 1 7 3v63q-1 3 -7 4v2h27zM408 31q23 2 24 21 q-2 18 -17 19h-7v-40zM548 73v2h23v-2q-6 -1 -7 -4v-63q1 -3 7 -3v-2h-23v2q4 1 5 3v32h-36v-32q2 -3 6 -3v-2h-23v2q5 1 7 3v63q-2 3 -7 4v2h23v-2q-5 -1 -6 -4v-27h36v27q-1 3 -5 4zM630 73v2h23v-2q-5 -1 -6 -3v-64q1 -3 6 -3v-2h-23v2q5 1 6 3v64q-1 2 -6 3zM751 4 q14 1 21 10l2 -3q-9 -11 -25 -11q-30 0 -37 27q-1 6 -1 11q0 29 28 36q6 1 11 2q7 -1 14 -3q5 -1 6 0h2l-5 -16l-1 1q0 8 -4 10q-5 3 -13 3q-24 0 -26 -26q-1 -3 -1 -5q0 -30 23 -35q3 -1 6 -1zM859 44q18 -12 18 -23q-5 -18 -24 -21q-7 0 -15 4q-5 1 -7 -1l-1 1l5 18l2 -1 q1 -14 15 -17q14 1 15 13q-1 11 -21 22q-13 9 -13 18q1 18 21 19q5 0 11 -3q5 0 6 1h2l-5 -15l-1 1q0 11 -13 11q-11 -1 -12 -10q0 -7 13 -15q3 -1 4 -2z" glyph-name="atilde" unicode="ã"/>
<glyph d="M32 695h86q3 -52 3 -62v-308q0 -13 -3 -62h-86v12q39 3 43 20v367q-3 19 -43 20v13zM350 576q0 78 -42 112q77 -21 89 -82q2 -10 2 -20q0 -60 -53 -100q-15 -11 -28 -16q32 42 32 106zM544 230q178 -88 335 -35v-13q-82 -44 -222 -39q-111 4 -186 41q-81 40 -150 108 q-16 16 -28 31l-87 105q-1 0 -21 -2v-131q1 -19 45 -20v-12h-88q-3 52 -3 62v308q0 12 3 62h95q63 0 86 -61q9 -26 9 -59q0 -67 -43 -103l73 -89q64 -79 116 -115q29 -19 66 -38zM185 453q72 4 90 48q9 23 9 61q0 86 -42 103q-14 5 -32 5h-25v-217zM528 195l2 3 q-101 52 -198 162l-72 90l-15 -10l74 -92q96 -112 209 -153zM707 257q-133 0 -168 138q-10 42 -11 91q0 167 115 205q30 9 65 9q39 0 91 -19q2 -1 3 -1q27 -11 35 2l2 4l11 -4l-30 -98l-11 4q6 43 -19 63q-28 21 -82 21q-132 -2 -132 -181q0 -154 84 -194q26 -11 57 -12 q76 0 124 54q5 5 9 10l9 -22q-49 -69 -150 -69q-1 -1 -2 -1zM576 287q-104 54 -114 170q-1 11 -1 22q0 115 95 178q3 1 5 3q-52 -63 -52 -175q0 -133 67 -198zM75 34v2h24v-2q-3 -1 -4 -3v-16q0 -3 1 -5q-11 -10 -29 -10q-28 0 -35 26q-2 7 -2 12q0 31 30 37q5 0 9 1 q9 -1 16 -4q3 1 4 2h2v-16l-2 1q-3 12 -20 12q-26 -2 -28 -30q0 -32 23 -36q3 -1 6 -1q8 1 15 4v20q-1 5 -10 6zM193 33l19 -25q5 -5 11 -5v-2h-21q1 3 0 4l-18 25q-5 0 -10 -1v-23q2 -3 8 -3v-2h-25v2q5 1 7 3v63q-2 3 -7 4v2h27q23 -2 25 -19q-1 -14 -16 -23zM174 33 q22 3 23 22q-2 15 -16 16h-7v-38zM304 76l27 -70q2 -3 5 -3v-2h-21v2q4 1 5 2l-8 20h-24l-7 -20l3 -2h4v-2h-18v2q5 1 6 2l25 70zM289 29h22l-11 31zM418 75q22 0 25 -18v-3q0 -21 -26 -26q-4 -1 -9 -1v-21q2 -3 9 -3v-2h-26v2q6 1 7 3v63q-1 3 -7 4v2h27zM408 31 q23 2 24 21q-2 18 -17 19h-7v-40zM548 73v2h23v-2q-6 -1 -7 -4v-63q1 -3 7 -3v-2h-23v2q4 1 5 3v32h-36v-32q2 -3 6 -3v-2h-23v2q5 1 7 3v63q-2 3 -7 4v2h23v-2q-5 -1 -6 -4v-27h36v27q-1 3 -5 4zM630 73v2h23v-2q-5 -1 -6 -3v-64q1 -3 6 -3v-2h-23v2q5 1 6 3v64q-1 2 -6 3z M751 4q14 1 21 10l2 -3q-9 -11 -25 -11q-30 0 -37 27q-1 6 -1 11q0 29 28 36q6 1 11 2q7 -1 14 -3q5 -1 6 0h2l-5 -16l-1 1q0 8 -4 10q-5 3 -13 3q-24 0 -26 -26q-1 -3 -1 -5q0 -30 23 -35q3 -1 6 -1zM859 44q18 -12 18 -23q-5 -18 -24 -21q-7 0 -15 4q-5 1 -7 -1l-1 1l5 18 l2 -1q1 -14 15 -17q14 1 15 13q-1 11 -21 22q-13 9 -13 18q1 18 21 19q5 0 11 -3q5 0 6 1h2l-5 -15l-1 1q0 11 -13 11q-11 -1 -12 -10q0 -7 13 -15q3 -1 4 -2z" glyph-name="adieresis" unicode="ä"/>
<glyph d="M350 576q0 78 -42 112q77 -21 89 -82q2 -10 2 -20q0 -60 -53 -100q-15 -11 -28 -16q32 42 32 106zM32 695h86q3 -52 3 -62v-308q0 -13 -3 -62h-86v12q39 3 43 20v367q-3 19 -43 20v13zM544 230q178 -88 335 -35v-13q-82 -44 -222 -39q-111 4 -186 41q-81 40 -150 108 q-16 16 -28 31l-87 105q-1 0 -21 -2v-131q1 -19 45 -20v-12h-88q-3 52 -3 62v308q0 12 3 62h95q63 0 86 -61q9 -26 9 -59q0 -67 -43 -103l73 -89q64 -79 116 -115q29 -19 66 -38zM185 453q72 4 90 48q9 23 9 61q0 86 -42 103q-14 5 -32 5h-25v-217zM528 195l2 3 q-101 52 -198 162l-72 90l-15 -10l74 -92q96 -112 209 -153zM707 257q-133 0 -168 138q-10 42 -11 91q0 167 115 205q30 9 65 9q39 0 91 -19q2 -1 3 -1q27 -11 35 2l2 4l11 -4l-30 -98l-11 4q6 43 -19 63q-28 21 -82 21q-132 -2 -132 -181q0 -154 84 -194q26 -11 57 -12 q76 0 124 54q5 5 9 10l9 -22q-49 -69 -150 -69q-1 -1 -2 -1zM576 287q-104 54 -114 170q-1 11 -1 22q0 115 95 178q3 1 5 3q-52 -63 -52 -175q0 -133 67 -198zM75 34v2h24v-2q-3 -1 -4 -3v-16q0 -3 1 -5q-11 -10 -29 -10q-28 0 -35 26q-2 7 -2 12q0 31 30 37q5 0 9 1 q9 -1 16 -4q3 1 4 2h2v-16l-2 1q-3 12 -20 12q-26 -2 -28 -30q0 -32 23 -36q3 -1 6 -1q8 1 15 4v20q-1 5 -10 6zM193 33l19 -25q5 -5 11 -5v-2h-21q1 3 0 4l-18 25q-5 0 -10 -1v-23q2 -3 8 -3v-2h-25v2q5 1 7 3v63q-2 3 -7 4v2h27q23 -2 25 -19q-1 -14 -16 -23zM174 33 q22 3 23 22q-2 15 -16 16h-7v-38zM304 76l27 -70q2 -3 5 -3v-2h-21v2q4 1 5 2l-8 20h-24l-7 -20l3 -2h4v-2h-18v2q5 1 6 2l25 70zM289 29h22l-11 31zM418 75q22 0 25 -18v-3q0 -21 -26 -26q-4 -1 -9 -1v-21q2 -3 9 -3v-2h-26v2q6 1 7 3v63q-1 3 -7 4v2h27zM408 31 q23 2 24 21q-2 18 -17 19h-7v-40zM548 73v2h23v-2q-6 -1 -7 -4v-63q1 -3 7 -3v-2h-23v2q4 1 5 3v32h-36v-32q2 -3 6 -3v-2h-23v2q5 1 7 3v63q-2 3 -7 4v2h23v-2q-5 -1 -6 -4v-27h36v27q-1 3 -5 4zM630 73v2h23v-2q-5 -1 -6 -3v-64q1 -3 6 -3v-2h-23v2q5 1 6 3v64q-1 2 -6 3z M751 4q14 1 21 10l2 -3q-9 -11 -25 -11q-30 0 -37 27q-1 6 -1 11q0 29 28 36q6 1 11 2q7 -1 14 -3q5 -1 6 0h2l-5 -16l-1 1q0 8 -4 10q-5 3 -13 3q-24 0 -26 -26q-1 -3 -1 -5q0 -30 23 -35q3 -1 6 -1zM859 44q18 -12 18 -23q-5 -18 -24 -21q-7 0 -15 4q-5 1 -7 -1l-1 1l5 18 l2 -1q1 -14 15 -17q14 1 15 13q-1 11 -21 22q-13 9 -13 18q1 18 21 19q5 0 11 -3q5 0 6 1h2l-5 -15l-1 1q0 11 -13 11q-11 -1 -12 -10q0 -7 13 -15q3 -1 4 -2z" glyph-name="aring" unicode="å"/>
<glyph d="M350 576q0 78 -42 112q77 -21 89 -82q2 -10 2 -20q0 -60 -53 -100q-15 -11 -28 -16q32 42 32 106zM32 695h86q3 -52 3 -62v-308q0 -13 -3 -62h-86v12q39 3 43 20v367q-3 19 -43 20v13zM544 230q178 -88 335 -35v-13q-82 -44 -222 -39q-111 4 -186 41q-81 40 -150 108 q-16 16 -28 31l-87 105q-1 0 -21 -2v-131q1 -19 45 -20v-12h-88q-3 52 -3 62v308q0 12 3 62h95q63 0 86 -61q9 -26 9 -59q0 -67 -43 -103l73 -89q64 -79 116 -115q29 -19 66 -38zM185 453q72 4 90 48q9 23 9 61q0 86 -42 103q-14 5 -32 5h-25v-217zM528 195l2 3 q-101 52 -198 162l-72 90l-15 -10l74 -92q96 -112 209 -153zM707 257q-133 0 -168 138q-10 42 -11 91q0 167 115 205q30 9 65 9q39 0 91 -19q2 -1 3 -1q27 -11 35 2l2 4l11 -4l-30 -98l-11 4q6 43 -19 63q-28 21 -82 21q-132 -2 -132 -181q0 -154 84 -194q26 -11 57 -12 q76 0 124 54q5 5 9 10l9 -22q-49 -69 -150 -69q-1 -1 -2 -1zM576 287q-104 54 -114 170q-1 11 -1 22q0 115 95 178q3 1 5 3q-52 -63 -52 -175q0 -133 67 -198zM75 34v2h24v-2q-3 -1 -4 -3v-16q0 -3 1 -5q-11 -10 -29 -10q-28 0 -35 26q-2 7 -2 12q0 31 30 37q5 0 9 1 q9 -1 16 -4q3 1 4 2h2v-16l-2 1q-3 12 -20 12q-26 -2 -28 -30q0 -32 23 -36q3 -1 6 -1q8 1 15 4v20q-1 5 -10 6zM193 33l19 -25q5 -5 11 -5v-2h-21q1 3 0 4l-18 25q-5 0 -10 -1v-23q2 -3 8 -3v-2h-25v2q5 1 7 3v63q-2 3 -7 4v2h27q23 -2 25 -19q-1 -14 -16 -23zM174 33 q22 3 23 22q-2 15 -16 16h-7v-38zM304 76l27 -70q2 -3 5 -3v-2h-21v2q4 1 5 2l-8 20h-24l-7 -20l3 -2h4v-2h-18v2q5 1 6 2l25 70zM289 29h22l-11 31zM418 75q22 0 25 -18v-3q0 -21 -26 -26q-4 -1 -9 -1v-21q2 -3 9 -3v-2h-26v2q6 1 7 3v63q-1 3 -7 4v2h27zM408 31 q23 2 24 21q-2 18 -17 19h-7v-40zM548 73v2h23v-2q-6 -1 -7 -4v-63q1 -3 7 -3v-2h-23v2q4 1 5 3v32h-36v-32q2 -3 6 -3v-2h-23v2q5 1 7 3v63q-2 3 -7 4v2h23v-2q-5 -1 -6 -4v-27h36v27q-1 3 -5 4zM630 73v2h23v-2q-5 -1 -6 -3v-64q1 -3 6 -3v-2h-23v2q5 1 6 3v64q-1 2 -6 3z M751 4q14 1 21 10l2 -3q-9 -11 -25 -11q-30 0 -37 27q-1 6 -1 11q0 29 28 36q6 1 11 2q7 -1 14 -3q5 -1 6 0h2l-5 -16l-1 1q0 8 -4 10q-5 3 -13 3q-24 0 -26 -26q-1 -3 -1 -5q0 -30 23 -35q3 -1 6 -1zM859 44q18 -12 18 -23q-5 -18 -24 -21q-7 0 -15 4q-5 1 -7 -1l-1 1l5 18 l2 -1q1 -14 15 -17q14 1 15 13q-1 11 -21 22q-13 9 -13 18q1 18 21 19q5 0 11 -3q5 0 6 1h2l-5 -15l-1 1q0 11 -13 11q-11 -1 -12 -10q0 -7 13 -15q3 -1 4 -2z" glyph-name="ae" unicode="æ"/>
<glyph d="M32 695h86q3 -52 3 -62v-308q0 -13 -3 -62h-86v12q39 3 43 20v367q-3 19 -43 20v13zM350 576q0 78 -42 112q77 -21 89 -82q2 -10 2 -20q0 -60 -53 -100q-15 -11 -28 -16q32 42 32 106zM544 230q178 -88 335 -35v-13q-82 -44 -222 -39q-111 4 -186 41q-81 40 -150 108 q-16 16 -28 31l-87 105q-1 0 -21 -2v-131q1 -19 45 -20v-12h-88q-3 52 -3 62v308q0 12 3 62h95q63 0 86 -61q9 -26 9 -59q0 -67 -43 -103l73 -89q64 -79 116 -115q29 -19 66 -38zM185 453q72 4 90 48q9 23 9 61q0 86 -42 103q-14 5 -32 5h-25v-217zM528 195l2 3 q-101 52 -198 162l-72 90l-15 -10l74 -92q96 -112 209 -153zM707 257q-133 0 -168 138q-10 42 -11 91q0 167 115 205q30 9 65 9q39 0 91 -19q2 -1 3 -1q27 -11 35 2l2 4l11 -4l-30 -98l-11 4q6 43 -19 63q-28 21 -82 21q-132 -2 -132 -181q0 -154 84 -194q26 -11 57 -12 q76 0 124 54q5 5 9 10l9 -22q-49 -69 -150 -69q-1 -1 -2 -1zM576 287q-104 54 -114 170q-1 11 -1 22q0 115 95 178q3 1 5 3q-52 -63 -52 -175q0 -133 67 -198zM75 34v2h24v-2q-3 -1 -4 -3v-16q0 -3 1 -5q-11 -10 -29 -10q-28 0 -35 26q-2 7 -2 12q0 31 30 37q5 0 9 1 q9 -1 16 -4q3 1 4 2h2v-16l-2 1q-3 12 -20 12q-26 -2 -28 -30q0 -32 23 -36q3 -1 6 -1q8 1 15 4v20q-1 5 -10 6zM193 33l19 -25q5 -5 11 -5v-2h-21q1 3 0 4l-18 25q-5 0 -10 -1v-23q2 -3 8 -3v-2h-25v2q5 1 7 3v63q-2 3 -7 4v2h27q23 -2 25 -19q-1 -14 -16 -23zM174 33 q22 3 23 22q-2 15 -16 16h-7v-38zM304 76l27 -70q2 -3 5 -3v-2h-21v2q4 1 5 2l-8 20h-24l-7 -20l3 -2h4v-2h-18v2q5 1 6 2l25 70zM289 29h22l-11 31zM418 75q22 0 25 -18v-3q0 -21 -26 -26q-4 -1 -9 -1v-21q2 -3 9 -3v-2h-26v2q6 1 7 3v63q-1 3 -7 4v2h27zM408 31 q23 2 24 21q-2 18 -17 19h-7v-40zM548 73v2h23v-2q-6 -1 -7 -4v-63q1 -3 7 -3v-2h-23v2q4 1 5 3v32h-36v-32q2 -3 6 -3v-2h-23v2q5 1 7 3v63q-2 3 -7 4v2h23v-2q-5 -1 -6 -4v-27h36v27q-1 3 -5 4zM630 73v2h23v-2q-5 -1 -6 -3v-64q1 -3 6 -3v-2h-23v2q5 1 6 3v64q-1 2 -6 3z M751 4q14 1 21 10l2 -3q-9 -11 -25 -11q-30 0 -37 27q-1 6 -1 11q0 29 28 36q6 1 11 2q7 -1 14 -3q5 -1 6 0h2l-5 -16l-1 1q0 8 -4 10q-5 3 -13 3q-24 0 -26 -26q-1 -3 -1 -5q0 -30 23 -35q3 -1 6 -1zM859 44q18 -12 18 -23q-5 -18 -24 -21q-7 0 -15 4q-5 1 -7 -1l-1 1l5 18 l2 -1q1 -14 15 -17q14 1 15 13q-1 11 -21 22q-13 9 -13 18q1 18 21 19q5 0 11 -3q5 0 6 1h2l-5 -15l-1 1q0 11 -13 11q-11 -1 -12 -10q0 -7 13 -15q3 -1 4 -2z" glyph-name="ccedilla" unicode="ç"/>
<glyph d="M544 230q178 -88 335 -35v-13q-82 -44 -222 -39q-111 4 -186 41q-81 40 -150 108q-16 16 -28 31l-87 105q-1 0 -21 -2v-131q1 -19 45 -20v-12h-88q-3 52 -3 62v308q0 12 3 62h95q63 0 86 -61q9 -26 9 -59q0 -67 -43 -103l73 -89q64 -79 116 -115q29 -19 66 -38zM185 453 q72 4 90 48q9 23 9 61q0 86 -42 103q-14 5 -32 5h-25v-217zM528 195l2 3q-101 52 -198 162l-72 90l-15 -10l74 -92q96 -112 209 -153zM32 695h86q3 -52 3 -62v-308q0 -13 -3 -62h-86v12q39 3 43 20v367q-3 19 -43 20v13zM350 576q0 78 -42 112q77 -21 89 -82q2 -10 2 -20 q0 -60 -53 -100q-15 -11 -28 -16q32 42 32 106zM576 287q-104 54 -114 170q-1 11 -1 22q0 115 95 178q3 1 5 3q-52 -63 -52 -175q0 -133 67 -198zM707 257q-133 0 -168 138q-10 42 -11 91q0 167 115 205q30 9 65 9q39 0 91 -19q2 -1 3 -1q27 -11 35 2l2 4l11 -4l-30 -98 l-11 4q6 43 -19 63q-28 21 -82 21q-132 -2 -132 -181q0 -154 84 -194q26 -11 57 -12q76 0 124 54q5 5 9 10l9 -22q-49 -69 -150 -69q-1 -1 -2 -1zM75 34v2h24v-2q-3 -1 -4 -3v-16q0 -3 1 -5q-11 -10 -29 -10q-28 0 -35 26q-2 7 -2 12q0 31 30 37q5 0 9 1q9 -1 16 -4q3 1 4 2 h2v-16l-2 1q-3 12 -20 12q-26 0 -27 -28l-1 -2q0 -32 23 -36q3 -1 6 -1q8 1 15 4v20q-1 5 -10 6zM193 33l19 -25q5 -5 11 -5v-2h-21q1 3 0 4l-18 25q-5 0 -10 -1v-23q2 -3 8 -3v-2h-25v2q5 1 7 3v63q-2 3 -7 4v2h27q23 -2 25 -19q-1 -14 -16 -23zM174 33q22 3 23 22 q-2 15 -16 16h-7v-38zM304 76l27 -70q2 -3 5 -3v-2h-21v2q4 1 5 2l-8 20h-24l-7 -20l3 -2h4v-2h-18v2q5 1 6 2l25 70zM289 29h22l-11 31zM418 75q22 0 25 -18v-3q0 -21 -26 -26q-4 -1 -9 -1v-21q2 -3 9 -3v-2h-26v2q6 1 7 3v63q-1 3 -7 4v2h27zM408 31q23 2 24 21 q-2 18 -17 19h-7v-40zM548 73v2h23v-2q-6 -1 -7 -4v-63q1 -3 7 -3v-2h-23v2q4 1 5 3v32h-36v-32q2 -3 6 -3v-2h-23v2q5 1 7 3v63q-2 3 -7 4v2h23v-2q-5 -1 -6 -4v-27h36v27q-1 3 -5 4zM630 73v2h23v-2q-5 -1 -6 -3v-64q1 -3 6 -3v-2h-23v2q5 1 6 3v64q-1 2 -6 3zM751 4 q14 1 21 10l2 -3q-9 -11 -25 -11q-30 0 -37 27q-1 6 -1 11q0 29 28 36q6 1 11 2q7 -1 14 -3q5 -1 6 0h2l-5 -16l-1 1q0 8 -4 10q-5 3 -13 3q-24 0 -26 -26q-1 -3 -1 -5q0 -30 23 -35q3 -1 6 -1zM859 44q18 -12 18 -23q-5 -18 -24 -21q-7 0 -15 4q-5 1 -7 -1l-1 1l5 18l2 -1 q1 -14 15 -17q14 1 15 13q-1 11 -21 22q-13 9 -13 18q1 18 21 19q5 0 11 -3q5 0 6 1h2l-5 -15l-1 1q0 11 -13 11q-11 -1 -12 -10q0 -7 13 -15q3 -1 4 -2z" glyph-name="egrave" unicode="è"/>
<glyph d="M544 230q178 -88 335 -35v-13q-82 -44 -222 -39q-111 4 -186 41q-81 40 -150 108q-16 16 -28 31l-87 105q-1 0 -21 -2v-131q1 -19 45 -20v-12h-88q-3 52 -3 62v308q0 12 3 62h95q63 0 86 -61q9 -26 9 -59q0 -67 -43 -103l73 -89q64 -79 116 -115q29 -19 66 -38zM185 453 q72 4 90 48q9 23 9 61q0 86 -42 103q-14 5 -32 5h-25v-217zM528 195l2 3q-101 52 -198 162l-72 90l-15 -10l74 -92q96 -112 209 -153zM350 576q0 78 -42 112q77 -21 89 -82q2 -10 2 -20q0 -60 -53 -100q-15 -11 -28 -16q32 42 32 106zM32 695h86q3 -52 3 -62v-308 q0 -13 -3 -62h-86v12q39 3 43 20v367q-3 19 -43 20v13zM707 257q-133 0 -168 138q-10 42 -11 91q0 167 115 205q30 9 65 9q39 0 91 -19q2 -1 3 -1q27 -11 35 2l2 4l11 -4l-30 -98l-11 4q6 43 -19 63q-28 21 -82 21q-132 -2 -132 -181q0 -154 84 -194q26 -11 57 -12 q76 0 124 54q5 5 9 10l9 -22q-49 -69 -150 -69q-1 -1 -2 -1zM576 287q-104 54 -114 170q-1 11 -1 22q0 115 95 178q3 1 5 3q-52 -63 -52 -175q0 -133 67 -198zM75 34v2h24v-2q-3 -1 -4 -3v-16q0 -3 1 -5q-11 -10 -29 -10q-28 0 -35 26q-2 7 -2 12q0 31 30 37q5 0 9 1 q9 -1 16 -4q3 1 4 2h2v-16l-2 1q-3 12 -20 12q-26 -2 -28 -30q0 -32 23 -36q3 -1 6 -1q8 1 15 4v20q-1 5 -10 6zM193 33l19 -25q5 -5 11 -5v-2h-21q1 3 0 4l-18 25q-5 0 -10 -1v-23q2 -3 8 -3v-2h-25v2q5 1 7 3v63q-2 3 -7 4v2h27q23 -2 25 -19q-1 -14 -16 -23zM174 33 q22 3 23 22q-2 15 -16 16h-7v-38zM304 76l27 -70q2 -3 5 -3v-2h-21v2q4 1 5 2l-8 20h-24l-7 -20l3 -2h4v-2h-18v2q5 1 6 2l25 70zM289 29h22l-11 31zM418 75q22 0 25 -18v-3q0 -21 -26 -26q-4 -1 -9 -1v-21q2 -3 9 -3v-2h-26v2q6 1 7 3v63q-1 3 -7 4v2h27zM408 31 q23 2 24 21q-2 18 -17 19h-7v-40zM548 73v2h23v-2q-6 -1 -7 -4v-63q1 -3 7 -3v-2h-23v2q4 1 5 3v32h-36v-32q2 -3 6 -3v-2h-23v2q5 1 7 3v63q-2 3 -7 4v2h23v-2q-5 -1 -6 -4v-27h36v27q-1 3 -5 4zM630 73v2h23v-2q-5 -1 -6 -3v-64q1 -3 6 -3v-2h-23v2q5 1 6 3v64q-1 2 -6 3z M751 4q14 1 21 10l2 -3q-9 -11 -25 -11q-30 0 -37 27q-1 6 -1 11q0 29 28 36q6 1 11 2q7 -1 14 -3q5 -1 6 0h2l-5 -16l-1 1q0 8 -4 10q-5 3 -13 3q-24 0 -26 -26q-1 -3 -1 -5q0 -30 23 -35q3 -1 6 -1zM859 44q18 -12 18 -23q-5 -18 -24 -21q-7 0 -15 4q-5 1 -7 -1l-1 1l5 18 l2 -1q1 -14 15 -17q14 1 15 13q-1 11 -21 22q-13 9 -13 18q1 18 21 19q5 0 11 -3q5 0 6 1h2l-5 -15l-1 1q0 11 -13 11q-11 -1 -12 -10q0 -7 13 -15q3 -1 4 -2z" glyph-name="eacute" unicode="é"/>
<glyph d="M32 695h86q3 -52 3 -62v-308q0 -13 -3 -62h-86v12q39 3 43 20v367q-3 19 -43 20v13zM350 576q0 78 -42 112q77 -21 89 -82q2 -10 2 -20q0 -60 -53 -100q-15 -11 -28 -16q32 42 32 106zM544 230q178 -88 335 -35v-13q-82 -44 -222 -39q-111 4 -186 41q-81 40 -150 108 q-16 16 -28 31l-87 105q-1 0 -21 -2v-131q1 -19 45 -20v-12h-88q-3 52 -3 62v308q0 12 3 62h95q63 0 86 -61q9 -26 9 -59q0 -67 -43 -103l73 -89q64 -79 116 -115q29 -19 66 -38zM185 453q72 4 90 48q9 23 9 61q0 86 -42 103q-14 5 -32 5h-25v-217zM528 195l2 3 q-101 52 -198 162l-72 90l-15 -10l74 -92q96 -112 209 -153zM707 257q-133 0 -168 138q-10 42 -11 91q0 167 115 205q30 9 65 9q39 0 91 -19q2 -1 3 -1q27 -11 35 2l2 4l11 -4l-30 -98l-11 4q6 43 -19 63q-28 21 -82 21q-132 -2 -132 -181q0 -154 84 -194q26 -11 57 -12 q76 0 124 54q5 5 9 10l9 -22q-49 -69 -150 -69q-1 -1 -2 -1zM576 287q-104 54 -114 170q-1 11 -1 22q0 115 95 178q3 1 5 3q-52 -63 -52 -175q0 -133 67 -198zM75 34v2h24v-2q-3 -1 -4 -3v-16q0 -3 1 -5q-11 -10 -29 -10q-28 0 -35 26q-2 7 -2 12q0 31 30 37q5 0 9 1 q9 -1 16 -4q3 1 4 2h2v-16l-2 1q-3 12 -20 12q-26 -2 -28 -30q0 -32 23 -36q3 -1 6 -1q8 1 15 4v20q-1 5 -10 6zM193 33l19 -25q5 -5 11 -5v-2h-21q1 3 0 4l-18 25q-5 0 -10 -1v-23q2 -3 8 -3v-2h-25v2q5 1 7 3v63q-2 3 -7 4v2h27q23 -2 25 -19q-1 -14 -16 -23zM174 33 q22 3 23 22q-2 15 -16 16h-7v-38zM304 76l27 -70q2 -3 5 -3v-2h-21v2q4 1 5 2l-8 20h-24l-7 -20l3 -2h4v-2h-18v2q5 1 6 2l25 70zM289 29h22l-11 31zM418 75q22 0 25 -18v-3q0 -21 -26 -26q-4 -1 -9 -1v-21q2 -3 9 -3v-2h-26v2q6 1 7 3v63q-1 3 -7 4v2h27zM408 31 q23 2 24 21q-2 18 -17 19h-7v-40zM548 73v2h23v-2q-6 -1 -7 -4v-63q1 -3 7 -3v-2h-23v2q4 1 5 3v32h-36v-32q2 -3 6 -3v-2h-23v2q5 1 7 3v63q-2 3 -7 4v2h23v-2q-5 -1 -6 -4v-27h36v27q-1 3 -5 4zM630 73v2h23v-2q-5 -1 -6 -3v-64q1 -3 6 -3v-2h-23v2q5 1 6 3v64q-1 2 -6 3z M751 4q14 1 21 10l2 -3q-9 -11 -25 -11q-30 0 -37 27q-1 6 -1 11q0 29 28 36q6 1 11 2q7 -1 14 -3q5 -1 6 0h2l-5 -16l-1 1q0 8 -4 10q-5 3 -13 3q-24 0 -26 -26q-1 -3 -1 -5q0 -30 23 -35q3 -1 6 -1zM859 44q18 -12 18 -23q-5 -18 -24 -21q-7 0 -15 4q-5 1 -7 -1l-1 1l5 18 l2 -1q1 -14 15 -17q14 1 15 13q-1 11 -21 22q-13 9 -13 18q1 18 21 19q5 0 11 -3q5 0 6 1h2l-5 -15l-1 1q0 11 -13 11q-11 -1 -12 -10q0 -7 13 -15q3 -1 4 -2z" glyph-name="ecircumflex" unicode="ê"/>
<glyph d="M544 230q178 -88 335 -35v-13q-82 -44 -222 -39q-111 4 -186 41q-81 40 -150 108q-16 16 -28 31l-87 105q-1 0 -21 -2v-131q1 -19 45 -20v-12h-88q-3 52 -3 62v308q0 12 3 62h95q63 0 86 -61q9 -26 9 -59q0 -67 -43 -103l73 -89q64 -79 116 -115q29 -19 66 -38zM185 453 q72 4 90 48q9 23 9 61q0 86 -42 103q-14 5 -32 5h-25v-217zM528 195l2 3q-101 52 -198 162l-72 90l-15 -10l74 -92q96 -112 209 -153zM32 695h86q3 -52 3 -62v-308q0 -13 -3 -62h-86v12q39 3 43 20v367q-3 19 -43 20v13zM350 576q0 78 -42 112q77 -21 89 -82q2 -10 2 -20 q0 -60 -53 -100q-15 -11 -28 -16q32 42 32 106zM707 257q-133 0 -168 138q-10 42 -11 91q0 167 115 205q30 9 65 9q39 0 91 -19q2 -1 3 -1q27 -11 35 2l2 4l11 -4l-30 -98l-11 4q6 43 -19 63q-28 21 -82 21q-132 -2 -132 -181q0 -154 84 -194q26 -11 57 -12q76 0 124 54 q5 5 9 10l9 -22q-49 -69 -150 -69q-1 -1 -2 -1zM576 287q-104 54 -114 170q-1 11 -1 22q0 115 95 178q3 1 5 3q-52 -63 -52 -175q0 -133 67 -198zM75 34v2h24v-2q-3 -1 -4 -3v-16q0 -3 1 -5q-11 -10 -29 -10q-28 0 -35 26q-2 7 -2 12q0 31 30 37q5 0 9 1q9 -1 16 -4q3 1 4 2 h2v-16l-2 1q-3 12 -20 12q-26 0 -27 -28l-1 -2q0 -32 23 -36q3 -1 6 -1q8 1 15 4v20q-1 5 -10 6zM193 33l19 -25q5 -5 11 -5v-2h-21q1 3 0 4l-18 25q-5 0 -10 -1v-23q2 -3 8 -3v-2h-25v2q5 1 7 3v63q-2 3 -7 4v2h27q23 -2 25 -19q-1 -14 -16 -23zM174 33q22 3 23 22 q-2 15 -16 16h-7v-38zM304 76l27 -70q2 -3 5 -3v-2h-21v2q4 1 5 2l-8 20h-24l-7 -20l3 -2h4v-2h-18v2q5 1 6 2l25 70zM289 29h22l-11 31zM418 75q22 0 25 -18v-3q0 -21 -26 -26q-4 -1 -9 -1v-21q2 -3 9 -3v-2h-26v2q6 1 7 3v63q-1 3 -7 4v2h27zM408 31q23 2 24 21 q-2 18 -17 19h-7v-40zM548 73v2h23v-2q-6 -1 -7 -4v-63q1 -3 7 -3v-2h-23v2q4 1 5 3v32h-36v-32q2 -3 6 -3v-2h-23v2q5 1 7 3v63q-2 3 -7 4v2h23v-2q-5 -1 -6 -4v-27h36v27q-1 3 -5 4zM630 73v2h23v-2q-5 -1 -6 -3v-64q1 -3 6 -3v-2h-23v2q5 1 6 3v64q-1 2 -6 3zM751 4 q14 1 21 10l2 -3q-9 -11 -25 -11q-30 0 -37 27q-1 6 -1 11q0 29 28 36q6 1 11 2q7 -1 14 -3q5 -1 6 0h2l-5 -16l-1 1q0 8 -4 10q-5 3 -13 3q-24 0 -26 -26q-1 -3 -1 -5q0 -30 23 -35q3 -1 6 -1zM859 44q18 -12 18 -23q-5 -18 -24 -21q-7 0 -15 4q-5 1 -7 -1l-1 1l5 18l2 -1 q1 -14 15 -17q14 1 15 13q-1 11 -21 22q-13 9 -13 18q1 18 21 19q5 0 11 -3q5 0 6 1h2l-5 -15l-1 1q0 11 -13 11q-11 -1 -12 -10q0 -7 13 -15q3 -1 4 -2z" glyph-name="edieresis" unicode="ë"/>
<glyph d="M32 695h86q3 -52 3 -62v-308q0 -13 -3 -62h-86v12q39 3 43 20v367q-3 19 -43 20v13zM350 576q0 78 -42 112q77 -21 89 -82q2 -10 2 -20q0 -60 -53 -100q-15 -11 -28 -16q32 42 32 106zM544 230q178 -88 335 -35v-13q-82 -44 -222 -39q-111 4 -186 41q-81 40 -150 108 q-16 16 -28 31l-87 105q-1 0 -21 -2v-131q1 -19 45 -20v-12h-88q-3 52 -3 62v308q0 12 3 62h95q63 0 86 -61q9 -26 9 -59q0 -67 -43 -103l73 -89q64 -79 116 -115q29 -19 66 -38zM185 453q72 4 90 48q9 23 9 61q0 86 -42 103q-14 5 -32 5h-25v-217zM528 195l2 3 q-101 52 -198 162l-72 90l-15 -10l74 -92q96 -112 209 -153zM707 257q-133 0 -168 138q-10 42 -11 91q0 167 115 205q30 9 65 9q39 0 91 -19q2 -1 3 -1q27 -11 35 2l2 4l11 -4l-30 -98l-11 4q6 43 -19 63q-28 21 -82 21q-132 -2 -132 -181q0 -154 84 -194q26 -11 57 -12 q76 0 124 54q5 5 9 10l9 -22q-49 -69 -150 -69q-1 -1 -2 -1zM576 287q-104 54 -114 170q-1 11 -1 22q0 115 95 178q3 1 5 3q-52 -63 -52 -175q0 -133 67 -198zM75 34v2h24v-2q-3 -1 -4 -3v-16q0 -3 1 -5q-11 -10 -29 -10q-28 0 -35 26q-2 7 -2 12q0 31 30 37q5 0 9 1 q9 -1 16 -4q3 1 4 2h2v-16l-2 1q-3 12 -20 12q-26 -2 -28 -30q0 -32 23 -36q3 -1 6 -1q8 1 15 4v20q-1 5 -10 6zM193 33l19 -25q5 -5 11 -5v-2h-21q1 3 0 4l-18 25q-5 0 -10 -1v-23q2 -3 8 -3v-2h-25v2q5 1 7 3v63q-2 3 -7 4v2h27q23 -2 25 -19q-1 -14 -16 -23zM174 33 q22 3 23 22q-2 15 -16 16h-7v-38zM304 76l27 -70q2 -3 5 -3v-2h-21v2q4 1 5 2l-8 20h-24l-7 -20l3 -2h4v-2h-18v2q5 1 6 2l25 70zM289 29h22l-11 31zM418 75q22 0 25 -18v-3q0 -21 -26 -26q-4 -1 -9 -1v-21q2 -3 9 -3v-2h-26v2q6 1 7 3v63q-1 3 -7 4v2h27zM408 31 q23 2 24 21q-2 18 -17 19h-7v-40zM548 73v2h23v-2q-6 -1 -7 -4v-63q1 -3 7 -3v-2h-23v2q4 1 5 3v32h-36v-32q2 -3 6 -3v-2h-23v2q5 1 7 3v63q-2 3 -7 4v2h23v-2q-5 -1 -6 -4v-27h36v27q-1 3 -5 4zM630 73v2h23v-2q-5 -1 -6 -3v-64q1 -3 6 -3v-2h-23v2q5 1 6 3v64q-1 2 -6 3z M751 4q14 1 21 10l2 -3q-9 -11 -25 -11q-30 0 -37 27q-1 6 -1 11q0 29 28 36q6 1 11 2q7 -1 14 -3q5 -1 6 0h2l-5 -16l-1 1q0 8 -4 10q-5 3 -13 3q-24 0 -26 -26q-1 -3 -1 -5q0 -30 23 -35q3 -1 6 -1zM859 44q18 -12 18 -23q-5 -18 -24 -21q-7 0 -15 4q-5 1 -7 -1l-1 1l5 18 l2 -1q1 -14 15 -17q14 1 15 13q-1 11 -21 22q-13 9 -13 18q1 18 21 19q5 0 11 -3q5 0 6 1h2l-5 -15l-1 1q0 11 -13 11q-11 -1 -12 -10q0 -7 13 -15q3 -1 4 -2z" glyph-name="igrave" unicode="ì"/>
<glyph d="M32 695h86q3 -52 3 -62v-308q0 -13 -3 -62h-86v12q39 3 43 20v367q-3 19 -43 20v13zM544 230q178 -88 335 -35v-13q-82 -44 -222 -39q-111 4 -186 41q-81 40 -150 108q-16 16 -28 31l-87 105q-1 0 -21 -2v-131q1 -19 45 -20v-12h-88q-3 52 -3 62v308q0 12 3 62h95 q63 0 86 -61q9 -26 9 -59q0 -67 -43 -103l73 -89q64 -79 116 -115q29 -19 66 -38zM185 453q72 4 90 48q9 23 9 61q0 86 -42 103q-14 5 -32 5h-25v-217zM528 195l2 3q-101 52 -198 162l-72 90l-15 -10l74 -92q96 -112 209 -153zM350 576q0 78 -42 112q77 -21 89 -82 q2 -10 2 -20q0 -60 -53 -100q-15 -11 -28 -16q32 42 32 106zM576 287q-104 54 -114 170q-1 11 -1 22q0 115 95 178q3 1 5 3q-52 -63 -52 -175q0 -133 67 -198zM707 257q-133 0 -168 138q-10 42 -11 91q0 167 115 205q30 9 65 9q39 0 91 -19q2 -1 3 -1q27 -11 35 2l2 4l11 -4 l-30 -98l-11 4q6 43 -19 63q-28 21 -82 21q-132 -2 -132 -181q0 -154 84 -194q26 -11 57 -12q76 0 124 54q5 5 9 10l9 -22q-49 -69 -150 -69q-1 -1 -2 -1zM75 34v2h24v-2q-3 -1 -4 -3v-16q0 -3 1 -5q-11 -10 -29 -10q-28 0 -35 26q-2 7 -2 12q0 31 30 37q5 0 9 1q9 -1 16 -4 q3 1 4 2h2v-16l-2 1q-3 12 -20 12q-26 0 -27 -28l-1 -2q0 -32 23 -36q3 -1 6 -1q8 1 15 4v20q-1 5 -10 6zM193 33l19 -25q5 -5 11 -5v-2h-21q1 3 0 4l-18 25q-5 0 -10 -1v-23q2 -3 8 -3v-2h-25v2q5 1 7 3v63q-2 3 -7 4v2h27q23 -2 25 -19q-1 -14 -16 -23zM174 33q22 3 23 22 q-2 15 -16 16h-7v-38zM304 76l27 -70q2 -3 5 -3v-2h-21v2q4 1 5 2l-8 20h-24l-7 -20l3 -2h4v-2h-18v2q5 1 6 2l25 70zM289 29h22l-11 31zM418 75q22 0 25 -18v-3q0 -21 -26 -26q-4 -1 -9 -1v-21q2 -3 9 -3v-2h-26v2q6 1 7 3v63q-1 3 -7 4v2h27zM408 31q23 2 24 21 q-2 18 -17 19h-7v-40zM548 73v2h23v-2q-6 -1 -7 -4v-63q1 -3 7 -3v-2h-23v2q4 1 5 3v32h-36v-32q2 -3 6 -3v-2h-23v2q5 1 7 3v63q-2 3 -7 4v2h23v-2q-5 -1 -6 -4v-27h36v27q-1 3 -5 4zM630 73v2h23v-2q-5 -1 -6 -3v-64q1 -3 6 -3v-2h-23v2q5 1 6 3v64q-1 2 -6 3zM751 4 q14 1 21 10l2 -3q-9 -11 -25 -11q-30 0 -37 27q-1 6 -1 11q0 29 28 36q6 1 11 2q7 -1 14 -3q5 -1 6 0h2l-5 -16l-1 1q0 8 -4 10q-5 3 -13 3q-24 0 -26 -26q-1 -3 -1 -5q0 -30 23 -35q3 -1 6 -1zM859 44q18 -12 18 -23q-5 -18 -24 -21q-7 0 -15 4q-5 1 -7 -1l-1 1l5 18l2 -1 q1 -14 15 -17q14 1 15 13q-1 11 -21 22q-13 9 -13 18q1 18 21 19q5 0 11 -3q5 0 6 1h2l-5 -15l-1 1q0 11 -13 11q-11 -1 -12 -10q0 -7 13 -15q3 -1 4 -2z" glyph-name="iacute" unicode="í"/>
<glyph d="M544 230q178 -88 335 -35v-13q-82 -44 -222 -39q-111 4 -186 41q-81 40 -150 108q-16 16 -28 31l-87 105q-1 0 -21 -2v-131q1 -19 45 -20v-12h-88q-3 52 -3 62v308q0 12 3 62h95q63 0 86 -61q9 -26 9 -59q0 -67 -43 -103l73 -89q64 -79 116 -115q29 -19 66 -38zM185 453 q72 4 90 48q9 23 9 61q0 86 -42 103q-14 5 -32 5h-25v-217zM528 195l2 3q-101 52 -198 162l-72 90l-15 -10l74 -92q96 -112 209 -153zM32 695h86q3 -52 3 -62v-308q0 -13 -3 -62h-86v12q39 3 43 20v367q-3 19 -43 20v13zM350 576q0 78 -42 112q77 -21 89 -82q2 -10 2 -20 q0 -60 -53 -100q-15 -11 -28 -16q32 42 32 106zM707 257q-133 0 -168 138q-10 42 -11 91q0 167 115 205q30 9 65 9q39 0 91 -19q2 -1 3 -1q27 -11 35 2l2 4l11 -4l-30 -98l-11 4q6 43 -19 63q-28 21 -82 21q-132 -2 -132 -181q0 -154 84 -194q26 -11 57 -12q76 0 124 54 q5 5 9 10l9 -22q-49 -69 -150 -69q-1 -1 -2 -1zM576 287q-104 54 -114 170q-1 11 -1 22q0 115 95 178q3 1 5 3q-52 -63 -52 -175q0 -133 67 -198zM75 34v2h24v-2q-3 -1 -4 -3v-16q0 -3 1 -5q-11 -10 -29 -10q-28 0 -35 26q-2 7 -2 12q0 31 30 37q5 0 9 1q9 -1 16 -4q3 1 4 2 h2v-16l-2 1q-3 12 -20 12q-26 0 -27 -28l-1 -2q0 -32 23 -36q3 -1 6 -1q8 1 15 4v20q-1 5 -10 6zM193 33l19 -25q5 -5 11 -5v-2h-21q1 3 0 4l-18 25q-5 0 -10 -1v-23q2 -3 8 -3v-2h-25v2q5 1 7 3v63q-2 3 -7 4v2h27q23 -2 25 -19q-1 -14 -16 -23zM174 33q22 3 23 22 q-2 15 -16 16h-7v-38zM304 76l27 -70q2 -3 5 -3v-2h-21v2q4 1 5 2l-8 20h-24l-7 -20l3 -2h4v-2h-18v2q5 1 6 2l25 70zM289 29h22l-11 31zM418 75q22 0 25 -18v-3q0 -21 -26 -26q-4 -1 -9 -1v-21q2 -3 9 -3v-2h-26v2q6 1 7 3v63q-1 3 -7 4v2h27zM408 31q23 2 24 21 q-2 18 -17 19h-7v-40zM548 73v2h23v-2q-6 -1 -7 -4v-63q1 -3 7 -3v-2h-23v2q4 1 5 3v32h-36v-32q2 -3 6 -3v-2h-23v2q5 1 7 3v63q-2 3 -7 4v2h23v-2q-5 -1 -6 -4v-27h36v27q-1 3 -5 4zM630 73v2h23v-2q-5 -1 -6 -3v-64q1 -3 6 -3v-2h-23v2q5 1 6 3v64q-1 2 -6 3zM751 4 q14 1 21 10l2 -3q-9 -11 -25 -11q-30 0 -37 27q-1 6 -1 11q0 29 28 36q6 1 11 2q7 -1 14 -3q5 -1 6 0h2l-5 -16l-1 1q0 8 -4 10q-5 3 -13 3q-24 0 -26 -26q-1 -3 -1 -5q0 -30 23 -35q3 -1 6 -1zM859 44q18 -12 18 -23q-5 -18 -24 -21q-7 0 -15 4q-5 1 -7 -1l-1 1l5 18l2 -1 q1 -14 15 -17q14 1 15 13q-1 11 -21 22q-13 9 -13 18q1 18 21 19q5 0 11 -3q5 0 6 1h2l-5 -15l-1 1q0 11 -13 11q-11 -1 -12 -10q0 -7 13 -15q3 -1 4 -2z" glyph-name="icircumflex" unicode="î"/>
<glyph d="M32 695h86q3 -52 3 -62v-308q0 -13 -3 -62h-86v12q39 3 43 20v367q-3 19 -43 20v13zM544 230q178 -88 335 -35v-13q-82 -44 -222 -39q-111 4 -186 41q-81 40 -150 108q-16 16 -28 31l-87 105q-1 0 -21 -2v-131q1 -19 45 -20v-12h-88q-3 52 -3 62v308q0 12 3 62h95 q63 0 86 -61q9 -26 9 -59q0 -67 -43 -103l73 -89q64 -79 116 -115q29 -19 66 -38zM185 453q72 4 90 48q9 23 9 61q0 86 -42 103q-14 5 -32 5h-25v-217zM528 195l2 3q-101 52 -198 162l-72 90l-15 -10l74 -92q96 -112 209 -153zM350 576q0 78 -42 112q77 -21 89 -82 q2 -10 2 -20q0 -60 -53 -100q-15 -11 -28 -16q32 42 32 106zM707 257q-133 0 -168 138q-10 42 -11 91q0 167 115 205q30 9 65 9q39 0 91 -19q2 -1 3 -1q27 -11 35 2l2 4l11 -4l-30 -98l-11 4q6 43 -19 63q-28 21 -82 21q-132 -2 -132 -181q0 -154 84 -194q26 -11 57 -12 q76 0 124 54q5 5 9 10l9 -22q-49 -69 -150 -69q-1 -1 -2 -1zM576 287q-104 54 -114 170q-1 11 -1 22q0 115 95 178q3 1 5 3q-52 -63 -52 -175q0 -133 67 -198zM75 34v2h24v-2q-3 -1 -4 -3v-16q0 -3 1 -5q-11 -10 -29 -10q-28 0 -35 26q-2 7 -2 12q0 31 30 37q5 0 9 1 q9 -1 16 -4q3 1 4 2h2v-16l-2 1q-3 12 -20 12q-26 -2 -28 -30q0 -32 23 -36q3 -1 6 -1q8 1 15 4v20q-1 5 -10 6zM193 33l19 -25q5 -5 11 -5v-2h-21q1 3 0 4l-18 25q-5 0 -10 -1v-23q2 -3 8 -3v-2h-25v2q5 1 7 3v63q-2 3 -7 4v2h27q23 -2 25 -19q-1 -14 -16 -23zM174 33 q22 3 23 22q-2 15 -16 16h-7v-38zM304 76l27 -70q2 -3 5 -3v-2h-21v2q4 1 5 2l-8 20h-24l-7 -20l3 -2h4v-2h-18v2q5 1 6 2l25 70zM289 29h22l-11 31zM418 75q22 0 25 -18v-3q0 -21 -26 -26q-4 -1 -9 -1v-21q2 -3 9 -3v-2h-26v2q6 1 7 3v63q-1 3 -7 4v2h27zM408 31 q23 2 24 21q-2 18 -17 19h-7v-40zM548 73v2h23v-2q-6 -1 -7 -4v-63q1 -3 7 -3v-2h-23v2q4 1 5 3v32h-36v-32q2 -3 6 -3v-2h-23v2q5 1 7 3v63q-2 3 -7 4v2h23v-2q-5 -1 -6 -4v-27h36v27q-1 3 -5 4zM630 73v2h23v-2q-5 -1 -6 -3v-64q1 -3 6 -3v-2h-23v2q5 1 6 3v64q-1 2 -6 3z M751 4q14 1 21 10l2 -3q-9 -11 -25 -11q-30 0 -37 27q-1 6 -1 11q0 29 28 36q6 1 11 2q7 -1 14 -3q5 -1 6 0h2l-5 -16l-1 1q0 8 -4 10q-5 3 -13 3q-24 0 -26 -26q-1 -3 -1 -5q0 -30 23 -35q3 -1 6 -1zM859 44q18 -12 18 -23q-5 -18 -24 -21q-7 0 -15 4q-5 1 -7 -1l-1 1l5 18 l2 -1q1 -14 15 -17q14 1 15 13q-1 11 -21 22q-13 9 -13 18q1 18 21 19q5 0 11 -3q5 0 6 1h2l-5 -15l-1 1q0 11 -13 11q-11 -1 -12 -10q0 -7 13 -15q3 -1 4 -2z" glyph-name="idieresis" unicode="ï"/>
<glyph d="M350 576q0 78 -42 112q77 -21 89 -82q2 -10 2 -20q0 -60 -53 -100q-15 -11 -28 -16q32 42 32 106zM32 695h86q3 -52 3 -62v-308q0 -13 -3 -62h-86v12q39 3 43 20v367q-3 19 -43 20v13zM544 230q178 -88 335 -35v-13q-82 -44 -222 -39q-111 4 -186 41q-81 40 -150 108 q-16 16 -28 31l-87 105q-1 0 -21 -2v-131q1 -19 45 -20v-12h-88q-3 52 -3 62v308q0 12 3 62h95q63 0 86 -61q9 -26 9 -59q0 -67 -43 -103l73 -89q64 -79 116 -115q29 -19 66 -38zM185 453q72 4 90 48q9 23 9 61q0 86 -42 103q-14 5 -32 5h-25v-217zM528 195l2 3 q-101 52 -198 162l-72 90l-15 -10l74 -92q96 -112 209 -153zM576 287q-104 54 -114 170q-1 11 -1 22q0 115 95 178q3 1 5 3q-52 -63 -52 -175q0 -133 67 -198zM707 257q-133 0 -168 138q-10 42 -11 91q0 167 115 205q30 9 65 9q39 0 91 -19q2 -1 3 -1q27 -11 35 2l2 4l11 -4 l-30 -98l-11 4q6 43 -19 63q-28 21 -82 21q-132 -2 -132 -181q0 -154 84 -194q26 -11 57 -12q76 0 124 54q5 5 9 10l9 -22q-51 -69 -152 -70zM75 34v2h24v-2q-3 -1 -4 -3v-16q0 -3 1 -5q-11 -10 -29 -10q-28 0 -35 26q-2 7 -2 12q0 31 30 37q5 0 9 1q9 -1 16 -4q3 1 4 2h2 v-16l-2 1q-3 12 -20 12q-26 0 -27 -28l-1 -2q0 -32 23 -36q3 -1 6 -1q8 1 15 4v20q-1 5 -10 6zM193 33l19 -25q5 -5 11 -5v-2h-21q1 3 0 4l-18 25q-5 0 -10 -1v-23q2 -3 8 -3v-2h-25v2q5 1 7 3v63q-2 3 -7 4v2h27q23 -2 25 -19q-1 -14 -16 -23zM174 33q22 3 23 22 q-2 15 -16 16h-7v-38zM304 76l27 -70q2 -3 5 -3v-2h-21v2q4 1 5 2l-8 20h-24l-7 -20l3 -2h4v-2h-18v2q5 1 6 2l25 70zM289 29h22l-11 31zM418 75q22 0 25 -18v-3q0 -21 -26 -26q-4 -1 -9 -1v-21q2 -3 9 -3v-2h-26v2q6 1 7 3v63q-1 3 -7 4v2h27zM408 31q23 2 24 21 q-2 18 -17 19h-7v-40zM548 73v2h23v-2q-6 -1 -7 -4v-63q1 -3 7 -3v-2h-23v2q4 1 5 3v32h-36v-32q2 -3 6 -3v-2h-23v2q5 1 7 3v63q-2 3 -7 4v2h23v-2q-5 -1 -6 -4v-27h36v27q-1 3 -5 4zM630 73v2h23v-2q-5 -1 -6 -3v-64q1 -3 6 -3v-2h-23v2q5 1 6 3v64q-1 2 -6 3zM751 4 q14 1 21 10l2 -3q-9 -11 -25 -11q-30 0 -37 27q-1 6 -1 11q0 29 28 36q6 1 11 2q7 -1 14 -3q5 -1 6 0h2l-5 -16l-1 1q0 8 -4 10q-5 3 -13 3q-24 0 -26 -26q-1 -3 -1 -5q0 -30 23 -35q3 -1 6 -1zM859 44q18 -12 18 -23q-5 -18 -24 -21q-7 0 -15 4q-5 1 -7 -1l-1 1l5 18l2 -1 q1 -14 15 -17q14 1 15 13q-1 11 -21 22q-13 9 -13 18q1 18 21 19q5 0 11 -3q5 0 6 1h2l-5 -15l-1 1q0 10 -13 11q-11 -1 -12 -10q0 -7 13 -15q3 -1 4 -2z" glyph-name="ntilde" unicode="ñ"/>
<glyph d="M32 695h86q3 -52 3 -62v-308q0 -13 -3 -62h-86v12q39 3 43 20v367q-3 19 -43 20v13zM350 576q0 78 -42 112q77 -21 89 -82q2 -10 2 -20q0 -60 -53 -100q-15 -11 -28 -16q32 42 32 106zM544 230q178 -88 335 -35v-13q-82 -44 -222 -39q-111 4 -186 41q-81 40 -150 108 q-16 16 -28 31l-87 105q-1 0 -21 -2v-131q1 -19 45 -20v-12h-88q-3 52 -3 62v308q0 12 3 62h95q63 0 86 -61q9 -26 9 -59q0 -67 -43 -103l73 -89q64 -79 116 -115q29 -19 66 -38zM185 453q72 4 90 48q9 23 9 61q0 86 -42 103q-14 5 -32 5h-25v-217zM528 195l2 3 q-101 52 -198 162l-72 90l-15 -10l74 -92q96 -112 209 -153zM576 287q-104 54 -114 170q-1 11 -1 22q0 115 95 178q3 1 5 3q-52 -63 -52 -175q0 -133 67 -198zM707 257q-133 0 -168 138q-10 42 -11 91q0 167 115 205q30 9 65 9q39 0 91 -19q2 -1 3 -1q27 -11 35 2l2 4l11 -4 l-30 -98l-11 4q6 43 -19 63q-28 21 -82 21q-132 -2 -132 -181q0 -154 84 -194q26 -11 57 -12q76 0 124 54q5 5 9 10l9 -22q-49 -69 -150 -69q-1 -1 -2 -1zM75 34v2h24v-2q-3 -1 -4 -3v-16q0 -3 1 -5q-11 -10 -29 -10q-28 0 -35 26q-2 7 -2 12q0 31 30 37q5 0 9 1q9 -1 16 -4 q3 1 4 2h2v-16l-2 1q-3 12 -20 12q-26 0 -27 -28l-1 -2q0 -32 23 -36q3 -1 6 -1q8 1 15 4v20q-1 5 -10 6zM193 33l19 -25q5 -5 11 -5v-2h-21q1 3 0 4l-18 25q-5 0 -10 -1v-23q2 -3 8 -3v-2h-25v2q5 1 7 3v63q-2 3 -7 4v2h27q23 -2 25 -19q-1 -14 -16 -23zM174 33q22 3 23 22 q-2 15 -16 16h-7v-38zM304 76l27 -70q2 -3 5 -3v-2h-21v2q4 1 5 2l-8 20h-24l-7 -20l3 -2h4v-2h-18v2q5 1 6 2l25 70zM289 29h22l-11 31zM418 75q22 0 25 -18v-3q0 -21 -26 -26q-4 -1 -9 -1v-21q2 -3 9 -3v-2h-26v2q6 1 7 3v63q-1 3 -7 4v2h27zM408 31q23 2 24 21 q-2 18 -17 19h-7v-40zM548 73v2h23v-2q-6 -1 -7 -4v-63q1 -3 7 -3v-2h-23v2q4 1 5 3v32h-36v-32q2 -3 6 -3v-2h-23v2q5 1 7 3v63q-2 3 -7 4v2h23v-2q-5 -1 -6 -4v-27h36v27q-1 3 -5 4zM630 73v2h23v-2q-5 -1 -6 -3v-64q1 -3 6 -3v-2h-23v2q5 1 6 3v64q-1 2 -6 3zM751 4 q14 1 21 10l2 -3q-9 -11 -25 -11q-30 0 -37 27q-1 6 -1 11q0 29 28 36q6 1 11 2q7 -1 14 -3q5 -1 6 0h2l-5 -16l-1 1q0 8 -4 10q-5 3 -13 3q-24 0 -26 -26q-1 -3 -1 -5q0 -30 23 -35q3 -1 6 -1zM859 44q18 -12 18 -23q-5 -18 -24 -21q-7 0 -15 4q-5 1 -7 -1l-1 1l5 18l2 -1 q1 -14 15 -17q14 1 15 13q-1 11 -21 22q-13 9 -13 18q1 18 21 19q5 0 11 -3q5 0 6 1h2l-5 -15l-1 1q0 11 -13 11q-11 -1 -12 -10q0 -7 13 -15q3 -1 4 -2z" glyph-name="ograve" unicode="ò"/>
<glyph d="M32 695h86q3 -52 3 -62v-308q0 -13 -3 -62h-86v12q39 3 43 20v367q-3 19 -43 20v13zM350 576q0 78 -42 112q77 -21 89 -82q2 -10 2 -20q0 -60 -53 -100q-15 -11 -28 -16q32 42 32 106zM544 230q178 -88 335 -35v-13q-82 -44 -222 -39q-111 4 -186 41q-81 40 -150 108 q-16 16 -28 31l-87 105q-1 0 -21 -2v-131q1 -19 45 -20v-12h-88q-3 52 -3 62v308q0 12 3 62h95q63 0 86 -61q9 -26 9 -59q0 -67 -43 -103l73 -89q64 -79 116 -115q29 -19 66 -38zM185 453q72 4 90 48q9 23 9 61q0 86 -42 103q-14 5 -32 5h-25v-217zM528 195l2 3 q-101 52 -198 162l-72 90l-15 -10l74 -92q96 -112 209 -153zM707 257q-133 0 -168 138q-10 42 -11 91q0 167 115 205q30 9 65 9q39 0 91 -19q2 -1 3 -1q27 -11 35 2l2 4l11 -4l-30 -98l-11 4q6 43 -19 63q-28 21 -82 21q-132 -2 -132 -181q0 -154 84 -194q26 -11 57 -12 q76 0 124 54q5 5 9 10l9 -22q-49 -69 -150 -69q-1 -1 -2 -1zM576 287q-104 54 -114 170q-1 11 -1 22q0 115 95 178q3 1 5 3q-52 -63 -52 -175q0 -133 67 -198zM75 34v2h24v-2q-3 -1 -4 -3v-16q0 -3 1 -5q-11 -10 -29 -10q-28 0 -35 26q-2 7 -2 12q0 31 30 37q5 0 9 1 q9 -1 16 -4q3 1 4 2h2v-16l-2 1q-3 12 -20 12q-26 -2 -28 -30q0 -32 23 -36q3 -1 6 -1q8 1 15 4v20q-1 5 -10 6zM193 33l19 -25q5 -5 11 -5v-2h-21q1 3 0 4l-18 25q-5 0 -10 -1v-23q2 -3 8 -3v-2h-25v2q5 1 7 3v63q-2 3 -7 4v2h27q23 -2 25 -19q-1 -14 -16 -23zM174 33 q22 3 23 22q-2 15 -16 16h-7v-38zM304 76l27 -70q2 -3 5 -3v-2h-21v2q4 1 5 2l-8 20h-24l-7 -20l3 -2h4v-2h-18v2q5 1 6 2l25 70zM289 29h22l-11 31zM418 75q22 0 25 -18v-3q0 -21 -26 -26q-4 -1 -9 -1v-21q2 -3 9 -3v-2h-26v2q6 1 7 3v63q-1 3 -7 4v2h27zM408 31 q23 2 24 21q-2 18 -17 19h-7v-40zM548 73v2h23v-2q-6 -1 -7 -4v-63q1 -3 7 -3v-2h-23v2q4 1 5 3v32h-36v-32q2 -3 6 -3v-2h-23v2q5 1 7 3v63q-2 3 -7 4v2h23v-2q-5 -1 -6 -4v-27h36v27q-1 3 -5 4zM630 73v2h23v-2q-5 -1 -6 -3v-64q1 -3 6 -3v-2h-23v2q5 1 6 3v64q-1 2 -6 3z M751 4q14 1 21 10l2 -3q-9 -11 -25 -11q-30 0 -37 27q-1 6 -1 11q0 29 28 36q6 1 11 2q7 -1 14 -3q5 -1 6 0h2l-5 -16l-1 1q0 8 -4 10q-5 3 -13 3q-24 0 -26 -26q-1 -3 -1 -5q0 -30 23 -35q3 -1 6 -1zM859 44q18 -12 18 -23q-5 -18 -24 -21q-7 0 -15 4q-5 1 -7 -1l-1 1l5 18 l2 -1q1 -14 15 -17q14 1 15 13q-1 11 -21 22q-13 9 -13 18q1 18 21 19q5 0 11 -3q5 0 6 1h2l-5 -15l-1 1q0 11 -13 11q-11 -1 -12 -10q0 -7 13 -15q3 -1 4 -2z" glyph-name="oacute" unicode="ó"/>
<glyph d="M32 695h86q3 -52 3 -62v-308q0 -13 -3 -62h-86v12q39 3 43 20v367q-3 19 -43 20v13zM544 230q178 -88 335 -35v-13q-82 -44 -222 -39q-111 4 -186 41q-81 40 -150 108q-16 16 -28 31l-87 105q-1 0 -21 -2v-131q1 -19 45 -20v-12h-88q-3 52 -3 62v308q0 12 3 62h95 q63 0 86 -61q9 -26 9 -59q0 -67 -43 -103l73 -89q64 -79 116 -115q29 -19 66 -38zM185 453q72 4 90 48q9 23 9 61q0 86 -42 103q-14 5 -32 5h-25v-217zM528 195l2 3q-101 52 -198 162l-72 90l-15 -10l74 -92q96 -112 209 -153zM350 576q0 78 -42 112q77 -21 89 -82 q2 -10 2 -20q0 -60 -53 -100q-15 -11 -28 -16q32 42 32 106zM707 257q-133 0 -168 138q-10 42 -11 91q0 167 115 205q30 9 65 9q39 0 91 -19q2 -1 3 -1q27 -11 35 2l2 4l11 -4l-30 -98l-11 4q6 43 -19 63q-28 21 -82 21q-132 -2 -132 -181q0 -154 84 -194q26 -11 57 -12 q76 0 124 54q5 5 9 10l9 -22q-49 -69 -150 -69q-1 -1 -2 -1zM576 287q-104 54 -114 170q-1 11 -1 22q0 115 95 178q3 1 5 3q-52 -63 -52 -175q0 -133 67 -198zM75 34v2h24v-2q-3 -1 -4 -3v-16q0 -3 1 -5q-11 -10 -29 -10q-28 0 -35 26q-2 7 -2 12q0 31 30 37q5 0 9 1 q9 -1 16 -4q3 1 4 2h2v-16l-2 1q-3 12 -20 12q-26 -2 -28 -30q0 -32 23 -36q3 -1 6 -1q8 1 15 4v20q-1 5 -10 6zM193 33l19 -25q5 -5 11 -5v-2h-21q1 3 0 4l-18 25q-5 0 -10 -1v-23q2 -3 8 -3v-2h-25v2q5 1 7 3v63q-2 3 -7 4v2h27q23 -2 25 -19q-1 -14 -16 -23zM174 33 q22 3 23 22q-2 15 -16 16h-7v-38zM304 76l27 -70q2 -3 5 -3v-2h-21v2q4 1 5 2l-8 20h-24l-7 -20l3 -2h4v-2h-18v2q5 1 6 2l25 70zM289 29h22l-11 31zM418 75q22 0 25 -18v-3q0 -21 -26 -26q-4 -1 -9 -1v-21q2 -3 9 -3v-2h-26v2q6 1 7 3v63q-1 3 -7 4v2h27zM408 31 q23 2 24 21q-2 18 -17 19h-7v-40zM548 73v2h23v-2q-6 -1 -7 -4v-63q1 -3 7 -3v-2h-23v2q4 1 5 3v32h-36v-32q2 -3 6 -3v-2h-23v2q5 1 7 3v63q-2 3 -7 4v2h23v-2q-5 -1 -6 -4v-27h36v27q-1 3 -5 4zM630 73v2h23v-2q-5 -1 -6 -3v-64q1 -3 6 -3v-2h-23v2q5 1 6 3v64q-1 2 -6 3z M751 4q14 1 21 10l2 -3q-9 -11 -25 -11q-30 0 -37 27q-1 6 -1 11q0 29 28 36q6 1 11 2q7 -1 14 -3q5 -1 6 0h2l-5 -16l-1 1q0 8 -4 10q-5 3 -13 3q-24 0 -26 -26q-1 -3 -1 -5q0 -30 23 -35q3 -1 6 -1zM859 44q18 -12 18 -23q-5 -18 -24 -21q-7 0 -15 4q-5 1 -7 -1l-1 1l5 18 l2 -1q1 -14 15 -17q14 1 15 13q-1 11 -21 22q-13 9 -13 18q1 18 21 19q5 0 11 -3q5 0 6 1h2l-5 -15l-1 1q0 11 -13 11q-11 -1 -12 -10q0 -7 13 -15q3 -1 4 -2z" glyph-name="ocircumflex" unicode="ô"/>
<glyph d="M544 230q178 -88 335 -35v-13q-82 -44 -222 -39q-111 4 -186 41q-81 40 -150 108q-16 16 -28 31l-87 105q-1 0 -21 -2v-131q1 -19 45 -20v-12h-88q-3 52 -3 62v308q0 12 3 62h95q63 0 86 -61q9 -26 9 -59q0 -67 -43 -103l73 -89q64 -79 116 -115q29 -19 66 -38zM185 453 q72 4 90 48q9 23 9 61q0 86 -42 103q-14 5 -32 5h-25v-217zM528 195l2 3q-101 52 -198 162l-72 90l-15 -10l74 -92q96 -112 209 -153zM32 695h86q3 -52 3 -62v-308q0 -13 -3 -62h-86v12q39 3 43 20v367q-3 19 -43 20v13zM350 576q0 78 -42 112q77 -21 89 -82q2 -10 2 -20 q0 -60 -53 -100q-15 -11 -28 -16q32 42 32 106zM707 257q-133 0 -168 138q-10 42 -11 91q0 167 115 205q30 9 65 9q39 0 91 -19q2 -1 3 -1q27 -11 35 2l2 4l11 -4l-30 -98l-11 4q6 43 -19 63q-28 21 -82 21q-132 -2 -132 -181q0 -154 84 -194q26 -11 57 -12q76 0 124 54 q5 5 9 10l9 -22q-49 -69 -150 -69q-1 -1 -2 -1zM576 287q-104 54 -114 170q-1 11 -1 22q0 115 95 178q3 1 5 3q-52 -63 -52 -175q0 -133 67 -198zM75 34v2h24v-2q-3 -1 -4 -3v-16q0 -3 1 -5q-11 -10 -29 -10q-28 0 -35 26q-2 7 -2 12q0 31 30 37q5 0 9 1q9 -1 16 -4q3 1 4 2 h2v-16l-2 1q-3 12 -20 12q-26 0 -27 -28l-1 -2q0 -32 23 -36q3 -1 6 -1q8 1 15 4v20q-1 5 -10 6zM193 33l19 -25q5 -5 11 -5v-2h-21q1 3 0 4l-18 25q-5 0 -10 -1v-23q2 -3 8 -3v-2h-25v2q5 1 7 3v63q-2 3 -7 4v2h27q23 -2 25 -19q-1 -14 -16 -23zM174 33q22 3 23 22 q-2 15 -16 16h-7v-38zM304 76l27 -70q2 -3 5 -3v-2h-21v2q4 1 5 2l-8 20h-24l-7 -20l3 -2h4v-2h-18v2q5 1 6 2l25 70zM289 29h22l-11 31zM418 75q22 0 25 -18v-3q0 -21 -26 -26q-4 -1 -9 -1v-21q2 -3 9 -3v-2h-26v2q6 1 7 3v63q-1 3 -7 4v2h27zM408 31q23 2 24 21 q-2 18 -17 19h-7v-40zM548 73v2h23v-2q-6 -1 -7 -4v-63q1 -3 7 -3v-2h-23v2q4 1 5 3v32h-36v-32q2 -3 6 -3v-2h-23v2q5 1 7 3v63q-2 3 -7 4v2h23v-2q-5 -1 -6 -4v-27h36v27q-1 3 -5 4zM630 73v2h23v-2q-5 -1 -6 -3v-64q1 -3 6 -3v-2h-23v2q5 1 6 3v64q-1 2 -6 3zM751 4 q14 1 21 10l2 -3q-9 -11 -25 -11q-30 0 -37 27q-1 6 -1 11q0 29 28 36q6 1 11 2q7 -1 14 -3q5 -1 6 0h2l-5 -16l-1 1q0 8 -4 10q-5 3 -13 3q-24 0 -26 -26q-1 -3 -1 -5q0 -30 23 -35q3 -1 6 -1zM859 44q18 -12 18 -23q-5 -18 -24 -21q-7 0 -15 4q-5 1 -7 -1l-1 1l5 18l2 -1 q1 -14 15 -17q14 1 15 13q-1 11 -21 22q-13 9 -13 18q1 18 21 19q5 0 11 -3q5 0 6 1h2l-5 -15l-1 1q0 11 -13 11q-11 -1 -12 -10q0 -7 13 -15q3 -1 4 -2z" glyph-name="otilde" unicode="õ"/>
<glyph d="M350 576q0 78 -42 112q77 -21 89 -82q2 -10 2 -20q0 -60 -53 -100q-15 -11 -28 -16q32 42 32 106zM544 230q178 -88 335 -35v-13q-82 -44 -222 -39q-111 4 -186 41q-81 40 -150 108q-16 16 -28 31l-87 105q-1 0 -21 -2v-131q1 -19 45 -20v-12h-88q-3 52 -3 62v308 q0 12 3 62h95q63 0 86 -61q9 -26 9 -59q0 -67 -43 -103l73 -89q64 -79 116 -115q29 -19 66 -38zM185 453q72 4 90 48q9 23 9 61q0 86 -42 103q-14 5 -32 5h-25v-217zM528 195l2 3q-101 52 -198 162l-72 90l-15 -10l74 -92q96 -112 209 -153zM32 695h86q3 -52 3 -62v-308 q0 -13 -3 -62h-86v12q39 3 43 20v367q-3 19 -43 20v13zM576 287q-104 54 -114 170q-1 11 -1 22q0 115 95 178q3 1 5 3q-52 -63 -52 -175q0 -133 67 -198zM707 257q-133 0 -168 138q-10 42 -11 91q0 167 115 205q30 9 65 9q39 0 91 -19q2 -1 3 -1q27 -11 35 2l2 4l11 -4 l-30 -98l-11 4q6 43 -19 63q-28 21 -82 21q-132 -2 -132 -181q0 -154 84 -194q26 -11 57 -12q76 0 124 54q5 5 9 10l9 -22q-49 -69 -150 -69q-1 -1 -2 -1zM75 34v2h24v-2q-3 -1 -4 -3v-16q0 -3 1 -5q-11 -10 -29 -10q-28 0 -35 26q-2 7 -2 12q0 31 30 37q5 0 9 1q9 -1 16 -4 q3 1 4 2h2v-16l-2 1q-3 12 -20 12q-26 0 -27 -28l-1 -2q0 -32 23 -36q3 -1 6 -1q8 1 15 4v20q-1 5 -10 6zM193 33l19 -25q5 -5 11 -5v-2h-21q1 3 0 4l-18 25q-5 0 -10 -1v-23q2 -3 8 -3v-2h-25v2q5 1 7 3v63q-2 3 -7 4v2h27q23 -2 25 -19q-1 -14 -16 -23zM174 33q22 3 23 22 q-2 15 -16 16h-7v-38zM304 76l27 -70q2 -3 5 -3v-2h-21v2q4 1 5 2l-8 20h-24l-7 -20l3 -2h4v-2h-18v2q5 1 6 2l25 70zM289 29h22l-11 31zM418 75q22 0 25 -18v-3q0 -21 -26 -26q-4 -1 -9 -1v-21q2 -3 9 -3v-2h-26v2q6 1 7 3v63q-1 3 -7 4v2h27zM408 31q23 2 24 21 q-2 18 -17 19h-7v-40zM548 73v2h23v-2q-6 -1 -7 -4v-63q1 -3 7 -3v-2h-23v2q4 1 5 3v32h-36v-32q2 -3 6 -3v-2h-23v2q5 1 7 3v63q-2 3 -7 4v2h23v-2q-5 -1 -6 -4v-27h36v27q-1 3 -5 4zM630 73v2h23v-2q-5 -1 -6 -3v-64q1 -3 6 -3v-2h-23v2q5 1 6 3v64q-1 2 -6 3zM751 4 q14 1 21 10l2 -3q-9 -11 -25 -11q-30 0 -37 27q-1 6 -1 11q0 29 28 36q6 1 11 2q7 -1 14 -3q5 -1 6 0h2l-5 -16l-1 1q0 8 -4 10q-5 3 -13 3q-24 0 -26 -26q-1 -3 -1 -5q0 -30 23 -35q3 -1 6 -1zM859 44q18 -12 18 -23q-5 -18 -24 -21q-7 0 -15 4q-5 1 -7 -1l-1 1l5 18l2 -1 q1 -14 15 -17q14 1 15 13q-1 11 -21 22q-13 9 -13 18q1 18 21 19q5 0 11 -3q5 0 6 1h2l-5 -15l-1 1q0 11 -13 11q-11 -1 -12 -10q0 -7 13 -15q3 -1 4 -2z" glyph-name="odieresis" unicode="ö"/>
<glyph d="M32 695h86q3 -52 3 -62v-308q0 -13 -3 -62h-86v12q39 3 43 20v367q-3 19 -43 20v13zM350 576q0 78 -42 112q77 -21 89 -82q2 -10 2 -20q0 -60 -53 -100q-15 -11 -28 -16q32 42 32 106zM544 230q178 -88 335 -35v-13q-82 -44 -222 -39q-111 4 -186 41q-81 40 -150 108 q-16 16 -28 31l-87 105q-1 0 -21 -2v-131q1 -19 45 -20v-12h-88q-3 52 -3 62v308q0 12 3 62h95q63 0 86 -61q9 -26 9 -59q0 -67 -43 -103l73 -89q64 -79 116 -115q29 -19 66 -38zM185 453q72 4 90 48q9 23 9 61q0 86 -42 103q-14 5 -32 5h-25v-217zM528 195l2 3 q-101 52 -198 162l-72 90l-15 -10l74 -92q96 -112 209 -153zM576 287q-104 54 -114 170q-1 11 -1 22q0 115 95 178q3 1 5 3q-52 -63 -52 -175q0 -133 67 -198zM707 257q-133 0 -168 138q-10 42 -11 91q0 167 115 205q30 9 65 9q39 0 91 -19q2 -1 3 -1q27 -11 35 2l2 4l11 -4 l-30 -98l-11 4q6 43 -19 63q-28 21 -82 21q-132 -2 -132 -181q0 -154 84 -194q26 -11 57 -12q76 0 124 54q5 5 9 10l9 -22q-49 -69 -150 -69q-1 -1 -2 -1zM75 34v2h24v-2q-3 -1 -4 -3v-16q0 -3 1 -5q-11 -10 -29 -10q-28 0 -35 26q-2 7 -2 12q0 31 30 37q5 0 9 1q9 -1 16 -4 q3 1 4 2h2v-16l-2 1q-3 12 -20 12q-26 0 -27 -28l-1 -2q0 -32 23 -36q3 -1 6 -1q8 1 15 4v20q-1 5 -10 6zM193 33l19 -25q5 -5 11 -5v-2h-21q1 3 0 4l-18 25q-5 0 -10 -1v-23q2 -3 8 -3v-2h-25v2q5 1 7 3v63q-2 3 -7 4v2h27q23 -2 25 -19q-1 -14 -16 -23zM174 33q22 3 23 22 q-2 15 -16 16h-7v-38zM304 76l27 -70q2 -3 5 -3v-2h-21v2q4 1 5 2l-8 20h-24l-7 -20l3 -2h4v-2h-18v2q5 1 6 2l25 70zM289 29h22l-11 31zM418 75q22 0 25 -18v-3q0 -21 -26 -26q-4 -1 -9 -1v-21q2 -3 9 -3v-2h-26v2q6 1 7 3v63q-1 3 -7 4v2h27zM408 31q23 2 24 21 q-2 18 -17 19h-7v-40zM548 73v2h23v-2q-6 -1 -7 -4v-63q1 -3 7 -3v-2h-23v2q4 1 5 3v32h-36v-32q2 -3 6 -3v-2h-23v2q5 1 7 3v63q-2 3 -7 4v2h23v-2q-5 -1 -6 -4v-27h36v27q-1 3 -5 4zM630 73v2h23v-2q-5 -1 -6 -3v-64q1 -3 6 -3v-2h-23v2q5 1 6 3v64q-1 2 -6 3zM751 4 q14 1 21 10l2 -3q-9 -11 -25 -11q-30 0 -37 27q-1 6 -1 11q0 29 28 36q6 1 11 2q7 -1 14 -3q5 -1 6 0h2l-5 -16l-1 1q0 8 -4 10q-5 3 -13 3q-24 0 -26 -26q-1 -3 -1 -5q0 -30 23 -35q3 -1 6 -1zM859 44q18 -12 18 -23q-5 -18 -24 -21q-7 0 -15 4q-5 1 -7 -1l-1 1l5 18l2 -1 q1 -14 15 -17q14 1 15 13q-1 11 -21 22q-13 9 -13 18q1 18 21 19q5 0 11 -3q5 0 6 1h2l-5 -15l-1 1q0 11 -13 11q-11 -1 -12 -10q0 -7 13 -15q3 -1 4 -2z" glyph-name="divide" unicode="÷"/>
<glyph d="M32 695h86q3 -52 3 -62v-308q0 -13 -3 -62h-86v12q39 3 43 20v367q-3 19 -43 20v13zM544 230q178 -88 335 -35v-13q-82 -44 -222 -39q-111 4 -186 41q-81 40 -150 108q-16 16 -28 31l-87 105q-1 0 -21 -2v-131q1 -19 45 -20v-12h-88q-3 52 -3 62v308q0 12 3 62h95 q63 0 86 -61q9 -26 9 -59q0 -67 -43 -103l73 -89q64 -79 116 -115q29 -19 66 -38zM185 453q72 4 90 48q9 23 9 61q0 86 -42 103q-14 5 -32 5h-25v-217zM528 195l2 3q-101 52 -198 162l-72 90l-15 -10l74 -92q96 -112 209 -153zM350 576q0 78 -42 112q77 -21 89 -82 q2 -10 2 -20q0 -60 -53 -100q-15 -11 -28 -16q32 42 32 106zM576 287q-104 54 -114 170q-1 11 -1 22q0 115 95 178q3 1 5 3q-52 -63 -52 -175q0 -133 67 -198zM707 257q-133 0 -168 138q-10 42 -11 91q0 167 115 205q30 9 65 9q39 0 91 -19q2 -1 3 -1q27 -11 35 2l2 4l11 -4 l-30 -98l-11 4q6 43 -19 63q-28 21 -82 21q-132 -2 -132 -181q0 -154 84 -194q26 -11 57 -12q76 0 124 54q5 5 9 10l9 -22q-49 -69 -150 -69q-1 -1 -2 -1zM75 34v2h24v-2q-3 -1 -4 -3v-16q0 -3 1 -5q-11 -10 -29 -10q-28 0 -35 26q-2 7 -2 12q0 31 30 37q5 0 9 1q9 -1 16 -4 q3 1 4 2h2v-16l-2 1q-3 12 -20 12q-26 0 -27 -28l-1 -2q0 -32 23 -36q3 -1 6 -1q8 1 15 4v20q-1 5 -10 6zM193 33l19 -25q5 -5 11 -5v-2h-21q1 3 0 4l-18 25q-5 0 -10 -1v-23q2 -3 8 -3v-2h-25v2q5 1 7 3v63q-2 3 -7 4v2h27q23 -2 25 -19q-1 -14 -16 -23zM174 33q22 3 23 22 q-2 15 -16 16h-7v-38zM304 76l27 -70q2 -3 5 -3v-2h-21v2q4 1 5 2l-8 20h-24l-7 -20l3 -2h4v-2h-18v2q5 1 6 2l25 70zM289 29h22l-11 31zM418 75q22 0 25 -18v-3q0 -21 -26 -26q-4 -1 -9 -1v-21q2 -3 9 -3v-2h-26v2q6 1 7 3v63q-1 3 -7 4v2h27zM408 31q23 2 24 21 q-2 18 -17 19h-7v-40zM548 73v2h23v-2q-6 -1 -7 -4v-63q1 -3 7 -3v-2h-23v2q4 1 5 3v32h-36v-32q2 -3 6 -3v-2h-23v2q5 1 7 3v63q-2 3 -7 4v2h23v-2q-5 -1 -6 -4v-27h36v27q-1 3 -5 4zM630 73v2h23v-2q-5 -1 -6 -3v-64q1 -3 6 -3v-2h-23v2q5 1 6 3v64q-1 2 -6 3zM751 4 q14 1 21 10l2 -3q-9 -11 -25 -11q-30 0 -37 27q-1 6 -1 11q0 29 28 36q6 1 11 2q7 -1 14 -3q5 -1 6 0h2l-5 -16l-1 1q0 8 -4 10q-5 3 -13 3q-24 0 -26 -26q-1 -3 -1 -5q0 -30 23 -35q3 -1 6 -1zM859 44q18 -12 18 -23q-5 -18 -24 -21q-7 0 -15 4q-5 1 -7 -1l-1 1l5 18l2 -1 q1 -14 15 -17q14 1 15 13q-1 11 -21 22q-13 9 -13 18q1 18 21 19q5 0 11 -3q5 0 6 1h2l-5 -15l-1 1q0 11 -13 11q-11 -1 -12 -10q0 -7 13 -15q3 -1 4 -2z" glyph-name="oslash" unicode="ø"/>
<glyph d="M32 695h86q3 -52 3 -62v-308q0 -13 -3 -62h-86v12q39 3 43 20v367q-3 19 -43 20v13zM350 576q0 78 -42 112q77 -21 89 -82q2 -10 2 -20q0 -60 -53 -100q-15 -11 -28 -16q32 42 32 106zM544 230q178 -88 335 -35v-13q-82 -44 -222 -39q-111 4 -186 41q-81 40 -150 108 q-16 16 -28 31l-87 105q-1 0 -21 -2v-131q1 -19 45 -20v-12h-88q-3 52 -3 62v308q0 12 3 62h95q63 0 86 -61q9 -26 9 -59q0 -67 -43 -103l73 -89q64 -79 116 -115q29 -19 66 -38zM185 453q72 4 90 48q9 23 9 61q0 86 -42 103q-14 5 -32 5h-25v-217zM528 195l2 3 q-101 52 -198 162l-72 90l-15 -10l74 -92q96 -112 209 -153zM576 287q-104 54 -114 170q-1 11 -1 22q0 115 95 178q3 1 5 3q-52 -63 -52 -175q0 -133 67 -198zM707 257q-133 0 -168 138q-10 42 -11 91q0 167 115 205q30 9 65 9q39 0 91 -19q2 -1 3 -1q27 -11 35 2l2 4l11 -4 l-30 -98l-11 4q6 43 -19 63q-28 21 -82 21q-132 -2 -132 -181q0 -154 84 -194q26 -11 57 -12q76 0 124 54q5 5 9 10l9 -22q-49 -69 -150 -69q-1 -1 -2 -1zM75 34v2h24v-2q-3 -1 -4 -3v-16q0 -3 1 -5q-11 -10 -29 -10q-28 0 -35 26q-2 7 -2 12q0 31 30 37q5 0 9 1q9 -1 16 -4 q3 1 4 2h2v-16l-2 1q-3 12 -20 12q-26 0 -27 -28l-1 -2q0 -32 23 -36q3 -1 6 -1q8 1 15 4v20q-1 5 -10 6zM193 33l19 -25q5 -5 11 -5v-2h-21q1 3 0 4l-18 25q-5 0 -10 -1v-23q2 -3 8 -3v-2h-25v2q5 1 7 3v63q-2 3 -7 4v2h27q23 -2 25 -19q-1 -14 -16 -23zM174 33q22 3 23 22 q-2 15 -16 16h-7v-38zM304 76l27 -70q2 -3 5 -3v-2h-21v2q4 1 5 2l-8 20h-24l-7 -20l3 -2h4v-2h-18v2q5 1 6 2l25 70zM289 29h22l-11 31zM418 75q22 0 25 -18v-3q0 -21 -26 -26q-4 -1 -9 -1v-21q2 -3 9 -3v-2h-26v2q6 1 7 3v63q-1 3 -7 4v2h27zM408 31q23 2 24 21 q-2 18 -17 19h-7v-40zM548 73v2h23v-2q-6 -1 -7 -4v-63q1 -3 7 -3v-2h-23v2q4 1 5 3v32h-36v-32q2 -3 6 -3v-2h-23v2q5 1 7 3v63q-2 3 -7 4v2h23v-2q-5 -1 -6 -4v-27h36v27q-1 3 -5 4zM630 73v2h23v-2q-5 -1 -6 -3v-64q1 -3 6 -3v-2h-23v2q5 1 6 3v64q-1 2 -6 3zM751 4 q14 1 21 10l2 -3q-9 -11 -25 -11q-30 0 -37 27q-1 6 -1 11q0 29 28 36q6 1 11 2q7 -1 14 -3q5 -1 6 0h2l-5 -16l-1 1q0 8 -4 10q-5 3 -13 3q-24 0 -26 -26q-1 -3 -1 -5q0 -30 23 -35q3 -1 6 -1zM859 44q18 -12 18 -23q-5 -18 -24 -21q-7 0 -15 4q-5 1 -7 -1l-1 1l5 18l2 -1 q1 -14 15 -17q14 1 15 13q-1 11 -21 22q-13 9 -13 18q1 18 21 19q5 0 11 -3q5 0 6 1h2l-5 -15l-1 1q0 11 -13 11q-11 -1 -12 -10q0 -7 13 -15q3 -1 4 -2z" glyph-name="ugrave" unicode="ù"/>
<glyph d="M32 695h86q3 -52 3 -62v-308q0 -13 -3 -62h-86v12q39 3 43 20v367q-3 19 -43 20v13zM350 576q0 78 -42 112q77 -21 89 -82q2 -10 2 -20q0 -60 -53 -100q-15 -11 -28 -16q32 42 32 106zM544 230q178 -88 335 -35v-13q-82 -44 -222 -39q-111 4 -186 41q-81 40 -150 108 q-16 16 -28 31l-87 105q-1 0 -21 -2v-131q1 -19 45 -20v-12h-88q-3 52 -3 62v308q0 12 3 62h95q63 0 86 -61q9 -26 9 -59q0 -67 -43 -103l73 -89q64 -79 116 -115q29 -19 66 -38zM185 453q72 4 90 48q9 23 9 61q0 86 -42 103q-14 5 -32 5h-25v-217zM528 195l2 3 q-101 52 -198 162l-72 90l-15 -10l74 -92q96 -112 209 -153zM576 287q-104 54 -114 170q-1 11 -1 22q0 115 95 178q3 1 5 3q-52 -63 -52 -175q0 -133 67 -198zM707 257q-133 0 -168 138q-10 42 -11 91q0 167 115 205q30 9 65 9q39 0 91 -19q2 -1 3 -1q27 -11 35 2l2 4l11 -4 l-30 -98l-11 4q6 43 -19 63q-28 21 -82 21q-132 -2 -132 -181q0 -154 84 -194q26 -11 57 -12q76 0 124 54q5 5 9 10l9 -22q-49 -69 -150 -69q-1 -1 -2 -1zM75 34v2h24v-2q-3 -1 -4 -3v-16q0 -3 1 -5q-11 -10 -29 -10q-28 0 -35 26q-2 7 -2 12q0 31 30 37q5 0 9 1q9 -1 16 -4 q3 1 4 2h2v-16l-2 1q-3 12 -20 12q-26 0 -27 -28l-1 -2q0 -32 23 -36q3 -1 6 -1q8 1 15 4v20q-1 5 -10 6zM193 33l19 -25q5 -5 11 -5v-2h-21q1 3 0 4l-18 25q-5 0 -10 -1v-23q2 -3 8 -3v-2h-25v2q5 1 7 3v63q-2 3 -7 4v2h27q23 -2 25 -19q-1 -14 -16 -23zM174 33q22 3 23 22 q-2 15 -16 16h-7v-38zM304 76l27 -70q2 -3 5 -3v-2h-21v2q4 1 5 2l-8 20h-24l-7 -20l3 -2h4v-2h-18v2q5 1 6 2l25 70zM289 29h22l-11 31zM418 75q22 0 25 -18v-3q0 -21 -26 -26q-4 -1 -9 -1v-21q2 -3 9 -3v-2h-26v2q6 1 7 3v63q-1 3 -7 4v2h27zM408 31q23 2 24 21 q-2 18 -17 19h-7v-40zM548 73v2h23v-2q-6 -1 -7 -4v-63q1 -3 7 -3v-2h-23v2q4 1 5 3v32h-36v-32q2 -3 6 -3v-2h-23v2q5 1 7 3v63q-2 3 -7 4v2h23v-2q-5 -1 -6 -4v-27h36v27q-1 3 -5 4zM630 73v2h23v-2q-5 -1 -6 -3v-64q1 -3 6 -3v-2h-23v2q5 1 6 3v64q-1 2 -6 3zM751 4 q14 1 21 10l2 -3q-9 -11 -25 -11q-30 0 -37 27q-1 6 -1 11q0 29 28 36q6 1 11 2q7 -1 14 -3q5 -1 6 0h2l-5 -16l-1 1q0 8 -4 10q-5 3 -13 3q-24 0 -26 -26q-1 -3 -1 -5q0 -30 23 -35q3 -1 6 -1zM859 44q18 -12 18 -23q-5 -18 -24 -21q-7 0 -15 4q-5 1 -7 -1l-1 1l5 18l2 -1 q1 -14 15 -17q14 1 15 13q-1 11 -21 22q-13 9 -13 18q1 18 21 19q5 0 11 -3q5 0 6 1h2l-5 -15l-1 1q0 11 -13 11q-11 -1 -12 -10q0 -7 13 -15q3 -1 4 -2z" glyph-name="uacute" unicode="ú"/>
<glyph d="M32 695h86q3 -52 3 -62v-308q0 -13 -3 -62h-86v12q39 3 43 20v367q-3 19 -43 20v13zM350 576q0 78 -42 112q77 -21 89 -82q2 -10 2 -20q0 -60 -53 -100q-15 -11 -28 -16q32 42 32 106zM544 230q178 -88 335 -35v-13q-82 -44 -222 -39q-111 4 -186 41q-81 40 -150 108 q-16 16 -28 31l-87 105q-1 0 -21 -2v-131q1 -19 45 -20v-12h-88q-3 52 -3 62v308q0 12 3 62h95q63 0 86 -61q9 -26 9 -59q0 -67 -43 -103l73 -89q64 -79 116 -115q29 -19 66 -38zM185 453q72 4 90 48q9 23 9 61q0 86 -42 103q-14 5 -32 5h-25v-217zM528 195l2 3 q-101 52 -198 162l-72 90l-15 -10l74 -92q96 -112 209 -153zM707 257q-133 0 -168 138q-10 42 -11 91q0 167 115 205q30 9 65 9q39 0 91 -19q2 -1 3 -1q27 -11 35 2l2 4l11 -4l-30 -98l-11 4q6 43 -19 63q-28 21 -82 21q-132 -2 -132 -181q0 -154 84 -194q26 -11 57 -12 q76 0 124 54q5 5 9 10l9 -22q-49 -69 -150 -69q-1 -1 -2 -1zM576 287q-104 54 -114 170q-1 11 -1 22q0 115 95 178q3 1 5 3q-52 -63 -52 -175q0 -133 67 -198zM75 34v2h24v-2q-3 -1 -4 -3v-16q0 -3 1 -5q-11 -10 -29 -10q-28 0 -35 26q-2 7 -2 12q0 31 30 37q5 0 9 1 q9 -1 16 -4q3 1 4 2h2v-16l-2 1q-3 12 -20 12q-26 -2 -28 -30q0 -32 23 -36q3 -1 6 -1q8 1 15 4v20q-1 5 -10 6zM193 33l19 -25q5 -5 11 -5v-2h-21q1 3 0 4l-18 25q-5 0 -10 -1v-23q2 -3 8 -3v-2h-25v2q5 1 7 3v63q-2 3 -7 4v2h27q23 -2 25 -19q-1 -14 -16 -23zM174 33 q22 3 23 22q-2 15 -16 16h-7v-38zM304 76l27 -70q2 -3 5 -3v-2h-21v2q4 1 5 2l-8 20h-24l-7 -20l3 -2h4v-2h-18v2q5 1 6 2l25 70zM289 29h22l-11 31zM418 75q22 0 25 -18v-3q0 -21 -26 -26q-4 -1 -9 -1v-21q2 -3 9 -3v-2h-26v2q6 1 7 3v63q-1 3 -7 4v2h27zM408 31 q23 2 24 21q-2 18 -17 19h-7v-40zM548 73v2h23v-2q-6 -1 -7 -4v-63q1 -3 7 -3v-2h-23v2q4 1 5 3v32h-36v-32q2 -3 6 -3v-2h-23v2q5 1 7 3v63q-2 3 -7 4v2h23v-2q-5 -1 -6 -4v-27h36v27q-1 3 -5 4zM630 73v2h23v-2q-5 -1 -6 -3v-64q1 -3 6 -3v-2h-23v2q5 1 6 3v64q-1 2 -6 3z M751 4q14 1 21 10l2 -3q-9 -11 -25 -11q-30 0 -37 27q-1 6 -1 11q0 29 28 36q6 1 11 2q7 -1 14 -3q5 -1 6 0h2l-5 -16l-1 1q0 8 -4 10q-5 3 -13 3q-24 0 -26 -26q-1 -3 -1 -5q0 -30 23 -35q3 -1 6 -1zM859 44q18 -12 18 -23q-5 -18 -24 -21q-7 0 -15 4q-5 1 -7 -1l-1 1l5 18 l2 -1q1 -14 15 -17q14 1 15 13q-1 11 -21 22q-13 9 -13 18q1 18 21 19q5 0 11 -3q5 0 6 1h2l-5 -15l-1 1q0 11 -13 11q-11 -1 -12 -10q0 -7 13 -15q3 -1 4 -2z" glyph-name="ucircumflex" unicode="û"/>
<glyph d="M32 695h86q3 -52 3 -62v-308q0 -13 -3 -62h-86v12q39 3 43 20v367q-3 19 -43 20v13zM544 230q178 -88 335 -35v-13q-82 -44 -222 -39q-111 4 -186 41q-81 40 -150 108q-16 16 -28 31l-87 105q-1 0 -21 -2v-131q1 -19 45 -20v-12h-88q-3 52 -3 62v308q0 12 3 62h95 q63 0 86 -61q9 -26 9 -59q0 -67 -43 -103l73 -89q64 -79 116 -115q29 -19 66 -38zM185 453q72 4 90 48q9 23 9 61q0 86 -42 103q-14 5 -32 5h-25v-217zM528 195l2 3q-101 52 -198 162l-72 90l-15 -10l74 -92q96 -112 209 -153zM350 576q0 78 -42 112q77 -21 89 -82 q2 -10 2 -20q0 -60 -53 -100q-15 -11 -28 -16q32 42 32 106zM707 257q-133 0 -168 138q-10 42 -11 91q0 167 115 205q30 9 65 9q39 0 91 -19q2 -1 3 -1q27 -11 35 2l2 4l11 -4l-30 -98l-11 4q6 43 -19 63q-28 21 -82 21q-132 -2 -132 -181q0 -154 84 -194q26 -11 57 -12 q76 0 124 54q5 5 9 10l9 -22q-49 -69 -150 -69q-1 -1 -2 -1zM576 287q-104 54 -114 170q-1 11 -1 22q0 115 95 178q3 1 5 3q-52 -63 -52 -175q0 -133 67 -198zM75 34v2h24v-2q-3 -1 -4 -3v-16q0 -3 1 -5q-11 -10 -29 -10q-28 0 -35 26q-2 7 -2 12q0 31 30 37q5 0 9 1 q9 -1 16 -4q3 1 4 2h2v-16l-2 1q-3 12 -20 12q-26 -2 -28 -30q0 -32 23 -36q3 -1 6 -1q8 1 15 4v20q-1 5 -10 6zM193 33l19 -25q5 -5 11 -5v-2h-21q1 3 0 4l-18 25q-5 0 -10 -1v-23q2 -3 8 -3v-2h-25v2q5 1 7 3v63q-2 3 -7 4v2h27q23 -2 25 -19q-1 -14 -16 -23zM174 33 q22 3 23 22q-2 15 -16 16h-7v-38zM304 76l27 -70q2 -3 5 -3v-2h-21v2q4 1 5 2l-8 20h-24l-7 -20l3 -2h4v-2h-18v2q5 1 6 2l25 70zM289 29h22l-11 31zM418 75q22 0 25 -18v-3q0 -21 -26 -26q-4 -1 -9 -1v-21q2 -3 9 -3v-2h-26v2q6 1 7 3v63q-1 3 -7 4v2h27zM408 31 q23 2 24 21q-2 18 -17 19h-7v-40zM548 73v2h23v-2q-6 -1 -7 -4v-63q1 -3 7 -3v-2h-23v2q4 1 5 3v32h-36v-32q2 -3 6 -3v-2h-23v2q5 1 7 3v63q-2 3 -7 4v2h23v-2q-5 -1 -6 -4v-27h36v27q-1 3 -5 4zM630 73v2h23v-2q-5 -1 -6 -3v-64q1 -3 6 -3v-2h-23v2q5 1 6 3v64q-1 2 -6 3z M751 4q14 1 21 10l2 -3q-9 -11 -25 -11q-30 0 -37 27q-1 6 -1 11q0 29 28 36q6 1 11 2q7 -1 14 -3q5 -1 6 0h2l-5 -16l-1 1q0 8 -4 10q-5 3 -13 3q-24 0 -26 -26q-1 -3 -1 -5q0 -30 23 -35q3 -1 6 -1zM859 44q18 -12 18 -23q-5 -18 -24 -21q-7 0 -15 4q-5 1 -7 -1l-1 1l5 18 l2 -1q1 -14 15 -17q14 1 15 13q-1 11 -21 22q-13 9 -13 18q1 18 21 19q5 0 11 -3q5 0 6 1h2l-5 -15l-1 1q0 11 -13 11q-11 -1 -12 -10q0 -7 13 -15q3 -1 4 -2z" glyph-name="udieresis" unicode="ü"/>
</font>
</defs>
</svg>
